<?xml version="1.0" encoding="utf-8"?>
<!-- Generator: Adobe Illustrator 27.5.0, SVG Export Plug-In . SVG Version: 6.00 Build 0)  -->
<svg version="1.1" id="Layer_1" xmlns="http://www.w3.org/2000/svg" xmlns:xlink="http://www.w3.org/1999/xlink" x="0px" y="0px"
	 viewBox="0 0 1200 900" style="enable-background:new 0 0 1200 900;" xml:space="preserve">
<g>
	<defs>
		<path id="SVGID_1_" d="M42.647,475.143c-6.366,293.365,196.105,320.899,248.293,331.33
			c221.287,33.581,408.265,37.075,622.699,26.353c163.624-8.181,255.594-170.905,232.278-416.475S934.825,74.881,794.515,73.865
			C479.409,71.585,42.529,106.998,42.647,475.143z"/>
	</defs>
	<clipPath id="SVGID_00000178903904222874975870000011220621360832152741_">
		<use xlink:href="#SVGID_1_"  style="overflow:visible;"/>
	</clipPath>
	
		<linearGradient id="SVGID_00000095341063184046878850000017458842319440356531_" gradientUnits="userSpaceOnUse" x1="596" y1="191.3155" x2="596" y2="654.9606">
		<stop  offset="0" style="stop-color:#664DC1"/>
		<stop  offset="1" style="stop-color:#5635B0"/>
	</linearGradient>
	
		<path style="clip-path:url(#SVGID_00000178903904222874975870000011220621360832152741_);fill:url(#SVGID_00000095341063184046878850000017458842319440356531_);" d="
		M42.647,475.143c-6.366,293.365,196.105,320.899,248.293,331.33c221.287,33.581,408.265,37.075,622.699,26.353
		c163.624-8.181,255.594-170.905,232.278-416.475S934.825,74.881,794.515,73.865C479.409,71.585,42.529,106.998,42.647,475.143z"/>
	<polygon style="clip-path:url(#SVGID_00000178903904222874975870000011220621360832152741_);fill:#816EE0;" points="
		678.711,253.746 950.994,349.221 761.168,851.221 227.31,549.751 	"/>
	
		<linearGradient id="SVGID_00000057870979206635034040000017024814133829454496_" gradientUnits="userSpaceOnUse" x1="666.7078" y1="505.2323" x2="660.0659" y2="890.4479">
		<stop  offset="0.2934" style="stop-color:#331768"/>
		<stop  offset="0.5672" style="stop-color:#432085"/>
		<stop  offset="0.7266" style="stop-color:#492491"/>
	</linearGradient>
	
		<path style="clip-path:url(#SVGID_00000178903904222874975870000011220621360832152741_);fill:url(#SVGID_00000057870979206635034040000017024814133829454496_);" d="
		M1135.273,912.008H188.064V683.146c0-8.133,6.593-14.727,14.727-14.727h932.482V912.008z"/>
	<path style="clip-path:url(#SVGID_00000178903904222874975870000011220621360832152741_);fill:#331768;" d="M1215.864,668.419
		H199.994c-6.589,0-11.931,5.341-11.931,11.931v231.658h15.339V698.248c0-5.177,4.197-9.374,9.374-9.374h1003.087V668.419z"/>
	<path style="clip-path:url(#SVGID_00000178903904222874975870000011220621360832152741_);fill:#E39C2C;" d="M892.169,529.202
		c0,0,44.042,65.225,42.374,79.988c0,0,7.716,0.004,7.716-6.932c0-6.936-35.293-85.166-35.293-85.166L892.169,529.202z"/>
	<path style="opacity:0.47;clip-path:url(#SVGID_00000178903904222874975870000011220621360832152741_);fill:#CF8A28;" d="
		M937.658,510.851l4.593,9.059c0,0,0.079,13.476-13.843,22.432c-18.149,11.675-25.59,2.96-25.59,2.96l-10.119-15.32l44.205-19.131
		H937.658z"/>
	<path style="clip-path:url(#SVGID_00000178903904222874975870000011220621360832152741_);" d="M805.975,275.782
		c-0.081,0-0.147-0.012-0.166-0.016c-0.167-0.034-0.285-0.181-0.285-0.35c0-0.086,0.032-0.366,0.451-0.366
		c0.422,0,0.444,0.305,0.444,0.366c0,0.17-0.119,0.316-0.285,0.35C806.115,275.77,806.049,275.782,805.975,275.782z
		 M805.703,275.416h0.358l-0.049,0.35c0.046-0.007,0.228-0.135,0.228-0.35H805.703z"/>
	
		<linearGradient id="SVGID_00000076577374006537426270000017008998479652791185_" gradientUnits="userSpaceOnUse" x1="450.3683" y1="655.8027" x2="449.1412" y2="562.5395">
		<stop  offset="0" style="stop-color:#331768"/>
		<stop  offset="1" style="stop-color:#431C7F"/>
	</linearGradient>
	
		<rect x="427.073" y="526.683" style="clip-path:url(#SVGID_00000178903904222874975870000011220621360832152741_);fill:url(#SVGID_00000076577374006537426270000017008998479652791185_);" width="45.057" height="141.736"/>
	
		<rect x="427.073" y="531.182" style="clip-path:url(#SVGID_00000178903904222874975870000011220621360832152741_);fill:#371369;" width="45.057" height="45.057"/>
	<g style="clip-path:url(#SVGID_00000178903904222874975870000011220621360832152741_);">
		<path style="fill:#492491;" d="M670.711,549.751H228.492c-4.418,0-8-3.582-8-8V254.928c0-4.418,3.582-8,8-8h442.219
			c4.418,0,8,3.582,8,8v286.823C678.711,546.169,675.129,549.751,670.711,549.751z"/>
		<path style="opacity:0.69;fill:#371369;" d="M663,539.666H236.204c-2.761,0-5-2.239-5-5V262.013c0-2.762,2.239-5,5-5H663
			c2.761,0,5,2.238,5,5v272.653C668,537.428,665.761,539.666,663,539.666z"/>
		<g>
			<defs>
				<path id="SVGID_00000168076664652276733970000012326838138292047783_" d="M661.257,535.32H237.946c-1.657,0-3-1.343-3-3V264.359
					c0-1.657,1.343-3,3-3h423.311c1.657,0,3,1.343,3,3V532.32C664.257,533.977,662.914,535.32,661.257,535.32z"/>
			</defs>
			<use xlink:href="#SVGID_00000168076664652276733970000012326838138292047783_"  style="overflow:visible;fill:#DBC5F9;"/>
			<clipPath id="SVGID_00000127729237147884620560000016296952949554212018_">
				<use xlink:href="#SVGID_00000168076664652276733970000012326838138292047783_"  style="overflow:visible;"/>
			</clipPath>
			<path style="opacity:0.33;clip-path:url(#SVGID_00000127729237147884620560000016296952949554212018_);fill:#B295DB;" d="
				M662.044,535.32H237.16c-1.223,0-2.214-0.991-2.214-2.214V388.363c0-1.223,0.991-2.214,2.214-2.214h424.883
				c1.223,0,2.214,0.991,2.214,2.214v144.743C664.257,534.329,663.266,535.32,662.044,535.32z"/>
			<g style="clip-path:url(#SVGID_00000127729237147884620560000016296952949554212018_);">
				<path style="opacity:0.27;fill:#725DD8;" d="M263.319,288.958l41.595,0.368l0.13,39.452l19.553,0.175l0.75-13.315l47.931,0.018
					l8.928,87.056l-123.656-1.1L263.319,288.958z"/>
				<path style="opacity:0.12;fill:#725DD8;" d="M530.063,321.549l37.337,0.054l0.067,20.348l16.145,1.599v5.676l16.145,0.885
					v-18.448l16.329-0.135l0.171,15.57l16.145,0.355l0.067-28.76l30.403-0.085l3.063,115.604l-137.502-20.227L530.063,321.549z"/>
				<path style="fill:#EF8E4D;" d="M463.459,403.781h-34.364v-40.373h34.364V403.781z"/>
				<path style="fill:#C9AEF4;" d="M531.801,381.794h-44.123V276.025l43.97,7.293L531.801,381.794z"/>
				<path style="fill:#BEA3E5;" d="M377.243,417.249h-99.37v-42.475h99.37V417.249z"/>
				<path style="fill:#AE93D8;" d="M548.323,433.376l117.683,17.029l-0.229-82.812l-117.45,18.812L548.323,433.376z"/>
				<path style="fill:#BEA3E5;" d="M681.962,365.065c0,11.932-11.093,21.606-24.776,21.606c-13.688,0-24.781-9.673-24.781-21.606
					c0-11.932,11.093-21.605,24.781-21.605C670.87,343.46,681.962,353.133,681.962,365.065z"/>
				<path style="fill:#BEA3E5;" d="M567.315,381.012c0,6.88-7.046,12.458-15.732,12.458c-8.69,0-15.731-5.578-15.731-12.458
					c0-6.884,7.042-12.462,15.731-12.462C560.269,368.55,567.315,374.128,567.315,381.012z"/>
				<path d="M580.563,377.968c-0.104,0-0.189-0.085-0.189-0.188v-0.095c0-0.104,0.085-0.189,0.189-0.189
					c0.104,0,0.189,0.085,0.189,0.189v0.095C580.752,377.883,580.667,377.968,580.563,377.968z"/>
				<path d="M683.499,487.693c-0.778,0-1.388-0.836-1.388-1.904c0-1.068,0.61-1.905,1.388-1.905c0.765,0,1.387,0.855,1.387,1.905
					C684.886,486.839,684.263,487.693,683.499,487.693z M683.499,484.262c-0.558,0-1.01,0.685-1.01,1.527
					c0,0.841,0.453,1.526,1.01,1.526c0.548,0,1.01-0.699,1.01-1.526C684.508,484.961,684.046,484.262,683.499,484.262z"/>
				<path style="fill:#BEA3E5;" d="M653.974,333.695l0.726,13.261c0.045,0.822-0.584,1.524-1.406,1.569
					c-0.822,0.045-1.524-0.584-1.569-1.405c-0.003-0.047-0.003-0.097-0.001-0.143l0.546-13.271c0.019-0.471,0.417-0.837,0.888-0.817
					C653.599,332.907,653.949,333.263,653.974,333.695z"/>
				<path style="fill:#BEA3E5;" d="M553.286,362.33l0.469,8.574c0.029,0.531-0.378,0.985-0.909,1.015
					c-0.531,0.029-0.985-0.378-1.015-0.909c-0.002-0.03-0.002-0.063-0.001-0.093l0.353-8.58c0.013-0.304,0.269-0.541,0.574-0.528
					C553.044,361.82,553.27,362.05,553.286,362.33z"/>
				<path d="M413.372,386.424c-0.14,0-0.225-0.084-0.225-0.189v-0.085c0-0.104,0.085-0.189,0.189-0.189s0.225,0.085,0.225,0.189
					v0.085C413.561,386.339,413.476,386.424,413.372,386.424z"/>
				<path style="opacity:0.18;fill:#461B89;" d="M504.582,326.727l-8.771,0.813l0.076-24.39l8.766,0.368L504.582,326.727z"/>
				<path style="opacity:0.18;fill:#461B89;" d="M517.022,325.285l-7.338,0.822l0.094-22.288l7.145,0.548L517.022,325.285z"/>
				<path style="opacity:0.18;fill:#461B89;" d="M528.617,324.082l-6.503,0.629l0.103-19.993l6.395,0.332L528.617,324.082z"/>
				<path style="fill:#9890D1;" d="M304.68,537.533h-71.055l0.939-265.379l40.692,2.506l2.816,67.61h26.609V537.533z"/>
				<path style="fill:#BEA3E5;" d="M670.367,450.863l-42.668-5.735l-0.449-79.632l44.262-5.012L670.367,450.863z"/>
				<path style="fill:#BEA3E5;" d="M569.008,439.457h-24.731v-58.934h24.731V439.457z"/>
				<path style="fill:#C9AEF4;" d="M548.13,438.064l-37.881,11.555l-0.224-84.63l38.253,2.075L548.13,438.064z"/>
				<path style="opacity:0.18;fill:#461B89;" d="M528.464,414.079l-9.094,2.03l0.099-21.974h8.995V414.079z"/>
				<path style="opacity:0.18;fill:#461B89;" d="M542.943,411.631l-7.612,1.428v-19.257h7.612V411.631z"/>
				<path style="fill:#9890D1;" d="M510.47,449.727l-64.471-10.221l-0.072-36.583l-2.192-115.546l43.939-11.276l0.579,92.215
					l21.682-3.467L510.47,449.727z"/>
				<g>
					<path style="fill:#BEA3E5;" d="M479.011,467.556l-33.246,10.37l0.157-79.655l33.223-0.162L479.011,467.556z"/>
					<path style="fill:#9890D1;" d="M445.873,478.118l-87.72-36.857V307.057l70.915-5.65l0.323,98.875l16.607-1.68L445.873,478.118z
						"/>
					<path style="opacity:0.18;fill:#461B89;" d="M396.756,387.641l-11.366-1.859v-17.883l11.492-1.1L396.756,387.641z"/>
					<path style="opacity:0.18;fill:#461B89;" d="M379.578,384.785l-10.747-0.804l-0.014-15.233l10.76-0.741V384.785z"/>
					<path style="fill:#BEA3E5;" d="M466.441,398.109l-20.442,0.494l-16.97,2.374l-0.118-99.238l38.24,9.92L466.441,398.109z"/>
					<path style="opacity:0.18;fill:#461B89;" d="M452.654,352.397h-11.51v-24.215l11.582,1.944L452.654,352.397z"/>
					<path style="opacity:0.18;fill:#461B89;" d="M460.495,433.659l-7.239,0.436l-0.153-15.035l7.513-0.71L460.495,433.659z"/>
					<path style="opacity:0.18;fill:#461B89;" d="M474.911,432.523l-6.983,0.498l0.045-15.161l7.168-0.732L474.911,432.523z"/>
				</g>
				<path style="fill:#6046BC;" d="M287.311,539.666c0,0,23.355-16.778,40.191-26.753c16.832-9.974,35.936-18.817,35.936-18.817
					s11.883-9.054,17.398,5.941c4.459,12.116,0.853,20.797,0.853,20.797l-11.605,16.697L287.311,539.666z"/>
				<path style="fill:#502C93;" d="M365.625,492.682c0,0,3.912-15.368,22.773-23.626c12.862-5.636,22.028,0.135,22.028,0.135
					s6.161,0.498,9.723,3.274c2.654,2.07,2.686,4.024,2.686,4.024s3.93,0.274,7.158,3.727c2.169,2.326,1.864,5.245,1.864,5.245
					s9.619,3.287,7.464,5.429c-2.151,2.138-4.877,0.629-16.077,3.13c-15.619,3.485-24.947,15.179-24.947,15.179
					s5.896-0.108,12.453-1.662c6.552-1.549,10.113-7.217,13.76-4.54c2.326,1.707-4.603,10.792-12.678,15.188
					c-5.735,3.126-10.922,4.316-15.633,4.643c-8.506,0.588-14.42-1.864-14.42-1.864s1.28-6.539-4.935-17.236
					C372.752,496.693,365.625,492.682,365.625,492.682z"/>
				<path style="opacity:0.6;fill:#280E51;" d="M432.102,486.013c-1.57-0.281-3.168-0.507-4.744-0.682
					c-1.583-0.166-3.148-0.263-4.71-0.176c-1.589,0.07-3.168,0.211-4.703,0.497c-1.526,0.301-3.031,0.726-4.307,1.572
					c-0.205,0.136-0.47,0.082-0.601-0.114c-0.116-0.174-0.086-0.403,0.059-0.543c1.258-1.217,2.904-1.903,4.523-2.334
					c1.633-0.438,3.297-0.626,4.949-0.715c1.682-0.099,3.372,0.051,5,0.345c1.638,0.287,3.225,0.73,4.778,1.337
					c0.22,0.086,0.328,0.334,0.242,0.553c-0.076,0.193-0.276,0.301-0.473,0.265L432.102,486.013z"/>
				<path style="opacity:0.6;fill:#280E51;" d="M422.863,476.89c-1.385-0.203-2.754-0.355-4.127-0.366
					c-1.372-0.033-2.744,0.08-4.115,0.257c-1.383,0.175-2.694,0.487-4.016,0.908c-1.304,0.43-2.609,0.96-3.824,1.578
					c-0.229,0.117-0.486,0.033-0.592-0.176c-0.099-0.195-0.034-0.429,0.143-0.548c1.225-0.82,2.515-1.457,3.876-1.979
					c1.344-0.538,2.802-0.885,4.225-1.093c1.43-0.238,2.897-0.3,4.354-0.228c1.458,0.094,2.902,0.367,4.272,0.817
					c0.224,0.074,0.347,0.315,0.273,0.54C423.265,476.8,423.065,476.919,422.863,476.89z"/>
				<path style="opacity:0.6;fill:#280E51;" d="M410.296,469.735c-0.882,0.026-1.797,0.096-2.684,0.184
					c-0.892,0.09-1.775,0.225-2.646,0.399c-0.875,0.165-1.718,0.431-2.556,0.712c-0.837,0.291-1.619,0.695-2.41,1.114
					c-0.234,0.124-0.492,0.045-0.603-0.163c-0.096-0.181-0.048-0.4,0.102-0.526c0.737-0.62,1.556-1.164,2.441-1.556
					c0.877-0.406,1.802-0.716,2.742-0.91c0.94-0.205,1.895-0.317,2.849-0.342c0.959-0.022,1.9,0.044,2.861,0.242
					c0.231,0.048,0.38,0.274,0.332,0.505c-0.041,0.198-0.212,0.335-0.405,0.341L410.296,469.735z"/>
				<path style="fill:#461B89;" d="M382.057,402.753c0,0,23.173,33.039,47.455,51.564c18.255,13.922,23.186,11.308,40.252,27.933
					c5.789,5.636,4.482,9.485,4.482,9.485l13.711-20.452c0,0-5.12,2.016-9.238-0.045c-15.013-7.518-19.598-17.178-38.231-32.325
					C417.163,419.953,382.057,402.753,382.057,402.753z"/>
				<path style="fill:#8074C4;" d="M532.555,502.508c0,0,4.226,4.864,8.479,8.052c2.744,2.057,7.666-1.922,9.848,3.741
					c3.638,9.44-9.404,15.52-9.404,15.52l-15.902-14.707L532.555,502.508z"/>
				<path style="opacity:0.24;fill:#DBC5F9;" d="M480.883,481.835l7.074-10.552c0,0-5.12,2.016-9.238-0.045
					c-15.013-7.518-19.598-17.178-38.231-32.325c-23.326-18.96-58.431-36.161-58.431-36.161L480.883,481.835z"/>
				<path style="fill:#2F166D;" d="M471.552,495.759c-2.156-1.325,14.214-25.899,19.342-28.05
					c5.124-2.156,1.163,19.432,1.163,19.432l-7.374,7.122c0,0-3.166-2.389-6.135-2.025
					C475.576,492.602,474.3,497.443,471.552,495.759z"/>
				<path style="fill:#502C93;" d="M529.628,513.776c0,0,6.638-15.902,6.076-23.312c-0.543-7.208-8.461-15.287-14.366-18.516
					c-15.651-8.551-30.408-4.765-30.408-4.765s2.007,9.7-2.524,19.387c-3.364,7.199-11.555,9.116-11.555,9.116
					s-1.159,6.875,3.422,13.98c4.585,7.105,19.463,13.931,19.463,13.931L529.628,513.776z"/>
				<path style="fill:#6046BC;" d="M493.207,523.58l1.262,12.148l54.587,0.629l-19.136-22.082c0,0-5.73-3.009-18.871,0.35
					C497.37,518.128,493.207,523.58,493.207,523.58z"/>
			</g>
		</g>
		<circle style="opacity:0.65;fill:#431C7F;" cx="280.358" cy="306.077" r="25.566"/>
		<path style="fill:#A86EF4;" d="M294.879,296.771c0,1.694-1.374,3.068-3.068,3.068s-3.068-1.374-3.068-3.068
			c0-1.694,1.374-3.068,3.068-3.068S294.879,295.077,294.879,296.771z"/>
		<path style="fill:#A86EF4;" d="M268.086,296.771c0,1.694-1.374,3.068-3.068,3.068c-1.694,0-3.068-1.374-3.068-3.068
			c0-1.694,1.374-3.068,3.068-3.068C266.713,293.703,268.086,295.077,268.086,296.771z"/>
		<g style="opacity:0.49;">
			<rect x="389.438" y="274.955" style="fill:#5635B0;" width="22.75" height="17.112"/>
			<rect x="414.546" y="274.955" style="fill:#5635B0;" width="22.75" height="17.112"/>
			<rect x="439.819" y="274.955" style="fill:#5635B0;" width="22.75" height="17.112"/>
			<rect x="464.927" y="274.955" style="fill:#5635B0;" width="22.75" height="17.112"/>
			<rect x="489.943" y="274.955" style="fill:#5635B0;" width="22.75" height="17.112"/>
		</g>
	</g>
	<g style="clip-path:url(#SVGID_00000178903904222874975870000011220621360832152741_);">
		<path style="fill:#3B1F7F;" d="M304.23,658.397H292.58c-0.906,0-1.641-0.734-1.641-1.641v-5.513c0-0.906,0.734-1.641,1.641-1.641
			h11.649c0.906,0,1.641,0.734,1.641,1.641v5.513C305.87,657.662,305.136,658.397,304.23,658.397z"/>
		<path style="fill:#3B1F7F;" d="M326.216,658.397h-11.649c-0.906,0-1.641-0.734-1.641-1.641v-5.513
			c0-0.906,0.734-1.641,1.641-1.641h11.649c0.906,0,1.641,0.734,1.641,1.641v5.513C327.857,657.662,327.122,658.397,326.216,658.397
			z"/>
		<path style="fill:#3B1F7F;" d="M347.18,658.397h-11.649c-0.906,0-1.641-0.734-1.641-1.641v-5.513c0-0.906,0.734-1.641,1.641-1.641
			h11.649c0.906,0,1.641,0.734,1.641,1.641v5.513C348.82,657.662,348.086,658.397,347.18,658.397z"/>
		<path style="fill:#3B1F7F;" d="M369.166,658.397h-11.649c-0.906,0-1.641-0.734-1.641-1.641v-5.513
			c0-0.906,0.734-1.641,1.641-1.641h11.649c0.906,0,1.641,0.734,1.641,1.641v5.513C370.807,657.662,370.072,658.397,369.166,658.397
			z"/>
		<path style="fill:#3B1F7F;" d="M471.667,658.397h-11.649c-0.906,0-1.641-0.734-1.641-1.641v-5.513
			c0-0.906,0.734-1.641,1.641-1.641h11.649c0.906,0,1.641,0.734,1.641,1.641v5.513C473.308,657.662,472.573,658.397,471.667,658.397
			z"/>
		<path style="fill:#3B1F7F;" d="M450.518,658.397h-47.971c-0.906,0-1.641-0.734-1.641-1.641v-5.513
			c0-0.906,0.734-1.641,1.641-1.641h47.971c0.906,0,1.64,0.734,1.64,1.64v5.514C452.158,657.662,451.424,658.397,450.518,658.397z"
			/>
		<path style="fill:#3B1F7F;" d="M493.654,658.397h-11.649c-0.906,0-1.641-0.734-1.641-1.641v-5.513
			c0-0.906,0.734-1.641,1.641-1.641h11.649c0.906,0,1.641,0.734,1.641,1.641v5.513C495.294,657.662,494.56,658.397,493.654,658.397z
			"/>
		<path style="fill:#3B1F7F;" d="M514.617,658.397h-11.649c-0.906,0-1.641-0.734-1.641-1.641v-5.513
			c0-0.906,0.734-1.641,1.641-1.641h11.649c0.906,0,1.641,0.734,1.641,1.641v5.513C516.258,657.662,515.523,658.397,514.617,658.397
			z"/>
		<path style="fill:#3B1F7F;" d="M536.604,658.397h-11.649c-0.906,0-1.641-0.734-1.641-1.641v-5.513
			c0-0.906,0.734-1.641,1.641-1.641h11.649c0.906,0,1.641,0.734,1.641,1.641v5.513C538.244,657.662,537.51,658.397,536.604,658.397z
			"/>
		<path style="fill:#3B1F7F;" d="M392.326,658.397h-11.649c-0.906,0-1.641-0.734-1.641-1.641v-5.513
			c0-0.906,0.734-1.641,1.641-1.641h11.649c0.906,0,1.641,0.734,1.641,1.641v5.513C393.967,657.662,393.232,658.397,392.326,658.397
			z"/>
		<path style="fill:#492491;" d="M624.896,668.419H274.307v-8.847c0-2.908,2.357-5.265,5.265-5.265h340.06
			c2.908,0,5.265,2.357,5.265,5.265V668.419z"/>
	</g>
	<g style="clip-path:url(#SVGID_00000178903904222874975870000011220621360832152741_);">
		<g>
			<path style="fill:#492491;" d="M758.691,668.419c-1.905-9.689-10.779-38.677-48.76-38.677c-37.982,0-25.204,28.989-19.873,38.677
				L758.691,668.419z"/>
		</g>
		<g>
			
				<linearGradient id="SVGID_00000018229512925257931660000012017543247621574826_" gradientUnits="userSpaceOnUse" x1="718.6348" y1="308.1611" x2="716.9986" y2="260.0978">
				<stop  offset="0" style="stop-color:#F77E5D"/>
				<stop  offset="0.2962" style="stop-color:#F88D6D"/>
				<stop  offset="0.8737" style="stop-color:#FCB597"/>
				<stop  offset="1" style="stop-color:#FDBFA1"/>
			</linearGradient>
			<path style="fill:url(#SVGID_00000018229512925257931660000012017543247621574826_);" d="M719.249,267.576
				c0,0-6.783,22.379-5.42,30.346c0.648,3.852,9.323,8.82,9.323,8.82L719.249,267.576z"/>
			<path style="fill:#EAA78C;" d="M936.096,507.845c0,0,54.793,103.806,44.62,127.85c-10.172,24.044-199.115,23.697-206.687,22.657
				c-3.577-0.492-8.308,1.507-16.47-3.473c-2.041-1.245-47.495,6.764-49.54,0.935c-2.045-5.829,11.968-3.595,21.986-6.954
				c8.816-2.956,14.7-6.441,13.823-6.997c-4.048-2.567-9.095-5.761-10.422-6.425c-5.307-2.656-9.296-4.153-9.296-4.153
				s-11.607-0.648-14.873,0.768c-3.266,1.416-10.88,8.614-13.814,8.439c-3.872-0.231-1.85-3.757-1.85-3.757
				s-3.699,4.046-6.589,0.231c-2.89-3.815,11.502-17.686,15.837-19.305c6.271-3.366,23.351-8.323,31.558-6.994
				c9.71,1.792,37.942,29.15,43.696,28.495c5.753-0.656,154.553-17.05,156.749-30.749c2.196-13.698-42.655-79.212-42.655-79.212
				L936.096,507.845z"/>
			<path style="fill:#F77E5D;" d="M693.271,636.492c1.55-2.469,3.311-4.768,5.193-6.994c0.965-1.094,1.933-2.188,3.051-3.2
				c0.267-0.258,0.576-0.505,0.875-0.753c0.295-0.234,0.695-0.519,1.009-0.692c0.655-0.347,1.292-0.732,1.961-1.046
				c1.325-0.66,2.679-1.257,4.073-1.736c1.381-0.514,2.798-0.915,4.222-1.265c2.857-0.671,5.757-1.104,8.696-1.08
				c0.164,0.001,0.296,0.135,0.295,0.3c-0.001,0.145-0.105,0.264-0.242,0.29c-2.819,0.532-5.592,1.254-8.282,2.136
				c-2.695,0.878-5.302,1.97-7.794,3.25c-0.63,0.309-1.221,0.684-1.833,1.022c-0.31,0.184-0.503,0.316-0.774,0.524
				c-0.256,0.21-0.515,0.408-0.769,0.648c-1.015,0.926-2.034,1.924-3.023,2.947c-2.005,2.029-3.969,4.131-6.051,6.137
				c-0.159,0.153-0.406,0.148-0.556-0.007C693.193,636.839,693.178,636.641,693.271,636.492z"/>
			<path style="fill:#FDBFA1;" d="M730.651,195.67c0,0-9.672-5.862-11.377,23.905c-1.713,29.767-3.187,127.033,19.805,122.482
				c14.453-2.863,42.797-37.564,42.797-37.564l3.417-101.992L730.651,195.67z"/>
			<path style="fill:#FD917C;" d="M775.868,352.786c0,0,6.008-8.283,8.479,5.735c2.471,14.027,0.81,57.557,0.81,57.557l31.889,0.273
				l9.442-91.082l-45.157-52.299L775.868,352.786z"/>
			<path style="fill:#F77E5D;" d="M719.223,220.965l-0.46,10.608c0,0,4.406-1.547,10.703,2.419c5.727,3.61,8.377,7.05,11.914,16.915
				c8.062,22.463,18.399,13.856,18.399,13.856l-7.695-46.882L719.223,220.965z"/>
			<path style="fill:#371369;" d="M713.991,253.088c-2.718,3.918,8.982,10.242,10.635,6.359
				C726.041,256.121,716.147,249.975,713.991,253.088z"/>
			<path style="fill:#E27259;" d="M775.774,352.718c0,0,1.329-3.085,4.329-2.224c1.977,0.562,3.664,4.619,3.664,4.619
				s4.841-9.74,4.704-23.077c-0.136-13.328-5.258-30.253-5.258-30.253L775.774,352.718z"/>
			<path style="fill:#E27259;" d="M785.694,407.326l-0.188-9.186c0,0,7.602-8.846,15.757-22.702
				c16.882-28.71,23.64-28.148,23.64-28.148l-5.633,33.96L785.694,407.326z"/>
			
				<linearGradient id="SVGID_00000088130882241407049170000008054315039082678448_" gradientUnits="userSpaceOnUse" x1="674.1924" y1="795.8171" x2="669.2838" y2="726.4832">
				<stop  offset="0" style="stop-color:#290D56"/>
				<stop  offset="0.3862" style="stop-color:#270F5B"/>
				<stop  offset="0.8309" style="stop-color:#221369"/>
				<stop  offset="1" style="stop-color:#1F1670"/>
			</linearGradient>
			<path style="fill:url(#SVGID_00000088130882241407049170000008054315039082678448_);" d="M795.775,741.852
				c0,0-141.182-30.253-222.08,1.065c-49.418,19.131-14.053,73.373-9.57,92.445c2.13,9.033,220.495,5.318,220.495,5.318
				L795.775,741.852z"/>
			
				<linearGradient id="SVGID_00000144312941104618577880000016028773448269064611_" gradientUnits="userSpaceOnUse" x1="775.9937" y1="256.3061" x2="772.3123" y2="172.2464">
				<stop  offset="0" style="stop-color:#371369"/>
				<stop  offset="1" style="stop-color:#692893"/>
			</linearGradient>
			<path style="fill:url(#SVGID_00000144312941104618577880000016028773448269064611_);" d="M807.152,345.014
				c-9.587-13.771-17.351-30.508-25.378-51.506c-8.028-21.007-6.724-32.499-6.724-32.499s-10.703,8.996-20.035,0.227
				c-9.331-8.765-3.528-23.164-15.484-32.783c-11.948-9.619-15.476-3.643-30.96-9.79c-16.242-6.449-26.409-32.783-9.11-51.223
				c37.044-39.479,90.843-0.227,90.843-0.227s29.852-2.834,47.356,10.141c24.867,18.433,18.646,22.455,16.379,64.074
				c-2.267,41.623-19.89,97.135-25.455,102.401C821.988,350.076,811.617,351.439,807.152,345.014z"/>
			<path style="fill:#371369;" d="M757.785,254.301c0,0-2.633,34.818-11.411,52.373c-6.502,13.004-11.701,11.112-11.701,11.112
				l-12.288-1.457c0,0-4.645,44.263,22.821,49.154c60.855,10.823,31.011-104.452,31.011-104.452L757.785,254.301z"/>
			<path style="fill:#4B2B89;" d="M718.959,306.921c4.116-3.443,25.634,2.292,19.421,11.854c-1.594,2.454-13.277,0.605-17.981-1.909
				C715.687,314.352,715.627,309.708,718.959,306.921z"/>
			<path style="fill:#5635B0;" d="M753.438,233.657c0.537,0.751-5.923-24.183,8.326-45.785
				c15.186-23.013,28.139-21.095,28.139-21.095l11.112,0.368c0,0-11.146,3.467-22.787,20.447
				c-11.632,16.98-8.837,45.594-8.837,45.594S752.902,232.907,753.438,233.657z"/>
			<path style="opacity:0.4;fill:#331768;" d="M753.277,233.03l-0.545-4.63c0,0,2.829-3.711,6.903-4.473
				c7.141-1.334,9.34,1.098,9.34,1.098l0.631,7.298L753.277,233.03z"/>
			<path style="fill:#5645A8;" d="M738.237,346.995c-12.066,0-24.459-9.181-25.074-9.642c-0.564-0.424-0.678-1.225-0.255-1.789
				c0.423-0.565,1.224-0.679,1.789-0.255c0.168,0.126,16.946,12.546,29.326,8.202c12.766-4.482,14.427-39.933,14.442-40.29
				c0.03-0.705,0.618-1.249,1.331-1.223c0.706,0.03,1.253,0.626,1.223,1.332c-0.066,1.53-1.761,37.542-16.15,42.594
				C742.724,346.676,740.486,346.995,738.237,346.995z"/>
			<path style="fill:#371369;" d="M749.168,249.548c-1.629-7.204-2.164-15.083-9.637-21.095c-11.948-9.619-15.476-3.643-30.96-9.79
				c-14.29-5.673-23.878-26.74-14.194-44.28c0,0-0.318,12.993,5.408,23.833c11.198,19.665,31.804,16.012,42.183,23.367
				C755.305,231.034,749.168,249.548,749.168,249.548z"/>
			<path style="fill:#FDBFA1;" d="M692.737,496.371c0,0-53.569,112.276-57.148,112.54c-35.511,2.608-151.911-2.914-151.911-2.914
				s-50.134,0-57.403,2.565c-22.719,8.002-26.648,10.968-37.258,22.839c-8.437,9.442-11.257,19.916-9.468,20.418
				c3.869,1.074,8.999-10.175,16.95-16.72c7.951-6.545,16.507-12.11,16.976-11.172c0.469,0.937-9.749,8.539-13.388,13.226
				c-5.616,7.269-11.215,18.765-8.07,19.711c3.145,0.946,7.943-8.343,15.229-16.226c7.601-8.215,18.066-11.786,18.066-11.786
				s-5.292,4.755-8.743,12.212c-3,6.459-5.173,13.695-3.29,13.984c4.073,0.639,5.642-9.553,10.84-15.084
				c5.19-5.522,9.936-7.031,9.936-7.031s11.019,2.727,22.958,1.278c11.939-1.449,24.799-7.073,24.799-7.073
				s147.437,35.979,173.343,28.19c23.154-6.962,77.754-116.903,77.754-116.903L692.737,496.371z"/>
			<path style="opacity:0.21;fill:#F77E5D;" d="M659.408,564.844l-2.335,5.931c0,0-4.201,16.353,15.927,28.293
				c14.572,8.65,25.881,1.619,25.881,1.619l6.391-11.13L659.408,564.844z"/>
			<path style="opacity:0.56;fill:#2C1059;" d="M856.089,201.186l-0.976-4.422c0,0-22.13-1.715-30.211,31.515
				c-5.006,20.585-0.92,42.979,0,71.126c0.897,27.442-0.612,51.565-0.612,51.565l27.918-51.565L856.089,201.186z"/>
			<path style="fill:#6A62D3;" d="M734.456,268.706c0-21.275,7.84-38.364,26.111-38.52c16.984-0.145,26.119,17.245,26.119,38.52
				c0,21.271-9.297,38.8-26.119,38.519C741.639,306.901,734.456,289.976,734.456,268.706z"/>
			<path style="fill:#BEA3E8;" d="M737.408,269.673c0-16.47,8.582-29.823,19.174-29.823c10.584,0,19.166,13.353,19.166,29.823
				c0,16.473-8.581,29.826-19.166,29.826C745.989,299.499,737.408,286.146,737.408,269.673z"/>
			<path style="opacity:0.54;fill:#7A6CE0;" d="M742.573,268.804c0-8.955,4.917-16.214,10.993-16.214
				c6.068,0,10.993,7.259,10.993,16.214c0,8.957-4.925,16.209-10.993,16.209C747.49,285.012,742.573,277.76,742.573,268.804z"/>
			<path style="opacity:0.33;fill:#FFFFFF;" d="M758.328,247.937c2.288,0.589,4.326,1.9,6.013,3.487
				c1.675,1.616,3.002,3.536,4.051,5.57c2.086,4.09,3.026,8.66,3.087,13.189c0.04,4.529-0.814,9.113-2.791,13.251
				c-0.999,2.059-2.27,4.005-3.87,5.688c-1.621,1.645-3.589,3.047-5.845,3.742c-0.45,0.139-0.928-0.114-1.067-0.565
				c-0.129-0.419,0.081-0.863,0.475-1.033c1.857-0.808,3.484-2.086,4.794-3.65c1.335-1.544,2.4-3.333,3.217-5.233
				c1.621-3.809,2.379-8.001,2.325-12.174c-0.03-4.172-0.869-8.348-2.581-12.112c-0.861-1.876-1.98-3.632-3.371-5.115
				c-1.368-1.505-3.046-2.698-4.929-3.414c-0.463-0.176-0.685-0.669-0.517-1.109C757.474,248.05,757.912,247.83,758.328,247.937z"/>
			<path style="opacity:0.33;fill:#FFFFFF;" d="M744.419,287.829c-2.214-2.247-3.655-5.15-4.517-8.131
				c-0.854-2.994-1.169-6.131-0.845-9.188c0.055-0.516,0.517-0.889,1.032-0.835c0.445,0.047,0.784,0.397,0.833,0.823
				c0.34,2.897,0.807,5.711,1.622,8.424c0.81,2.715,1.927,5.291,3.348,7.759c0.269,0.468,0.115,1.042-0.335,1.301
				C745.179,288.202,744.711,288.126,744.419,287.829z"/>
			<path style="fill:#473B9B;" d="M718.782,338.833c-0.806,1.751-3.268,2.338-5.5,1.311c-2.232-1.027-3.388-3.279-2.583-5.03
				c0.806-1.751,3.268-2.338,5.5-1.311C718.431,334.83,719.588,337.082,718.782,338.833z"/>
			<path style="fill:#FE9B3C;" d="M658.914,566.258c0,0,48.328-115.088,68.133-135.779c25.745-26.912,119.085-17.998,119.085-17.998
				l8.232,317.797c0,0-75.163,24.236-84.017,3.221c-21.262-50.39-28.131-203.596-28.131-203.596l-39.814,64.477
				c0,0-12.672-0.401-23.657-7.312C667.768,580.166,658.914,566.258,658.914,566.258z"/>
			<path style="opacity:0.49;fill:#E55B48;" d="M742.07,530.603l9.86-19.856c0,0,6.298,11.121,4.832,27.867
				c-1.474,16.737-11.368,40.146-11.368,40.146L742.07,530.603z"/>
			<path style="opacity:0.67;fill:#E55B48;" d="M783.257,412.694l-7.542,0.426c0,0-33.977,16.609-13.498,82.168
				c6.809,21.824,16.37,43.632,17.189,70.51c0.801,26.375-2.599,43.078-17.257,76.134c-11.573,26.119-4.184,38.152-2.966,47.382
				c1.986,14.981,7.763,33.022,7.763,33.022l66.803-1.423l-8.241-291.516L783.257,412.694z"/>
			<path style="opacity:0.35;fill:#190B3D;" d="M776.013,789.523c0,0-20.64,1.308-40.383-7.824
				c-20.612-9.534-44.133-23.278-79.765-17.794c-69.762,10.738-48.484,76.412-48.484,76.412l160.155,5.117L776.013,789.523z"/>
		</g>
	</g>
	<g style="clip-path:url(#SVGID_00000178903904222874975870000011220621360832152741_);">
		
			<linearGradient id="SVGID_00000049929208030477065670000007023705465774444463_" gradientUnits="userSpaceOnUse" x1="831.7713" y1="179.2073" x2="830.5441" y2="430.7726">
			<stop  offset="0.2651" style="stop-color:#461B89"/>
			<stop  offset="1" style="stop-color:#371369"/>
		</linearGradient>
		<path style="fill:url(#SVGID_00000049929208030477065670000007023705465774444463_);" d="M918.473,170.783
			c-99.45,0.518-60.863,97.159-92.692,173.098c-23.307,55.622-46.512,52.853-53.364,94.499
			c-8.616,52.358,28.045,77.634,18.586,141.821c-8.956,60.829-23.64,57.667-27.099,102.067
			c-4.372,56.125,33.874,84.042,12.109,107.256c-21.773,23.214-73.953-23.929-111.875-11.53
			c-37.914,12.399-39.788,61.119-39.788,61.119l256.039,12.11c0,0,76.944,0.827,111.287-76.117
			c28.838-64.579,10.175-173.292,17.351-224.747c6.076-43.649,22.617-63.104,25.327-97.601c3.29-41.919-19.2-61.187-31.556-103.285
			C982.131,279.114,1025.687,170.224,918.473,170.783z"/>
		<path style="fill:#290D54;" d="M896.389,393.792c2.806-0.275,5.219-0.65,6.932-1.124c4.27-1.184,12.612-20.265,5.718-20.555
			c-19.363-0.819-32.753,3.817-39.994,9.561l2.873-0.809c2.855-1.023,24.074-4.491,30.193-1.227
			c6.119,3.264-5.503,13.842-5.503,13.842L896.389,393.792z"/>
		
			<linearGradient id="SVGID_00000082326992575254543610000009280036993204602812_" gradientUnits="userSpaceOnUse" x1="824.5743" y1="740.9951" x2="854.0253" y2="157.486">
			<stop  offset="0.1641" style="stop-color:#371369"/>
			<stop  offset="0.2774" style="stop-color:#3D156B"/>
			<stop  offset="0.436" style="stop-color:#501A71"/>
			<stop  offset="0.6214" style="stop-color:#6E237B"/>
			<stop  offset="0.8253" style="stop-color:#972E89"/>
			<stop  offset="1" style="stop-color:#C03A97"/>
		</linearGradient>
		<path style="fill:url(#SVGID_00000082326992575254543610000009280036993204602812_);" d="M1002.797,349.471
			c-5.675-19.322-6.507-41.55-6.948-63.619c-0.099-4.963-3.695-31.749-3.695-31.749c-4.005-66.76-50.185-65.058-69.342-64.881
			c-53.773,0.497-56.909,38.275-63.028,76.599c-2.932,18.382-5.224,46.453-18.177,87.017
			c-12.732,39.848-45.507,46.955-51.651,89.437c-7.44,51.472,17.913,65.243,20.725,123.013
			c2.003,41.178-24.466,87.034-27.713,117.431c-4.116,38.604,18.118,79.006-0.537,101.044l-6.417,5.761
			c-21.773,23.214-73.953-23.929-111.875-11.53c-37.914,12.399-39.789,61.119-39.789,61.119l256.04,12.11
			c0,0,76.944,0.827,111.287-76.117c28.838-64.579,10.175-173.292,17.351-224.747c6.076-43.649,22.617-63.104,25.327-97.601
			C1037.643,410.837,1015.154,391.569,1002.797,349.471z M903.321,392.668c-9.553,2.642-40.871,2.19-40.615-1.227
			c0.648-8.752,16.311-20.597,46.333-19.327C915.933,372.403,907.591,391.483,903.321,392.668z M944.998,392.379
			c-4.269-1.185-12.612-20.265-5.718-20.555c4.211-0.178,8.139-0.098,11.782,0.195c22.338,1.797,33.994,11.608,34.551,19.133
			C985.868,394.569,954.551,395.021,944.998,392.379z"/>
		<path style="fill:#290D54;" d="M937.238,376.46c0,0,25.738-2.533,36.047,5.727c8.488,6.801,4.651,11.328,4.651,11.328
			c4.621-0.482,7.758-1.271,7.677-2.362c-0.557-7.525-12.213-17.336-34.551-19.133c-3.644-0.293-7.572-0.373-11.782-0.195
			c-2.216,0.093-2.858,2.127-2.567,4.884L937.238,376.46z"/>
		
			<linearGradient id="SVGID_00000052088032779399862810000008719618016330017676_" gradientUnits="userSpaceOnUse" x1="695.3822" y1="878.5444" x2="689.124" y2="747.1223">
			<stop  offset="0" style="stop-color:#331768"/>
			<stop  offset="0.7609" style="stop-color:#220C4C"/>
		</linearGradient>
		<path style="fill:url(#SVGID_00000052088032779399862810000008719618016330017676_);" d="M657.141,693.856
			c0,0,22.523,8.147,27.364,30.917c4.849,22.762-0.247,41.297,0.511,68.916c0.827,30.022,13.805,50.39,13.805,50.39l19.839,1.355
			c0,0-15.459-13.865-13.976-52.307c1.866-48.592,11.24-101.546,11.24-101.546L657.141,693.856z"/>
		<path style="fill:#190B3D;" d="M662.655,696.634l52.29-1.491l-1.883,12.348c0,0-4.227-7.925-19.941-7.295
			c-14.01,0.571-16.089,8.854-16.089,8.854s-2.437-2.991-5.974-6.417C667.641,699.336,662.655,696.634,662.655,696.634z"/>
		<path style="fill:#220C4C;" d="M756.08,695.288c0.903-5.744-20.29-19.387-72.138-22.089c-37.82-1.977-81.162,4.508-79.356,21.637
			c2.207,20.998,37.906,2.829,75.751,1.355C715.056,694.836,755.177,701.04,756.08,695.288z"/>
	</g>
</g>
</svg>
