<?xml version="1.0" encoding="utf-8"?>
<!-- Generator: Adobe Illustrator 27.5.0, SVG Export Plug-In . SVG Version: 6.00 Build 0)  -->
<svg version="1.1" xmlns="http://www.w3.org/2000/svg" xmlns:xlink="http://www.w3.org/1999/xlink" x="0px" y="0px"
	 viewBox="0 0 500 500" style="enable-background:new 0 0 500 500;" xml:space="preserve">
<g id="BACKGROUND">
	<rect id="XMLID_480_" style="fill:#FFFFFF;" width="500" height="500"/>
</g>
<g id="OBJECT">
	<path id="XMLID_493_" style="fill:#DCF2FF;" d="M90,321c0,0-64-103-18-183s131-45,169-13s152-49,204,38s-15,184-33,192
		S136,412,90,321z"/>
	<g id="XMLID_471_">
		<path id="XMLID_472_" style="fill:#D69D00;" d="M450.255,364.341c-2.676,4.067-6.981,8.027-12.448,11.757
			c-4.385,3.003-9.524,5.856-15.176,8.496c-6.184,2.888-12.971,5.537-20.058,7.858c-5.351,1.754-10.871,3.322-16.426,4.66
			c-7.841,1.905-15.743,3.375-23.345,4.315c-4.191,0.514-8.293,0.868-12.235,1.054c-1.967,0.089-3.889,0.133-5.768,0.133
			c-5.254,0-10.685-0.044-16.213-0.168c-8.027-0.168-16.266-0.479-24.514-1.01c-7.274-0.47-14.556-1.099-21.706-1.949
			c-35.837-4.235-68.236-13.821-79.018-34.632c-2.055-3.969-3.083-7.566-3.278-10.835c-0.523-8.877,5.112-15.318,13.068-20.014
			c3.774-2.233,8.062-4.067,12.474-5.59h0.009c5.546-1.905,11.278-3.314,16.372-4.368c5.298-1.09,9.914-1.798,12.944-2.286
			c0,0,133.965-14.034,183.889,15.008C454.109,345.665,456.217,355.278,450.255,364.341z"/>
		<path id="XMLID_427_" style="fill:#D38700;" d="M203.346,364.852l26.048-1.06l-8.638,18.605
			C220.757,382.397,207.199,372.557,203.346,364.852z"/>
		<path id="XMLID_443_" style="fill:#D38700;" d="M221.643,348.73l-1.993,2.436l-19.58,2.853
			c-0.523-8.877,5.112-15.318,13.068-20.014L221.643,348.73z"/>
		<path id="XMLID_433_" style="fill:#D38700;" d="M241.993,324.048l-4.182,12.722l-12.191-8.355
			C231.167,326.511,236.899,325.102,241.993,324.048z"/>
		<path id="XMLID_444_" style="fill:#D38700;" d="M304.072,401.436c-7.274-0.47-14.556-1.099-21.706-1.949l9.046-17.755h5.537
			L304.072,401.436z"/>
		<path id="XMLID_445_" style="fill:#D38700;" d="M350.567,402.482c-1.967,0.089-3.889,0.133-5.768,0.133
			c-5.254,0-10.685-0.044-16.213-0.168l8.23-20.049L350.567,402.482z"/>
		<path id="XMLID_446_" style="fill:#D38700;" d="M386.147,397.113c-7.841,1.905-15.743,3.375-23.345,4.315l4.58-22.353
			L386.147,397.113z"/>
		<path id="XMLID_447_" style="fill:#D38700;" d="M422.631,384.594c-6.184,2.888-12.971,5.537-20.058,7.858l-3.517-20.023
			L422.631,384.594z"/>
		<path id="XMLID_449_" style="fill:#D38700;" d="M450.255,364.341c-2.676,4.067-6.981,8.027-12.448,11.757l-16.16-10.977
			L450.255,364.341z"/>
		<path id="XMLID_421_" style="fill:#D17200;" d="M260.846,330.79c0,0-38.539,2.658-41.197,20.377
			c-2.658,17.719,68.662,38.096,124.034,33.666c55.372-4.43,84.609-18.162,88.153-28.794
			C435.38,345.408,342.354,316.615,260.846,330.79z"/>
	</g>
	<g id="XMLID_467_">
		<path id="XMLID_424_" style="fill:#F9B1A2;" d="M381.173,347.645c0,0,0.613,4.896-3.265,4.877c0,0-0.76,6.18-5.807,8.006
			l-1.505-1.38l2.188-2.476l-2.933,1.564l1.524-2.498l-2.512,2.243l-2.324-3.402l3.837-2.088l-4.114,0.417l-0.624-1.24l3.461-0.771
			l-4.505-1.147l1.217-3.284c0,0,5.228-0.601,9.209,2.966C375.019,349.434,377.085,343.963,381.173,347.645z"/>
		<path id="XMLID_425_" style="fill:#F9B1A2;" d="M396.862,277.034c0,0-4.909,0.498-4.8-3.378c0,0-6.16-0.904-7.869-5.992
			l1.415-1.473l2.424,2.245l-1.496-2.969l2.462,1.582l-2.184-2.564l3.455-2.245l1.998,3.885l-0.321-4.122l1.254-0.594l0.69,3.478
			l1.252-4.477l3.254,1.294c0,0,0.479,5.24-3.18,9.137C395.216,270.84,400.638,273.033,396.862,277.034z"/>
		<path id="XMLID_414_" style="fill:#F99178;" d="M394.33,275.565c-8.579,8.286-15.652,25.693-17.719,44.298
			c-2.067,18.605-6.202,34.552,19.491,40.754c25.693,6.202,36.324-0.295,40.459-5.02c4.134-4.725,24.511-60.245,18.605-69.105
			C449.26,277.633,402.129,268.033,394.33,275.565z"/>
		<path id="XMLID_413_" style="fill:#DB7561;" d="M451.529,289.878c0,0-6.418,5.261-12.566,26.32
			c-6.148,21.059-9.272,38.584-7.148,39.866c2.123,1.282,13.424-28.473,17.536-41.252
			C453.463,302.033,457.932,289.06,451.529,289.878z"/>
		<path id="XMLID_416_" style="fill:#DB7561;" d="M410.13,308.346c0,0,20.377-18.605,31.452-19.786
			C441.581,288.559,416.036,289.445,410.13,308.346z"/>
		<path id="XMLID_417_" style="fill:#DB7561;" d="M399.498,304.802c0,0-5.168-17.128-1.772-26.283
			C397.727,278.518,387.095,291.217,399.498,304.802z"/>
		<path id="XMLID_418_" style="fill:#DB7561;" d="M407.472,316.024c0,0,5.611,32.928,15.504,38.539
			C422.976,354.563,413.526,319.715,407.472,316.024z"/>
		<path id="XMLID_419_" style="fill:#DB7561;" d="M396.841,313.071c0,0-15.8,19.196-13.289,30.123L396.841,313.071z"/>
		<path id="XMLID_415_" style="fill:#F9B1A2;" d="M446.454,286.344c0,0-11.813,14.914-15.652,35.438
			c-3.839,20.525-1.624,31.156-1.624,31.156s-3.987-7.974-2.215-24.069C428.735,312.775,434.937,296.238,446.454,286.344z"/>
		<path id="XMLID_420_" style="fill:#F9B1A2;" d="M406.808,310.191c0,2.324-1.487,4.208-3.322,4.208
			c-1.835,0-3.322-1.884-3.322-4.208c0-2.324,1.488-4.208,3.322-4.208C405.32,305.983,406.808,307.867,406.808,310.191z"/>
		<path id="XMLID_422_" style="fill:#F9B1A2;" d="M451.659,285.828c0,0-0.775-4.873,3.101-4.984c0,0,0.554-6.202,5.537-8.195
			l1.551,1.329l-2.104,2.547l2.879-1.661l-1.44,2.547l2.436-2.326l2.436,3.322l-3.765,2.215l4.098-0.554l0.664,1.218l-3.433,0.886
			l4.54,0.997l-1.107,3.322c0,0-5.205,0.775-9.303-2.658C457.75,283.834,455.867,289.371,451.659,285.828z"/>
		<path id="XMLID_423_" style="fill:#F9B1A2;" d="M430.985,356.674c0,0,4.778-1.231,5.253,2.618c0,0,6.226-0.033,8.68,4.741
			l-1.177,1.669l-2.734-1.855l1.925,2.71l-2.671-1.193l2.545,2.207l-3.078,2.738l-2.56-3.54l0.937,4.027l-1.15,0.776l-1.205-3.334
			l-0.565,4.614l-3.412-0.79c0,0-1.262-5.109,1.77-9.511C433.543,362.55,427.853,361.198,430.985,356.674z"/>
	</g>
	<g id="XMLID_492_">
		<g id="XMLID_473_">
			<path id="XMLID_410_" style="fill:#843900;" d="M349.885,112.734c0,1.896-1.537,3.433-3.433,3.433
				c-1.896,0-3.433-1.537-3.433-3.433c0-1.896,1.537-3.433,3.433-3.433C348.348,109.301,349.885,110.838,349.885,112.734z"/>
			<path id="XMLID_476_" style="fill:#001546;" d="M319.346,393.56c-0.301,0.221-0.603,0.496-0.904,0.806
				c-2.773,2.879-5.484,9.232-9.356,11.597c-4.297,2.631-9.551,2.986-11.695-1.426c-2.153-4.421,8.23-15.159,7.876-16.824
				c-0.124-0.576-0.833-1.586-1.701-2.649c-0.416-0.505-0.868-1.028-1.32-1.533c-1.329-1.488-2.587-2.746-2.587-2.746l12.164-7.991
				c0,0,0.549,0.416,1.418,1.107c0.319,0.257,0.691,0.549,1.099,0.877c1.577,1.276,3.641,3.012,5.431,4.704
				c1.816,1.728,3.34,3.411,3.748,4.527C324.715,387.234,322.447,391.292,319.346,393.56z"/>
			<polygon id="XMLID_461_" style="fill:#97AECE;" points="302.685,381.902 301.601,381.636 301.52,380.523 302.552,380.101 
				303.273,380.953 			"/>
			<polygon id="XMLID_451_" style="fill:#97AECE;" points="305.196,376.791 306.084,376.115 307.001,376.75 306.68,377.819 
				305.564,377.844 			"/>
			<polygon id="XMLID_450_" style="fill:#97AECE;" points="309.381,373.717 310.269,373.041 311.186,373.677 310.865,374.745 
				309.75,374.77 			"/>
			<path id="XMLID_411_" style="fill:#032E4C;" d="M316.84,325.895c0,0-36.157-18.616-56.563-5.37
				c-20.406,13.246,16.826,53.341,37.231,62.648l14.32-10.382l-11.456-17.9c0,0,21.479,9.666,40.811,9.308
				C360.515,363.842,316.84,325.895,316.84,325.895z"/>
			<path id="XMLID_469_" style="fill:#97AECE;" d="M314.34,374.778c-1.285,2.286-4.598,3.127-6.547,4.394
				c-2.507,1.621-1.781,3.189-3.393,5.156c-0.257,0.31-0.531,0.549-0.833,0.735c-0.416-0.505-0.868-1.028-1.32-1.533l10.995-9.63
				C313.561,374.158,313.933,374.45,314.34,374.778z"/>
			<path id="XMLID_464_" style="fill:#001546;" d="M288.736,370.109c0,0-1.364,3.677-2.631,7.584
				c-0.133,0.408-0.266,0.815-0.399,1.223c-0.443,1.426-0.859,2.826-1.178,4.049c-0.089,0.363-0.177,0.709-0.248,1.036
				c-0.08,0.346-0.142,0.673-0.195,0.966c-0.425,2.41-0.868,5.351-1.417,8.044c-0.824,4.084-1.914,7.61-3.624,7.903
				c-2.693,0.461-5.776-0.319-8.505-1.639c-0.133-0.062-0.266-0.124-0.399-0.195c-2.826-1.435-14.149-2.25-19.137-4.678
				c-4.988-2.428-9.949-7.017-6.822-11.801c3.119-4.775,22.237,0.044,23.256-1.4c0.16-0.221,0.354-0.797,0.567-1.613
				c0.115-0.452,0.239-0.983,0.363-1.559c0.23-1.054,0.47-2.286,0.709-3.57c0.115-0.62,0.23-1.249,0.337-1.887
				c0.771-4.359,1.426-8.727,1.426-8.727L288.736,370.109z"/>
			<path id="XMLID_403_" style="fill:#CE5438;" d="M265.468,275.329c0,0,1.164-2.148,4.385-2.148c3.222,0,3.312,1.79,4.117,4.027
				c0.805,2.237-1.521,1.969-1.521,1.969L265.468,275.329z"/>
			<path id="XMLID_405_" style="fill:#CE5438;" d="M308.248,275.239l-2.327,14.499l-39.379-5.549l-4.475,10.382
				c0,0,41.169,15.394,49.761,14.499c8.592-0.895,9.129-14.678,9.129-14.678l0.179-17.363
				C321.136,277.029,309.859,273.271,308.248,275.239z"/>
			<path id="XMLID_400_" style="fill:#BACADD;" d="M315.587,238.008c0,0-6.623,1.816-9.487,11.388
				c-2.864,9.573-4.833,18.485-1.074,22.281c3.759,3.796,10.382,4.456,10.382,4.456L315.587,238.008z"/>
			<path id="XMLID_404_" style="fill:#001546;" d="M306.816,272.465l0.358,3.58l20.495,1.074l0.046-3.452
				C327.716,273.667,313.707,270.675,306.816,272.465z"/>
			<path id="XMLID_402_" style="fill:#3C3734;" d="M254.882,278.192c0,0-0.797-4.117,4.913-5.312
				c5.71-1.195,11.022,3.984,11.022,3.984l5.843,0.93c0,0,2.523-3.586,9.163-1.859c6.64,1.726,13.545,7.569,13.545,7.569
				s3.718,9.03,2.656,13.279c-1.062,4.249-11.819,1.594-14.74,0.266c-2.921-1.328-3.851-5.179-8.499-5.976
				c-4.648-0.797-10.225-1.992-10.225-1.992s3.187,4.648,0.398,6.507C266.169,297.447,252.226,291.073,254.882,278.192z"/>
			<path id="XMLID_396_" style="fill:#97AECE;" d="M344.405,219.035c0,0,11.226-4.213,20.943-1.79
				c21.778,5.43,26.73,71.061,23.687,100.417l-68.913,11.098c0,0-10.262-76.431-5.787-88.782
				C318.809,227.627,344.405,219.035,344.405,219.035z"/>
			<path id="XMLID_395_" style="fill:#CE5438;" d="M321.136,221.183c0,0,5.728,10.919,6.086,12.351c0,0,10.919-1.611,15.036-7.16
				c4.117-5.549-2.864-16.468-2.864-16.468L321.136,221.183z"/>
			<path id="XMLID_393_" style="fill:#843900;" d="M360.515,157.997c0,0,15.215,6.981,25.238,3.58
				c10.024-3.401,3.222-11.277-8.413-10.919s-16.11-4.296-16.11-4.296L360.515,157.997z"/>
			<path id="XMLID_195_" style="fill:#F99178;" d="M297.986,125.778c0,0,2.506-12.291,15.632-17.899
				c13.126-5.609,30.191,0.358,34.009,5.608c0,0,11.814,5.131,14.558,18.735s-0.239,23.747-0.239,23.747L297.986,125.778z"/>
			<path id="XMLID_184_" style="fill:#FF724B;" d="M283.308,159.906l0.239,32.219c0,0-6.205,12.172,0.716,21.718
				c6.921,9.546,35.322,11.456,49.403,5.728c14.081-5.728,14.797-22.911,14.797-22.911s7.876-1.432,11.456-7.398
				c3.58-5.966,4.057-20.048-0.955-22.434c-5.012-2.387-10.74,4.057-10.74,4.057s-0.955-23.866-7.16-29.594
				C334.859,135.563,286.888,125.539,283.308,159.906z"/>
			<path id="XMLID_183_" style="fill:#001546;" d="M346.911,176.076l-2.148,7.876c0,0-4.654-0.537-5.728-5.907
				c-1.074-5.37,1.611-12.53,1.611-12.53s-8.592-5.191-8.413-12.53c0,0-7.876,10.382-18.795,8.592
				c-10.919-1.79-5.907-9.487-5.907-9.487s-3.222,9.487-11.814,10.382c-8.592,0.895-12.172-4.833-12.172-4.833l-0.179,13.425
				c0,0-13.425-5.191-9.666-19.511c0,0-6.623-9.129,3.759-18.257c10.382-9.129,25.059-11.277,45.286-4.117
				c20.227,7.16,28.46,16.826,28.46,16.826s12.888,6.623,14.141,16.11c1.253,9.487-3.043,15.036-3.043,15.036
				S356.756,159.25,346.911,176.076z"/>
			<path id="XMLID_185_" style="fill:#001546;" d="M286.751,171.749L286.751,171.749c0.386,0.92,1.373,1.273,2.138,0.752
				c0.99-0.675,2.479-1.39,4.301-1.339c1.389,0.039,2.349,0.523,3,1.082c0.765,0.658,1.853,0.404,2.293-0.571l0.751-1.665
				c0.326-0.722,0.181-1.607-0.358-2.135c-1.224-1.202-2.948-2.624-6.848-1.67c-3.038,0.743-4.42,2.713-5.109,3.709
				C286.558,170.434,286.499,171.149,286.751,171.749z"/>
			<path id="XMLID_187_" style="fill:#001546;" d="M328.661,172.018L328.661,172.018c-0.553,1.112-1.967,1.54-3.062,0.91
				c-1.418-0.816-3.551-1.68-6.162-1.618c-1.99,0.047-3.366,0.632-4.297,1.308c-1.096,0.796-2.655,0.489-3.286-0.69l-1.076-2.013
				c-0.467-0.873-0.259-1.942,0.512-2.581c1.754-1.453,4.223-3.172,9.811-2.02c4.352,0.898,6.332,3.28,7.319,4.484
				C328.937,170.429,329.022,171.294,328.661,172.018z"/>
			<path id="XMLID_192_" style="fill:#FF2E3F;" d="M313.349,204.447c0,0-1.163-7.518,2.417-8.95c3.58-1.432,6.563,4.982,6.563,4.982
				S319.614,205.163,313.349,204.447z"/>
			<path id="XMLID_463_" style="fill:#97AECE;" d="M319.346,393.56c-0.301,0.221-0.603,0.496-0.904,0.806l-0.009-0.009
				c-3.818-4.199,0.319-12.9,1.338-14.875c1.816,1.728,3.34,3.411,3.748,4.527C324.715,387.234,322.447,391.292,319.346,393.56z"/>
			<path id="XMLID_189_" style="fill:#A53B29;" d="M299.656,190.216l0.448,2.417c0,0-3.669,0.179-3.848,3.848
				c-0.179,3.669,5.549,5.817,8.681,4.385c3.132-1.432-1.7-4.206-4.743-3.848c-3.043,0.358-1.074-2.506,0.626-2.953
				c1.701-0.447,0.984-3.49,0-4.654C299.835,188.247,299.656,190.216,299.656,190.216z"/>
			<path id="XMLID_190_" style="fill:#A53B29;" d="M297.031,204.297c0,0,3.341,1.671,11.336,1.193
				c7.995-0.477,13.962-5.012,13.962-5.012s-0.955-1.909,0.597-2.029c1.551-0.119,3.341,2.148,2.745,4.654
				c-0.597,2.506-2.506-0.358-2.506-0.358s-6.923,5.669-17.184,5.967C297.747,208.951,297.031,204.297,297.031,204.297z"/>
			<path id="XMLID_186_" style="fill:#001546;" d="M296.834,181.8c0.407,2.713-0.23,6.596-1.428,6.775
				c-1.198,0.18-2.502-3.412-2.909-6.125c-0.407-2.713,0.234-5.058,1.432-5.237C295.127,177.033,296.428,179.087,296.834,181.8z"/>
			<path id="XMLID_392_" style="fill:#001546;" d="M305.384,125.062c0,0,1.432-8.055,7.876-9.487
				c6.444-1.432,11.187,5.996,8.681,13.246C319.435,136.07,305.384,125.062,305.384,125.062z"/>
			<path id="XMLID_191_" style="fill:#001546;" d="M319.405,182.161c0.306,2.726-0.474,6.583-1.677,6.718
				c-1.204,0.135-2.375-3.502-2.681-6.228c-0.306-2.726,0.421-5.046,1.624-5.181C317.874,177.334,319.098,179.435,319.405,182.161z"
				/>
			<path id="XMLID_188_" style="fill:#A53B29;" d="M359.799,178.671c0,0-0.806-5.907-4.385-6.533
				c-3.58-0.626-7.339,5.101-5.101,8.234c2.237,3.132-0.716,6.265-1.701,7.249s0,5.37,3.043,4.475
				c3.043-0.895,1.163-4.833,0.805-5.012s1.611-1.79,0.984-3.669s-1.969-3.938-0.895-4.206c1.074-0.269,1.163,1.879,2.506,1.969
				c1.343,0.09,0.179-3.58-0.984-5.012c-1.163-1.432,0.984-1.969,1.79-1.253c0.805,0.716,1.969,6.086,2.953,6.354
				C359.799,181.535,360.604,180.551,359.799,178.671z"/>
			<path id="XMLID_193_" style="fill:#F99178;" d="M324.805,191.022c0,0,8.055-2.774,12.709-1.879
				C342.168,190.037,322.389,195.407,324.805,191.022z"/>
			<path id="XMLID_194_" style="fill:#F99178;" d="M286.679,191.559c0,0,6.265-0.179,7.428,1.79
				C295.271,195.318,283.368,192.454,286.679,191.559z"/>
			<path id="XMLID_391_" style="fill:#843900;" d="M303.236,124.883c0,0,15.99,3.043,20.525,4.713l1.193-5.131
				c0,0-10.978-4.356-20.883-2.924L303.236,124.883z"/>
			<path id="XMLID_394_" style="fill:#001546;" d="M325.372,229.357c0,0-1.014,6.086,2.327,9.188
				c3.341,3.103,15.036-5.012,17.422-11.217s-0.119-9.427-2.387-10.024c0,0-6.138,15.535-12.768,15.394
				C327.162,232.638,325.372,229.357,325.372,229.357z"/>
			<path id="XMLID_399_" style="fill:#FF724B;" d="M375.372,260.383c0,0,4.475,30.787-5.37,40.99
				c-9.845,10.203-63.007,0.358-63.007,0.358l0.537-15.931l49.582,0.358l2.148-27.386
				C359.262,258.772,371.255,258.235,375.372,260.383z"/>
			<path id="XMLID_397_" style="fill:#BACADD;" d="M355.845,220.907c-2.718,5.494-6.592,12.295-4.968,24.009
				c1.624,11.714,6.195,12.549,6.195,12.549l20.404,0.987c0,0,3.01-2.436,3.664-8.968c0.654-6.532-3.881-24.448-10.502-29.947
				C364.017,214.039,357.125,218.32,355.845,220.907z"/>
			<path id="XMLID_398_" style="fill:#001546;" d="M356.577,257.25l0.358,3.58l20.495,1.074l0.046-3.452
				C377.476,258.452,363.468,255.46,356.577,257.25z"/>
			<path id="XMLID_401_" style="fill:#FF724B;" d="M309.561,287.113c0,0-5.609-8.114-7.876-9.188
				c-2.267-1.074-5.012-0.358-5.012-0.358s-3.699-4.057-7.04-2.745c-3.341,1.313,3.341,8.83,7.757,8.473l-1.193,3.58
				c0,0-16.11-0.716-16.348,3.938c-0.239,4.654,5.131,4.534,5.131,4.534s-2.506,3.819,0,5.489c2.506,1.671,6.086,0.597,6.086,0.597
				s-0.358,2.864,2.387,3.938c2.745,1.074,4.296-0.239,4.296-0.239s0,1.432,2.148,1.79s7.757-5.728,7.757-5.728
				S312.067,290.335,309.561,287.113z"/>
			<path id="XMLID_406_" style="fill:#CE5438;" d="M253.086,280.583c0,0-2.712-2.615-0.969-4.456c1.743-1.84,6.49-2.906,8.911-1.84
				c2.422,1.065,5.424,2.131,5.812,5.037c0.387,2.906-6.393,1.356-6.393,1.356l-1.421,0.161c0,0,7.91,2.066,8.395,4.972
				c0.484,2.906-4.843,2.228-6.877,1.453l2.034,2.034c0,0,3.778-1.259,4.843,0.678c1.066,1.937-2.421,3.487-3.777,3.487
				c0,0,2.615,0,2.809,1.937c0.194,1.937-4.843,3.778-7.265,3.003c-2.422-0.775-5.327-3.293-6.199-4.553
				c-0.872-1.259-0.387-3.487-0.387-3.487s-1.743-1.743-1.743-2.906s0.775-2.422,0.775-2.422S249.987,282.133,253.086,280.583z"/>
			<path id="XMLID_407_" style="fill:#003A74;" d="M320.062,326.253l69.689-12.172c0,0,3.819,24.821-1.432,40.334
				c-5.25,15.513-51.789,3.699-51.789,3.699L320.062,326.253z"/>
			<path id="XMLID_409_" style="fill:#003A74;" d="M368.749,342.005c0,0-41.527-40.453-69.092-41.169
				c-27.565-0.716-35.441,67.303-35.441,67.303l22.911,6.086l18.616-31.503c0,0,20.763,24.701,47.613,25.775
				c26.849,1.074,34.009-12.888,34.009-12.888L368.749,342.005z"/>
			<path id="XMLID_448_" style="fill:#97AECE;" d="M282.667,393.011c-0.824,4.084-1.914,7.61-3.624,7.903
				c-2.693,0.461-5.776-0.319-8.505-1.639c1.028-1.683,4.235-5.909,10.534-6.317C281.648,392.922,282.18,392.94,282.667,393.011z"/>
			<path id="XMLID_431_" style="fill:#97AECE;" d="M284.528,382.964c-0.089,0.363-0.177,0.709-0.248,1.036
				c-2.924,0.7-5.67-2.064-7.982-3.154c-2.693-1.276-3.65,0.168-6.166-0.168c-0.913-0.124-1.604-0.558-2.126-1.09
				c0.115-0.452,0.239-0.983,0.363-1.559L284.528,382.964z"/>
			<path id="XMLID_432_" style="fill:#97AECE;" d="M286.105,377.692c-0.133,0.408-0.266,0.815-0.399,1.223
				c-3.03,0.257-5.803-2.366-8.177-3.455c-2.924-1.355-4.013,0.062-6.769-0.346c-0.665-0.097-1.223-0.337-1.683-0.656
				c0.115-0.62,0.23-1.249,0.337-1.887L286.105,377.692z"/>
			<polygon id="XMLID_408_" style="fill:#97AECE;" points="271.289,377.944 270.944,376.883 271.847,376.227 272.749,376.883 
				272.405,377.944 			"/>
			<polygon id="XMLID_426_" style="fill:#97AECE;" points="276.956,377.385 277.998,377.784 277.941,378.898 276.864,379.188 
				276.255,378.253 			"/>
			<polygon id="XMLID_428_" style="fill:#97AECE;" points="281.773,379.323 282.815,379.722 282.758,380.836 281.681,381.126 
				281.072,380.191 			"/>
			<path id="XMLID_412_" style="fill:#D66D58;" d="M347.53,114.83c0,0,3.036,11.538-0.911,23.531
				C346.619,138.361,357.549,126.672,347.53,114.83z"/>
			<path id="XMLID_429_" style="fill:#D66D58;" d="M317.99,113.73c0,0,7.088-6.645,13.437-6.645
				C331.427,107.086,320.427,104.428,317.99,113.73z"/>
			<path id="XMLID_462_" style="fill:#001546;" d="M316.514,257.31l8.621-1.679c0,0,3.056,15.108-1.528,18.078
				C319.024,276.679,317.059,264.025,316.514,257.31z"/>
			<path id="XMLID_430_" style="fill:#02335B;" d="M304.923,339.428l-2.215-23.478C302.708,315.95,313.782,326.139,304.923,339.428z
				"/>
			<path id="XMLID_466_" style="fill:#02335B;" d="M306.012,337.797l4.062-18.333C310.074,319.464,315.975,329.892,306.012,337.797z
				"/>
			<path id="XMLID_465_" style="fill:#CE5438;" d="M357.268,287.673l7.974,7.826C365.241,295.499,363.027,285.015,357.268,287.673z"
				/>
			<path id="XMLID_468_" style="fill:#FFA894;" d="M296.673,277.566c0,0-0.979,0.878-2.308,0.73
				c-1.329-0.148-3.249-3.765-3.249-3.765S294.699,274.695,296.673,277.566z"/>
			<path id="XMLID_470_" style="fill:#02335B;" d="M349.147,325.474l24.216,15.652C373.363,341.126,367.161,322.226,349.147,325.474
				z"/>
		</g>
		<g id="XMLID_495_">
			<path id="XMLID_496_" style="fill:#23201C;" d="M219.72,371.573c-17.604,0.002-34.428-17.318-35.225-18.15l2.675-2.566
				c0.206,0.215,20.772,21.366,38.453,16.185c10.971-3.211,12.798-19.667,14.732-37.091c1.122-10.112,2.283-20.568,5.363-28.955
				c2.814-7.66,7.206-12.872,13.054-15.491c8.666-3.881,17.269-0.564,17.632-0.421l-1.358,3.449
				c-0.075-0.028-7.576-2.883-14.794,0.372c-4.884,2.202-8.603,6.699-11.053,13.369c-2.926,7.965-4.061,18.194-5.159,28.086
				c-2.074,18.685-4.033,36.335-17.374,40.24C224.36,371.274,222.032,371.573,219.72,371.573z"/>
		</g>
	</g>
	<g id="XMLID_478_">
		<polygon id="XMLID_488_" style="fill:#F9B1A2;" points="177.956,364.96 235.411,342.719 82.506,310.593 38.333,325.42 		"/>
		<polygon id="XMLID_489_" style="fill:#DB7561;" points="235.411,342.719 227.997,421.179 193.401,437.86 177.956,364.96 		"/>
		<polygon id="XMLID_491_" style="fill:#BC6155;" points="38.333,325.42 44.511,389.054 193.401,437.86 177.956,364.96 		"/>
	</g>
	<g id="XMLID_487_">
		<path id="XMLID_498_" style="fill:#3C3734;" d="M162.906,328.185c-4.828,2.094-17.987,6.885-35.808,6.163
			c-18.951-0.769-31.656-7.117-35.344-9.193c7.154-3.985,23.065-10.926,42.906-7.766
			C147.551,319.437,157.448,324.673,162.906,328.185z"/>
		<polygon id="XMLID_486_" style="fill:#504D48;" points="139.498,299.55 138.339,321.559 134.864,321.559 133.938,301.172 		"/>
		<polygon id="XMLID_474_" style="fill:#3C3734;" points="43.585,172.824 56.558,292.368 206.683,310.902 207.61,176.531 		"/>
		<polygon id="XMLID_477_" style="fill:#504D48;" points="206.683,310.902 213.788,306.887 214.406,177.149 207.61,176.531 		"/>
		<polygon id="XMLID_475_" style="fill:#23201C;" points="86.676,277.078 152.935,284.955 148.765,238.156 79.726,231.206 
			86.213,229.353 155.252,233.986 160.812,289.588 86.676,281.248 		"/>
		<path id="XMLID_479_" style="fill:#898683;" d="M200.936,187.652c0.88,3.208-0.673,6.431-3.47,7.198
			c-2.797,0.768-5.778-1.211-6.658-4.419c-0.88-3.208,0.673-6.431,3.47-7.198C197.075,182.465,200.056,184.444,200.936,187.652z"/>
		<path id="XMLID_482_" style="fill:#898683;" d="M54.543,180.11c0.88,3.208-0.022,6.252-2.015,6.799
			c-1.993,0.547-4.323-1.61-5.203-4.818c-0.88-3.208,0.022-6.252,2.015-6.799C51.333,174.745,53.662,176.902,54.543,180.11z"/>
		<polygon id="XMLID_481_" style="fill:#23201C;" points="140.424,278.931 138.803,260.165 141.583,260.629 142.509,279.858 		"/>
		<polygon id="XMLID_483_" style="fill:#23201C;" points="134.864,278.468 137.644,278.699 136.254,260.397 133.938,260.397 		"/>
		<polygon id="XMLID_484_" style="fill:#23201C;" points="129.536,277.773 132.084,278.236 131.621,260.861 129.072,260.861 		"/>
		<polygon id="XMLID_485_" style="fill:#23201C;" points="112.623,298.392 116.33,318.779 134.864,321.559 133.938,301.172 		"/>
		<path id="XMLID_490_" style="fill:#23201C;" d="M91.754,325.155l-0.656,3.924c0,0,16.967,11.005,41.27,9.171
			s31.64-6.649,31.64-6.649l-1.102-3.415C162.906,328.185,129.324,338.427,91.754,325.155z"/>
	</g>
	<g id="XMLID_497_">
		<polygon id="XMLID_516_" style="fill:#23201C;" points="216.17,335.91 216.17,338.92 178.55,349.27 162.19,343.62 162,340.8 
			198.68,330.83 		"/>
		<polygon id="XMLID_513_" style="fill:#3C3734;" points="216.17,335.91 178,346 162,340.8 198.68,330.83 		"/>
		<polygon id="XMLID_494_" style="fill:#B3D4FF;" points="166.438,340.563 169.625,341.813 170.875,341.438 174.063,342.625 
			173.313,343.25 178,344.75 212.562,336.063 198.437,331.875 		"/>
	</g>
</g>
</svg>
