<?xml version="1.0" encoding="utf-8"?>
<!-- Generator: Adobe Illustrator 27.5.0, SVG Export Plug-In . SVG Version: 6.00 Build 0)  -->
<svg version="1.1" xmlns="http://www.w3.org/2000/svg" xmlns:xlink="http://www.w3.org/1999/xlink" x="0px" y="0px"
	 viewBox="0 0 750 500" style="enable-background:new 0 0 750 500;" xml:space="preserve">
<g id="OBJECTS_1_">
	<g>
		<defs>
			<path id="SVGID_1_" d="M300.022,417.962c-110.999-25.8-208.374-145.207-166.626-262.563
				c14.604-41.052,55.856-70.078,99.265-73.846c30.805-2.674,67.129,7.07,92.513,24.654c39.427,27.313,75.145,52.588,125.936,48.112
				c22.38-1.972,44.501-7.598,66.964-7.032c110.083,2.775,127.37,158.515,67.849,225.794
				C519.921,447.687,387.623,438.323,300.022,417.962z"/>
		</defs>
		<clipPath id="SVGID_00000100371914607658930600000008701139481880121519_">
			<use xlink:href="#SVGID_1_"  style="overflow:visible;"/>
		</clipPath>
		
			<rect x="107.603" y="82.806" style="clip-path:url(#SVGID_00000100371914607658930600000008701139481880121519_);fill:#E5CDED;" width="647.194" height="389.369"/>
		<path style="clip-path:url(#SVGID_00000100371914607658930600000008701139481880121519_);fill:#D5BADE;" d="M123.526,226.846
			l485.928-52.907l92.28,258.508c0,0-390.039,141.374-392.5,136.452c-2.461-4.922-209.169-146.418-209.169-146.418L123.526,226.846z
			"/>
		<path style="clip-path:url(#SVGID_00000100371914607658930600000008701139481880121519_);fill:#81B5AC;" d="M532.576,328.197
			c-36.761-31.145-63.764-73.644-76.344-120.154c-1.518-5.612-2.825-11.606-1.125-17.165c1.701-5.559,7.487-10.284,13.099-8.768
			c4.232,1.142,6.896,5.205,9.162,8.957c21.059,34.862,42.118,69.725,63.177,104.587c-6.728-34.954-13.479-70.129-13.958-105.722
			c-0.227-16.881,1.003-33.842,4.276-50.419c2.195-11.114,1.789-27.045,8.4-36.647c14.51-21.075,19.274,14.282,21.714,25.194
			c9.752,43.624,13.308,88.634,10.451,133.245c5.788-38.104,13.11-79.239,41.246-105.579c4.491,29.214,3.005,59.333-4.34,87.964
			c2.092-21.002,15.556-40.522,34.445-49.938c1.739,36.211-3.936,72.763-16.573,106.742"/>
		<g style="clip-path:url(#SVGID_00000100371914607658930600000008701139481880121519_);">
			<path style="fill:#7D5C8A;" d="M335.691,331.989c-2.75-8.42-4.927-16.921-5.667-25.483c-1.845-21.35-4.283-42.649-7.313-63.863
				c-1.514-10.605-3.519-21.911-10.952-29.625c-3.954-4.103-9.106-4.294-13.334-7.388c-4.626-3.386-7.103-10.366-8.527-15.652
				c-1.869-6.937-2.524-14.167-4.571-21.054c-5.028-16.917-18.703-21.293-34.953-22.626c-10.056-0.825-20.424-0.598-29.885,2.909
				c-9.154,3.394-18.358,10.596-20.586,20.424c-2.36,10.408-1.501,20.075-8.374,29.177c-6.537,8.657-18.468,13.493-19.977,24.66
				c-1.841,13.626-2.519,27.525-2.82,41.261c-0.415,18.924,0.37,37.874,2.353,56.698c1.818,17.257,1.328,36.141,6.519,52.778
				c3.36,10.77,9.96,20.995,19.917,26.298c8.242,4.39,17.905,5.037,27.237,5.374c33.655,1.217,67.412-0.417,100.792-4.878
				c8.633-1.154,18.331-3.184,22.9-10.598c4.646-7.539,1.934-17.262-0.901-25.651C343.916,353.997,339.308,343.063,335.691,331.989z
				"/>
		</g>
		<path style="clip-path:url(#SVGID_00000100371914607658930600000008701139481880121519_);fill:#A58CBD;" d="M231.538,213.367
			c-10.018-3.629-18.617-13.319-17.549-23.92c0.585-5.813,3.979-11.106,8.477-14.834c4.498-3.727,10.03-6.02,15.668-7.548
			c11.315-3.066,23.868-3.104,34.295,2.254c11.734,6.031,23.642,24.371,12.94,36.286
			C273.448,218.877,246.778,218.886,231.538,213.367z"/>
		<path style="clip-path:url(#SVGID_00000100371914607658930600000008701139481880121519_);fill:#A58CBD;" d="M181.883,229.037
			c1.566-9.307,5.054-20.254,14.195-22.601c6.198-1.592,12.837,1.795,16.846,6.782c4.01,4.987,5.903,11.311,7.516,17.503
			c9.601,36.844,12.456,75.434,8.382,113.289c-0.834,7.745-2.109,15.843-6.848,22.026c-6.611,8.625-19.126,11.522-28.772,6.38
			c-7.392-3.94-7.42-10.149-8.732-17.68c-4.647-26.66-7.901-52.941-7.081-80.083C177.849,259.37,179.346,244.117,181.883,229.037z"
			/>
		<path style="clip-path:url(#SVGID_00000100371914607658930600000008701139481880121519_);fill:#5F96E6;" d="M308.516,245.158
			c-0.295,3.111-0.357,6.263-0.883,8.86c-1.6,7.9-2.252,15.831-1.561,23.88c1.335,15.553,7.183,30.779,17.066,42.91
			c8.708,10.689,20.033,18.78,31.738,25.877c7.425,4.502,23.334,16.927,32.285,13.502c5.199-1.989,7.824-8.142,7.435-13.695
			c-0.389-5.553-3.133-10.635-5.92-15.453c-8.613-14.888-20.622-27.861-29.222-42.342c-4.405-7.416-6.442-16.735-10.536-24.481
			c-4.002-7.571-8.624-14.814-13.815-21.625c-2.583-3.389-5.396-6.751-9.12-8.823c-3.724-2.072-8.571-2.618-12.172-0.34
			C309.932,235.881,308.96,240.472,308.516,245.158z"/>
		<path style="clip-path:url(#SVGID_00000100371914607658930600000008701139481880121519_);fill:#7DB3FF;" d="M208.254,384.919
			c-0.656-10.217-0.308-20.273-2.68-30.489c-2.546-10.966-3.877-20.032-2.865-31.482c1.012-11.443,4.23-22.604,4.947-33.947
			c0.767-12.132,1.552-23.68,6.522-35.128c10.27-23.658,41.025-32.973,65.28-28.933c19.423,3.236,39.541,16.893,47.201,35.497
			c7.331,17.804,4.713,38.195,5.882,56.947c2.262,36.264,1.979,72.687-0.858,108.91c-0.289,3.691-0.677,7.583-2.847,10.583
			c-3.453,4.775-17.183,3.468-22.945,4.232c-9.814,1.301-19.812,0.984-29.676,0.596c-16.781-0.66-34.765-1.737-48.05-12.01
			c-10.855-8.394-16.83-21.877-18.936-35.437C208.744,391.124,208.453,388.014,208.254,384.919z"/>
		<path style="clip-path:url(#SVGID_00000100371914607658930600000008701139481880121519_);fill:#7DB3FF;" d="M322.175,244.622
			c-5.759,9.617-19.752,8.22-29.593,9.547c-6.972,0.94-13.866,1.518-20.911,1.18c-13.947-0.668-28.067-4.138-40.116-11.351
			c-21.297-12.749,4.418-33.616,19.761-36.475c8.718-1.625,17.696-0.99,26.493,0.133c13.944,1.781,39.556,7.283,45.538,22.218
			C325.246,234.618,324.8,240.238,322.175,244.622z"/>
		<path style="clip-path:url(#SVGID_00000100371914607658930600000008701139481880121519_);fill:#6984FF;" d="M289.815,217.728
			c-7.139-0.98-14.389-1.159-21.567-0.516c-5.193,0.465-10.544,1.433-14.807,4.435c-16.737,11.785,4.743,23.634,15.815,25.839
			c15.232,3.033,27.776,3.936,42.359-1.865c15.713-6.251,7.627-20.008-5.822-24.287
			C300.584,219.677,295.232,218.472,289.815,217.728z"/>
		<path style="clip-path:url(#SVGID_00000100371914607658930600000008701139481880121519_);fill:#FFC5A4;" d="M273.716,199.34
			c10.43,0.059,20.86,0.119,31.291,0.178c-1.399,16.774-2.798,33.547-4.197,50.321c-0.748,8.968-33.148,4.257-35.336-4.176
			c-0.968-3.73,6.768-16.782,7.708-21.251C274.914,216.182,275.133,207.636,273.716,199.34z"/>
		<path style="clip-path:url(#SVGID_00000100371914607658930600000008701139481880121519_);fill:#EB8D9E;" d="M284.74,226.091
			c-2.845-7.275-2.662-15.361-1.882-23.133c5.884,4.11,12.829,6.688,19.969,7.414c-0.426-0.061,0.296,28.007-1.554,29.352
			c-2.325,1.691-8.1-2.588-9.758-4.003C288.505,233.154,286.178,229.769,284.74,226.091z"/>
		<path style="clip-path:url(#SVGID_00000100371914607658930600000008701139481880121519_);fill:#A58CBD;" d="M335.395,181.596
			c0.154-1.442,0.228-2.942,0.581-4.329c5.885,2.908,5.605,9.976,4.777,15.534c-0.408,2.742-0.583,4.598-2.566,6.521
			c-1.238,1.201-4.982,2.703-5.19,4.642C333.797,196.509,334.596,189.053,335.395,181.596z"/>
		<path style="clip-path:url(#SVGID_00000100371914607658930600000008701139481880121519_);fill:#7D5C8A;" d="M324.307,178.066
			c0.576-1.66,1.286-3.317,2.474-4.611c1.188-1.295,2.934-2.184,4.677-1.963c3.125,0.397,4.771,3.883,5.495,6.949
			c1.612,6.83,1.647,14.837-0.694,21.754c-2.535,7.49-8.411,7.387-15.27,8.851C323.557,208.19,322.889,182.158,324.307,178.066z"/>
		<path style="clip-path:url(#SVGID_00000100371914607658930600000008701139481880121519_);fill:#FFC5A4;" d="M326.325,205.864
			c-1.739,5.083-4.305,9.827-8.247,13.481c-4.506,4.177-10.773,6.389-16.903,5.967c-10.398-0.715-19.427-4.59-26.042-12.988
			c-4.696-5.961-7.42-13.45-7.652-21.035c-2.806,2.622-7.608-0.18-8.962-3.098c-1.221-2.631-0.847-5.689-0.449-8.562
			c0.204-1.468,0.424-2.984,1.204-4.245c0.78-1.26,2.278-2.202,3.721-1.863c1.443,0.339,2.348,2.336,1.348,3.43
			c0.33-10.387,1.636-21.824,10.743-27.804c8.01-5.259,18.055-7.316,27.473-5.466c11.343,2.228,21.415,9.993,26.658,20.295
			c3.91,7.683,1.241,20.759,0.026,29.072C328.627,197.27,327.756,201.682,326.325,205.864z"/>
		<path style="clip-path:url(#SVGID_00000100371914607658930600000008701139481880121519_);fill:#A58CBD;" d="M200.936,367.319
			l428.182-51.677c0,0,28.299,74.468,30.76,85.22c2.461,10.752-354.357,110.415-354.357,110.415L200.936,367.319z"/>
		<polygon style="clip-path:url(#SVGID_00000100371914607658930600000008701139481880121519_);fill:#7D5C8A;" points="
			260.839,384.97 409.719,363.438 456.474,413.27 305.749,432.447 		"/>
		<polygon style="clip-path:url(#SVGID_00000100371914607658930600000008701139481880121519_);fill:#A58CBD;" points="
			310.056,412.063 328.768,409.357 334.645,415.62 315.7,418.03 		"/>
		<polygon style="clip-path:url(#SVGID_00000100371914607658930600000008701139481880121519_);fill:#A58CBD;" points="
			336.715,407.961 355.427,405.255 361.304,411.518 342.359,413.929 		"/>
		<polygon style="clip-path:url(#SVGID_00000100371914607658930600000008701139481880121519_);fill:#A58CBD;" points="
			363.373,403.86 382.086,401.154 387.963,407.417 369.018,409.827 		"/>
		<polygon style="clip-path:url(#SVGID_00000100371914607658930600000008701139481880121519_);fill:#A58CBD;" points="
			293.676,401.81 312.388,399.103 318.265,405.366 299.321,407.777 		"/>
		<polygon style="clip-path:url(#SVGID_00000100371914607658930600000008701139481880121519_);fill:#A58CBD;" points="
			320.335,397.708 339.047,395.002 344.924,401.265 325.979,403.675 		"/>
		<polygon style="clip-path:url(#SVGID_00000100371914607658930600000008701139481880121519_);fill:#A58CBD;" points="
			346.994,393.607 365.706,390.9 371.583,397.164 352.638,399.574 		"/>
		<polygon style="clip-path:url(#SVGID_00000100371914607658930600000008701139481880121519_);fill:#A58CBD;" points="
			303.109,387.455 321.822,384.748 327.698,391.012 308.754,393.422 		"/>
		<polygon style="clip-path:url(#SVGID_00000100371914607658930600000008701139481880121519_);fill:#A58CBD;" points="
			329.768,383.353 348.48,380.647 354.357,386.91 335.413,389.321 		"/>
		<polygon style="clip-path:url(#SVGID_00000100371914607658930600000008701139481880121519_);fill:#A58CBD;" points="
			356.427,379.252 375.139,376.546 381.016,382.809 362.071,385.219 		"/>
		<polygon style="clip-path:url(#SVGID_00000100371914607658930600000008701139481880121519_);fill:#A58CBD;" points="
			390.032,399.759 408.745,397.052 414.621,403.316 395.677,405.726 		"/>
		<polygon style="clip-path:url(#SVGID_00000100371914607658930600000008701139481880121519_);fill:#A58CBD;" points="
			379.587,492.628 374.327,274.988 619.897,251.335 619.897,492.628 		"/>
		<polygon style="clip-path:url(#SVGID_00000100371914607658930600000008701139481880121519_);fill:#7D5C8A;" points="
			388.637,500.722 383.378,283.082 628.947,259.428 628.947,500.722 		"/>
		<polygon style="clip-path:url(#SVGID_00000100371914607658930600000008701139481880121519_);fill:#A58CBD;" points="
			507.76,191.694 523.396,142.321 532.907,142.915 514.355,193.579 		"/>
		<polygon style="clip-path:url(#SVGID_00000100371914607658930600000008701139481880121519_);fill:#A58CBD;" points="
			517.866,197.044 533.501,147.671 543.013,148.265 524.461,198.929 		"/>
		<path style="clip-path:url(#SVGID_00000100371914607658930600000008701139481880121519_);fill:#7D5C8A;" d="M499.721,209.548
			l21.424-1.404c3.331-0.218,6.111-2.625,6.805-5.89l0,0c0.814-3.832-1.477-7.641-5.245-8.718l-23.373-6.678L499.721,209.548z"/>
		<path style="clip-path:url(#SVGID_00000100371914607658930600000008701139481880121519_);fill:#A58CBD;" d="M481.973,217.141
			l-20.054-2.028c-10.965-1.109-18.954-10.896-17.846-21.861l0,0c1.109-10.965,10.896-18.954,21.861-17.846l20.054,2.028
			c10.965,1.109,18.954,10.896,17.846,21.861v0C502.725,210.26,492.937,218.25,481.973,217.141z"/>
		<path style="clip-path:url(#SVGID_00000100371914607658930600000008701139481880121519_);fill:#7D5C8A;" d="M469.236,217.906
			l-15.247-1.542c-11.378-1.15-19.668-11.307-18.518-22.684l0.407-4.028c1.151-11.378,11.307-19.668,22.684-18.518l15.247,1.542
			c11.378,1.151,19.668,11.307,18.518,22.684l-0.407,4.028C490.77,210.766,480.613,219.057,469.236,217.906z"/>
		<path style="clip-path:url(#SVGID_00000100371914607658930600000008701139481880121519_);fill:#7DB3FF;" d="M295.422,375.07
			c0.377,1.754,0.484,3.591,0.412,5.376c-0.213,5.28-1.949,10.701-5.784,14.335c-6.971,6.605-13.64,2.107-21.047-0.268
			c-9.301-2.981-18.488-6.019-27.463-9.907c-12.513-5.419-28.331-11.778-37.778-22.002c-3.394-3.674-5.643-8.707-4.901-13.661
			c0.944-6.282,5.681-13.729,9.749-18.412c3.593-4.137,8.636-7.333,14.114-7.463c5.26-0.124,10.141,2.514,14.735,5.077
			c9.148,5.104,18.295,10.207,27.443,15.311c4.524,2.524,9.176,5.156,12.345,9.254c3.335,4.313,3.945,9.553,2.094,14.563
			c4.722-0.266,9.31-2.552,13.27,1.923C294.075,370.855,294.955,372.899,295.422,375.07z"/>
		<path style="clip-path:url(#SVGID_00000100371914607658930600000008701139481880121519_);fill:#FFC5A4;" d="M304.002,373.597
			c7.839,0.059,16.973,5.064,23.292,9.431c5.476,3.784,11.053,8.393,10.757,15.754c-0.035,0.872-0.369,1.967-1.239,2.037
			c-0.953,0.077-1.409-1.11-1.674-2.029c-2.098-7.273-9.336-8.857-15.846-9.691c5.634,3.977,9.457,10.421,10.247,17.272
			c0.113,0.977,0.085,2.143-0.717,2.711c-0.896,0.634-2.214,0.046-2.817-0.872c-0.603-0.918-0.732-2.055-1.031-3.111
			c-1.426-5.034-6.438-7.917-11.365-8.568c2.145,1.205,3.632,3.734,4.73,5.87c0.977,1.9,1.587,3.999,1.71,6.136
			c0.056,0.979,0.107,2.757-0.641,3.519c-1.331,1.356-2.756-0.431-3.139-1.752c-0.517-1.781-0.51-3.121-1.567-4.712
			c-1.261-1.897-2.57-3.236-4.663-4.211c-1.341-0.625-1.802-1.231-2.902-2.185c-0.391-0.339-1.56-0.826-1.779-1.23
			c1.743,3.214,2.399,7.007,1.835,10.619c-0.06,0.381-0.201,0.836-0.577,0.921c-0.471,0.106-0.797-0.446-0.971-0.896
			c-1.684-4.329-4.786-8.605-8.74-11.137c-1.747-1.119-3.543-2.326-5.542-2.966c-0.553-0.177-6.732-1.329-6.742-1.084
			c0.301-7.371,0.971-14.938,9.074-17.91C297.279,374.197,300.715,373.572,304.002,373.597z"/>
		<path style="clip-path:url(#SVGID_00000100371914607658930600000008701139481880121519_);fill:#E28BE8;" d="M264.851,149.848
			c-8.003,14.078-8.021,32.361-0.044,46.454c0.312-7.243,4.987-13.478,9.599-19.072c4.612-5.594,9.559-11.484,10.599-18.659
			c0.724-4.991-0.758-13.945-5.679-16.797C273.302,138.284,267.508,145.174,264.851,149.848z"/>
		<path style="clip-path:url(#SVGID_00000100371914607658930600000008701139481880121519_);fill:#7D5C8A;" d="M263.496,206.97
			c2.305,0.678,4.867,0.366,7.509-1.481c3.493-2.443,5.313-6.644,6.357-10.777c1.561-6.184,2.536-14.848,0.101-20.958
			c-2.702-6.781-8.801-12.616-16.203-7.874c-7.352,4.71-8.831,14.173-8.548,22.232C253.046,197.568,253.281,203.963,263.496,206.97z
			"/>
		<path style="clip-path:url(#SVGID_00000100371914607658930600000008701139481880121519_);fill:#E28BE8;" d="M303.177,162.761
			c5.785,1.885,10.97,5.271,16.662,7.422c6.898,2.606,17.311,3.159,22.772-2.62c3.314-3.507,5.46-8.665,6.582-13.286
			c0.312-1.287,0.599-13.487,0.447-13.402c-14.536,8.06-24.997-1.244-37.374-7.657c-10.234-5.303-26.482-8.233-34.648,2.45
			c-6.953,9.096,2.453,21.783,8.208,28.84C291.169,161.134,297.165,160.802,303.177,162.761z"/>
		<path style="clip-path:url(#SVGID_00000100371914607658930600000008701139481880121519_);fill:#7D5C8A;" d="M330.672,140.617
			c-0.71-0.914-1.356-1.855-1.983-2.522c-2.48-2.641-5.374-4.804-8.632-6.397c-6.486-3.171-14.071-3.987-21.098-2.368
			c-12.329,2.84-22.278,12.392-27.344,23.752c-3.134,7.027-4.678,14.611-4.971,22.283c-0.099,2.585,3.917,2.58,4.016,0
			c0.457-11.948,4.276-24.175,12.886-32.784c7.648-7.648,18.655-11.936,29.394-9.251c3.799,0.95,8.3,2.776,11.047,5.689
			c0.791,0.839,1.685,3.137,2.518,3.628c1.851,1.09,5.987,0.698,8.129,0.917C333.041,143.4,331.779,142.04,330.672,140.617z"/>
		<path style="clip-path:url(#SVGID_00000100371914607658930600000008701139481880121519_);fill:#7DB3FF;" d="M271.256,234.022
			c0.104,0.097,0.208,0.193,0.312,0.287c7.19,6.565,14.379,13.131,21.568,19.696c-1.905-1.74,10.864-13.269,12.321-14.269
			c5.353-3.676,10.916-7.04,14.917-12.32c5.484,6.486,5.765,16.461,1.685,23.911c-4.079,7.45-11.901,12.411-20.191,14.257
			c-8.291,1.847-17.007,0.841-25.171-1.502c-11.55-3.314-37.796-14.345-38.765-28.82c-0.508-7.598,6.041-15.079,13.692-14.647
			C259.705,221.071,265.729,228.887,271.256,234.022z"/>
		<path style="clip-path:url(#SVGID_00000100371914607658930600000008701139481880121519_);fill:#7DB3FF;" d="M254.182,240.708
			c1.043,7.922-2.856,18.317-4.133,25.47c-4.647,26.029-9.293,52.058-13.94,78.087c-1.101,6.165-2.274,12.505-5.872,17.38
			c-3.598,4.874-10.272,7.967-16.978,5.799c-15.993-5.171-15.956-16.669-16.919-31.152c-1.252-18.834-0.493-37.808,2.464-56.456
			c2.946-18.58,7.258-42.638,27.004-50.827c8.376-3.474,18.857-2.02,25.252,4.654C252.885,235.566,253.824,237.992,254.182,240.708z
			"/>
		<path style="clip-path:url(#SVGID_00000100371914607658930600000008701139481880121519_);fill:#5F96E6;" d="M285.187,371.243
			l-5.19-2.237c0.316-0.277,0.639-0.548,0.973-0.807c0.561-0.436,0.5-1.026,0.156-1.449c1.344-2.922,1.391-6.3,0.493-9.398
			c-1.101-3.799-3.525-6.978-6.524-9.5c-3.244-2.728-6.981-4.749-10.673-6.793l-12.862-7.12c-4.297-2.379-8.594-4.757-12.891-7.136
			c-0.025-0.075-0.065-0.144-0.103-0.214c3.668-16.018,7.336-32.037,11.004-48.055c-0.452-0.065-0.888-0.206-1.273-0.421
			c0.238-0.191,0.414-0.471,0.456-0.842c1.456-12.637-4.492-25.575-14.858-32.88c-1.27-0.895-2.475,1.193-1.216,2.081
			c9.711,6.843,15.02,19.037,13.665,30.799c-0.074,0.645,0.309,1.014,0.789,1.116c-2.569,11.217-5.137,22.434-7.706,33.65
			c-1.043,4.555-2.086,9.111-3.13,13.666c-0.174,0.012-0.34,0.061-0.486,0.146c-6.666-0.136-13.257,2.408-18.132,6.979
			c-1.134,1.063,0.573,2.764,1.704,1.704c4.457-4.178,10.437-6.392,16.503-6.27c0.233,0.714,1.142,1.048,1.758,0.728
			c7.477,4.139,14.954,8.278,22.431,12.417c3.624,2.006,7.347,3.908,10.776,6.242c3.069,2.09,5.924,4.676,7.571,8.059
			c1.718,3.529,2.056,7.853-0.148,11.241c-0.12,0.185-0.176,0.366-0.19,0.54c-6.84,6.104-9.823,16.084-7.44,24.952
			c0.402,1.496,2.727,0.861,2.323-0.641c-0.227-0.845-0.384-1.699-0.505-2.557c3.026,0.664,6.053,1.328,9.08,1.992
			c0.635,0.139,1.303-0.191,1.482-0.842c0.166-0.603-0.203-1.342-0.841-1.482c-3.09-0.678-6.18-1.356-9.27-2.034
			c-0.226-0.05-0.456-0.037-0.667,0.026c-0.088-2.73,0.336-5.457,1.208-8.034c1.508,0.557,3.017,1.115,4.525,1.672
			c0.592,0.219,1.346-0.244,1.482-0.841c0.155-0.682-0.207-1.248-0.842-1.482c-1.427-0.527-2.854-1.054-4.281-1.582
			c0.969-2.118,2.26-4.089,3.83-5.827c0.022,0.012,0.04,0.029,0.064,0.039c1.912,0.824,3.824,1.648,5.737,2.473
			c0.577,0.249,1.319,0.191,1.648-0.432C285.893,372.372,285.805,371.509,285.187,371.243z"/>
		<path style="clip-path:url(#SVGID_00000100371914607658930600000008701139481880121519_);fill:#5F96E6;" d="M319.19,251.221
			c-13.967,7.546-30.953,8.757-45.985,3.802c-4.239-1.397-8.284-3.307-12.069-5.671c-1.319-0.824-2.53,1.26-1.216,2.081
			c13.995,8.743,31.577,11.15,47.501,6.994c4.513-1.178,8.882-2.907,12.985-5.124C321.771,252.565,320.556,250.484,319.19,251.221z"
			/>
		<path style="clip-path:url(#SVGID_00000100371914607658930600000008701139481880121519_);fill:#E5CDED;" d="M289.942,300.855
			c-0.06-0.141-0.169-0.25-0.294-0.342c-0.08-1.015-0.16-2.029-0.239-3.044c0.484-0.834,0.658-1.864,0.342-2.79
			c-0.265-0.777-0.787-1.372-1.457-1.73c-0.232-0.786-0.847-1.486-1.596-1.839c0.074-6.39,0.157-12.78,0.198-19.17
			c0.043-6.658-0.282-13.692-3.904-19.505c-1.733-2.782-4.14-5.156-7.139-6.533c-1.399-0.643-2.625,1.434-1.216,2.081
			c5.259,2.415,8.076,7.811,9.146,13.273c0.675,3.45,0.724,6.99,0.705,10.493c-0.02,3.529-0.072,7.059-0.109,10.588
			c-0.032,2.958-0.063,5.916-0.095,8.874c-0.435,0.246-0.809,0.608-1.055,1.073c-0.25,0.473-0.41,1.026-0.383,1.565
			c0.028,0.573,0.215,1.055,0.53,1.504c0.014,0.021,0.029,0.041,0.044,0.062c0.018,0.025,0.034,0.05,0.053,0.074
			c-0.018,0.083-0.029,0.169-0.027,0.259c0.013,0.961,0.469,1.792,1.16,2.384l0.472,7.47c0.04,0.628,0.526,1.235,1.205,1.205
			c0.619-0.028,1.247-0.531,1.205-1.205l-0.006-0.098c0.045-0.003,0.088,0.005,0.133-0.002c0.057-0.008,0.113-0.025,0.169-0.038
			c0.208,0.346,0.558,0.593,1,0.573c0.672-0.03,1.181-0.529,1.205-1.205c0.017-0.479,0.034-0.957,0.051-1.436
			C290.347,302.565,290.306,301.703,289.942,300.855z M287.406,303.038c-0.026,0.012-0.053,0.025-0.079,0.037
			c-0.086-1.363-0.172-2.725-0.258-4.088c0.017-0.002,0.032-0.007,0.049-0.009c0.106,1.344,0.211,2.688,0.317,4.032
			C287.419,303.023,287.409,303.032,287.406,303.038z M287.118,295.993c0.134-0.082,0.258-0.174,0.372-0.273
			c0,0.034,0.003,0.069,0.001,0.104c0,0.003-0.001,0.006-0.001,0.008c-0.018,0.071-0.03,0.144-0.051,0.214
			c0,0.002-0.001,0.004-0.002,0.006c-0.178,0.129-0.323,0.298-0.405,0.497c-0.01,0.006-0.02,0.01-0.03,0.016
			c-0.021,0.007-0.041,0.012-0.061,0.018c-0.009,0.003-0.011,0.004-0.018,0.007c-0.068,0.001-0.136,0-0.204,0
			c-0.026-0.004-0.051-0.009-0.064-0.012c-0.045-0.011-0.09-0.024-0.135-0.038c-0.006-0.002-0.02-0.007-0.031-0.011
			c-0.051-0.026-0.133-0.067-0.161-0.083c-0.029-0.017-0.058-0.036-0.086-0.055c-0.011-0.017-0.028-0.036-0.05-0.056
			C286.515,296.268,286.832,296.168,287.118,295.993z"/>
		<path style="clip-path:url(#SVGID_00000100371914607658930600000008701139481880121519_);fill:#E5CDED;" d="M314.952,304.888
			c-0.321-0.073-0.667-0.017-0.948,0.144c0.013-0.047,0.026-0.093,0.039-0.14c0.598-0.43,1.002-1.115,0.959-1.935
			c-0.032-0.613-0.258-1.222-0.662-1.691c0.022-0.091,0.046-0.182,0.073-0.271c0.092-0.296,0.038-0.605-0.104-0.869
			c0.006-0.138,0.012-0.276,0.018-0.415c0.095-0.151,0.163-0.328,0.188-0.536c1.551-13.234,0.43-26.768-3.261-39.572
			c-1.051-3.646-2.317-7.225-3.776-10.728c-0.252-0.605-0.796-1.022-1.482-0.841c-0.569,0.15-1.091,0.882-0.841,1.482
			c5.072,12.173,7.695,25.3,7.636,38.491c-0.016,3.492-0.229,6.98-0.611,10.45c-1.129,0.742-2.197,1.795-2.445,3.159
			c-0.144,0.789-0.049,1.596,0.409,2.274c0.171,0.253,0.374,0.473,0.593,0.671c0.031,0.037,0.048,0.081,0.082,0.117
			c0.119,0.126,0.271,0.211,0.434,0.269c0.076,0.045,0.157,0.082,0.238,0.121c-0.161,0.57-0.322,1.141-0.483,1.711
			c-0.188,0.145-0.331,0.343-0.375,0.6c-0.107,0.624-0.215,1.247-0.322,1.871c-0.106,0.619,0.164,1.328,0.841,1.482
			c0.64,0.146,1.299-0.192,1.482-0.841l0.079-0.279c0.214,0.122,0.428,0.244,0.641,0.366c0.652,0.372,1.592,0.049,1.77-0.72
			c0.223-0.962,0.446-1.924,0.669-2.886C315.935,305.757,315.604,305.036,314.952,304.888z"/>
		<path style="clip-path:url(#SVGID_00000100371914607658930600000008701139481880121519_);fill:#A58CBD;" d="M252.872,191.491
			c-1.045-3.334-0.901-6.944-0.214-10.37c0.635-3.167,1.807-6.374,4.185-8.561c2.378-2.187,6.198-3.044,8.909-1.289
			c2.993,1.938,3.563,6.003,3.843,9.558c0.306,3.877,0.588,7.917-0.866,11.524c-1.318,3.269-5.058,6.513-8.801,6.423
			C256.362,198.691,253.835,194.562,252.872,191.491z"/>
	</g>
	<path style="fill:#FFFFFF;" d="M447.462,199.449l-96.383,10.815c-5.969,0.67-10.482,5.717-10.482,11.724v24.178
		c0,7.061,6.16,12.54,13.173,11.717l70.421-8.265l12.699,12.699v-14.189l13.263-1.557c5.943-0.697,10.422-5.733,10.422-11.717
		v-23.682C460.576,204.137,454.455,198.665,447.462,199.449z"/>
	<path style="fill:#FFFFFF;" d="M483.567,187.19l13.263-1.557c5.943-0.697,10.422-5.733,10.422-11.717v-23.681
		c0-7.037-6.12-12.509-13.113-11.724l-49.567,5.37c-5.969,0.67-10.482,5.717-10.482,11.724v24.178c0,7.061,6.16,12.54,13.173,11.717
		l23.605-2.82L483.567,187.19z"/>
	<path style="fill:#FFC5A4;" d="M456.933,165.951c-1.611-10.992,8.233-19.059,18.685-18.636
		c13.099,0.53,19.826,17.083,10.177,26.234c-8.536,8.095-25.701,6.205-28.639-6.425C457.063,166.732,456.99,166.341,456.933,165.951
		z"/>
	<path style="fill:#7D5C8A;" d="M470.434,161.053c-2.333-0.84-4.665-1.68-6.998-2.519c-0.408-0.147-0.879,0.166-0.988,0.561
		c-0.122,0.446,0.151,0.84,0.561,0.988c1.83,0.659,3.66,1.318,5.49,1.976c-1.155,0.811-2.309,1.622-3.464,2.433
		c-0.354,0.249-0.52,0.702-0.288,1.099c0.205,0.351,0.742,0.539,1.099,0.288c1.594-1.12,3.187-2.239,4.781-3.358
		C471.207,162.113,471.104,161.295,470.434,161.053z"/>
	<path style="fill:#7D5C8A;" d="M485.244,162.291c-1.658-0.416-3.316-0.832-4.974-1.248c1.545-1.03,3.089-2.061,4.634-3.091
		c0.361-0.24,0.516-0.709,0.288-1.099c-0.209-0.358-0.736-0.53-1.099-0.288c-1.808,1.206-3.617,2.413-5.425,3.62
		c-0.166,0.111-0.281,0.272-0.343,0.449c-0.73,0.143-0.942,1.341-0.068,1.56c2.187,0.549,4.374,1.098,6.561,1.646
		C485.82,164.091,486.248,162.543,485.244,162.291z"/>
	<path style="fill:#7D5C8A;" d="M482.153,165.372c-4.566,0.738-9.132,1.477-13.699,2.215c-0.34,0.055-0.506,0.269-0.555,0.517
		c-0.356,0.199-0.611,0.641-0.4,1.118c1.502,3.408,5.421,5.436,9.071,4.748c3.675-0.692,6.443-4.146,6.6-7.824
		C483.194,165.577,482.64,165.293,482.153,165.372z"/>
	<path style="fill:#7D5C8A;" d="M366.244,233.46c-3.101,0-3.106,4.819,0,4.819C369.345,238.279,369.35,233.46,366.244,233.46z"/>
	<path style="fill:#7D5C8A;" d="M384.973,233.178c-0.114-0.408-0.321-0.763-0.62-1.063c-0.163-0.125-0.325-0.251-0.488-0.377
		c-0.376-0.218-0.781-0.328-1.216-0.329h-0.41c-0.332-0.013-0.641,0.057-0.928,0.207c-0.299,0.097-0.557,0.263-0.775,0.498
		c-0.235,0.218-0.401,0.477-0.498,0.776c-0.151,0.287-0.22,0.597-0.208,0.928c0.029,0.214,0.057,0.427,0.086,0.641
		c0.114,0.408,0.321,0.763,0.62,1.063c0.163,0.126,0.325,0.251,0.488,0.377c0.376,0.218,0.781,0.328,1.216,0.329h0.41
		c0.332,0.012,0.641-0.057,0.928-0.208c0.299-0.097,0.557-0.263,0.775-0.498c0.235-0.218,0.401-0.477,0.498-0.775
		c0.151-0.287,0.22-0.597,0.208-0.928C385.031,233.605,385.002,233.391,384.973,233.178z"/>
	<path style="fill:#7D5C8A;" d="M404.25,230.717c-0.115-0.408-0.321-0.763-0.62-1.063l-0.488-0.377
		c-0.376-0.218-0.781-0.328-1.216-0.329h-0.41c-0.332-0.013-0.641,0.057-0.928,0.207c-0.299,0.097-0.557,0.263-0.775,0.498
		c-0.235,0.218-0.401,0.477-0.498,0.776c-0.151,0.287-0.22,0.597-0.208,0.928c0.029,0.214,0.057,0.427,0.086,0.641
		c0.115,0.408,0.321,0.763,0.62,1.063l0.488,0.377c0.376,0.218,0.781,0.328,1.216,0.329h0.41c0.332,0.012,0.641-0.057,0.928-0.208
		c0.299-0.097,0.557-0.263,0.775-0.498c0.235-0.218,0.401-0.477,0.498-0.775c0.151-0.287,0.22-0.597,0.207-0.928
		C404.307,231.144,404.278,230.931,404.25,230.717z"/>
	<path style="fill:#7D5C8A;" d="M422.706,228.666c-0.115-0.408-0.321-0.763-0.62-1.063c-0.163-0.126-0.325-0.251-0.488-0.377
		c-0.376-0.218-0.781-0.328-1.216-0.329h-0.41c-0.332-0.012-0.641,0.057-0.928,0.208c-0.299,0.097-0.557,0.263-0.775,0.498
		c-0.235,0.218-0.401,0.477-0.498,0.775c-0.151,0.287-0.22,0.597-0.207,0.928c0.029,0.213,0.057,0.427,0.086,0.64
		c0.115,0.408,0.321,0.763,0.62,1.063c0.163,0.126,0.325,0.251,0.488,0.377c0.376,0.218,0.781,0.328,1.216,0.329h0.41
		c0.332,0.012,0.641-0.057,0.928-0.208c0.299-0.097,0.557-0.263,0.775-0.498c0.235-0.218,0.401-0.477,0.498-0.775
		c0.151-0.287,0.22-0.597,0.208-0.928C422.763,229.093,422.734,228.88,422.706,228.666z"/>
	<path style="fill:#7D5C8A;" d="M439.4,226.328c-0.097-0.299-0.263-0.557-0.498-0.775c-0.218-0.235-0.477-0.401-0.775-0.498
		c-0.287-0.151-0.597-0.22-0.928-0.208c-0.214,0.029-0.427,0.057-0.641,0.086c-0.408,0.115-0.763,0.321-1.063,0.62
		c-0.126,0.162-0.251,0.325-0.377,0.488c-0.218,0.376-0.328,0.781-0.329,1.216v0.41c-0.013,0.332,0.057,0.641,0.207,0.928
		c0.097,0.299,0.263,0.557,0.498,0.775c0.218,0.235,0.477,0.401,0.775,0.498c0.287,0.151,0.597,0.22,0.928,0.208
		c0.214-0.029,0.427-0.057,0.641-0.086c0.408-0.115,0.763-0.321,1.063-0.62c0.126-0.163,0.251-0.325,0.377-0.488
		c0.218-0.376,0.328-0.781,0.329-1.216v-0.41C439.62,226.924,439.551,226.615,439.4,226.328z"/>
	<g>
		<path style="fill:#5C4466;" d="M87.271,384.702c-4.119-7.325-7.133-15.041-9.102-23.209c-0.776-3.22-5.743-1.857-4.966,1.369
			c2.069,8.583,5.294,16.745,9.621,24.439C84.448,390.19,88.899,387.597,87.271,384.702z"/>
		<path style="fill:#5C4466;" d="M100.271,374.217c-2.593-6.006-5.187-12.011-7.78-18.017c-1.31-3.034-5.748-0.415-4.447,2.599
			c2.593,6.005,5.187,12.011,7.78,18.017C97.135,379.851,101.573,377.231,100.271,374.217z"/>
		<path style="fill:#5C4466;" d="M124.876,449.767c-7.618,2.165-17.063,3.029-24.466-0.416c-7.507-3.494-9.253-10.558-12.611-17.496
			c-7.403-15.298-13.508-34.595-2.466-49.789c9.854-13.559,29.032-19.817,41.137-5.384c11.296,13.468,16.403,31.911,19.788,48.836
			C148.643,437.225,137.672,446.13,124.876,449.767z"/>
		<path style="fill:#7D5C8A;" d="M114.591,454.57c-7.618,2.165-17.063,3.029-24.466-0.416c-7.507-3.494-9.253-10.558-12.61-17.496
			c-7.403-15.298-13.508-34.595-2.466-49.789c9.854-13.559,29.032-19.817,41.136-5.384c11.296,13.468,16.404,31.911,19.788,48.836
			C138.358,442.028,127.387,450.933,114.591,454.57z"/>
		<path style="fill:#A58CBD;" d="M103.171,451.031c-5.993,1.704-13.424,2.383-19.249-0.327c-5.906-2.749-7.28-8.306-9.921-13.764
			c-5.824-12.036-10.627-27.217-1.94-39.171c7.753-10.667,22.84-15.591,32.363-4.236c8.886,10.596,12.905,25.105,15.568,38.42
			C121.869,441.163,113.238,448.169,103.171,451.031z"/>
		<g>
			<path style="fill:#5C4466;" d="M106.561,282.583c0,0,51.772-14.807,74.985,50.745l19.297-7.161
				C200.843,326.167,150.358,238.999,106.561,282.583z"/>
			<path style="fill:#7D5C8A;" d="M74.343,368.438l20.358-8.263c0,0-19.849-71.624,37.662-89.795
				C132.362,270.38,57.039,274.242,74.343,368.438z"/>
		</g>
		<path style="fill:#5C4466;" d="M192.131,342.555c-2.198-4.75-4.397-9.501-6.595-14.251c-1.39-3.005-5.831-0.392-4.447,2.599
			c2.198,4.75,4.397,9.501,6.595,14.251C189.075,348.159,193.515,345.546,192.131,342.555z"/>
		<path style="fill:#5C4466;" d="M209.459,342.2c-3.212-5.845-6.424-11.69-9.635-17.535c-1.596-2.905-6.045-0.31-4.447,2.599
			c3.212,5.845,6.424,11.69,9.636,17.535C206.609,347.704,211.058,345.109,209.459,342.2z"/>
		<g>
			<path style="fill:#A58CBD;" d="M223.305,403.727c-5.841,1.66-13.083,2.323-18.76-0.319c-5.756-2.679-7.095-8.095-9.669-13.415
				c-5.676-11.73-10.357-26.526-1.891-38.177c7.556-10.397,22.261-15.195,31.542-4.128c8.661,10.327,12.578,24.468,15.173,37.446
				C241.529,394.109,233.117,400.937,223.305,403.727z"/>
			<path style="fill:#7D5C8A;" d="M213.73,413.191c-6.674,1.897-14.949,2.654-21.436-0.365c-6.577-3.061-8.107-9.25-11.048-15.329
				c-6.486-13.404-11.835-30.31-2.16-43.622c8.634-11.88,25.436-17.362,36.041-4.717c9.896,11.8,14.372,27.958,17.338,42.787
				C234.554,402.202,224.941,410.004,213.73,413.191z"/>
			<path style="fill:#5C4466;" d="M209.485,399.064c-3.964,1.127-8.88,1.577-12.733-0.217c-3.907-1.818-4.816-5.495-6.563-9.105
				c-3.853-7.962-7.03-18.004-1.283-25.912c5.128-7.057,15.109-10.314,21.409-2.802c5.879,7.009,8.537,16.608,10.299,25.416
				C221.855,392.537,216.145,397.171,209.485,399.064z"/>
		</g>
	</g>
	<g>
		<path style="fill:#A58CBD;" d="M570.644,145.054c2.117,8.146-2.523,16.553-2.214,24.964c4.984,0.798,10.033-0.491,14.962-1.578
			c8.182-1.805,16.483-3.074,24.831-3.797c-4.569-8.694-7.457-18.268-8.458-28.038L570.644,145.054z"/>
		<path style="fill:#7D5C8A;" d="M528.92,117.815c-0.645-1.985-1.168-4.04-1.56-6.164c-4.493-24.343,4.883-51.804,30.388-59.748
			c2.654-0.826,5.382-1.403,8.132-1.806c39.875-5.846,77.565,37.927,55.416,75.58C599.874,162.094,542.247,158.852,528.92,117.815z"
			/>
		<path style="fill:#A58CBD;" d="M535.555,104.958c-1.11-16.355,8.486-35.463,25.538-39.248c19.909-4.42,43.23,14.692,44.046,34.72
			c1.129,27.718-38.251,45.83-58.864,27.273C539.471,121.576,536.128,113.389,535.555,104.958z"/>
		<path style="fill:#5C4466;" d="M544.044,103.005c-0.658-9.69,5.028-21.012,15.132-23.255c11.796-2.619,25.615,8.705,26.098,20.572
			c0.669,16.423-22.664,27.155-34.878,16.16C546.365,112.851,544.384,108,544.044,103.005z"/>
		<path style="fill:#FFFFFF;" d="M573.408,89.686c-0.277-1.306-1.171-2.539-2.33-3.21c-2.167-1.255-4.994-0.841-6.673,1.046
			c-0.948,1.066-1.493,2.295-1.575,3.728c-0.083,1.459,0.545,2.74,1.491,3.802c0.277,0.311,0.658,0.553,1.066,0.751
			c0.378,0.273,0.802,0.502,1.285,0.646c2.364,0.705,5.081-0.525,6.172-2.73C573.483,92.425,573.71,91.108,573.408,89.686z"/>
		<path style="fill:#7D5C8A;" d="M556.164,184.314c-0.752-3.854-1.363-7.735-1.831-11.634c-0.081-0.674-0.145-1.407,0.214-1.983
			c0.389-0.623,1.156-0.876,1.862-1.079c20.312-5.843,41.707-7.897,62.76-6.026c0.487,0.043,1.015,0.107,1.367,0.447
			c0.372,0.359,0.439,0.921,0.485,1.436c0.513,5.744,1.026,11.488,1.54,17.233c0.045,0.499,0.557,0.906,0.477,1.4
			c-0.08,0.495-0.984-0.16-0.483-0.133L556.164,184.314z"/>
	</g>
	<g>
		<path style="fill:#5F96E6;" d="M495.484,370.617c-4.829-4.009-9.659-8.017-14.488-12.026c-2.95-2.449-7.218,1.773-4.243,4.243
			c4.829,4.009,9.659,8.018,14.488,12.026C494.191,377.308,498.459,373.086,495.484,370.617z"/>
		<path style="fill:#5F96E6;" d="M586.875,325.691c-0.135-3.85-6.136-3.868-6,0c0.211,6.015,0.423,12.03,0.634,18.044
			c0.135,3.85,6.136,3.868,6,0C587.298,337.721,587.086,331.706,586.875,325.691z"/>
		<path style="fill:#7DB3FF;" d="M655.062,418.346c-0.15,0.8-0.36,1.57-0.63,2.3c-1.09,2.96-3.22,5.32-6.66,6.83
			c-12.08,5.33-29.95-14.84-39.67-19.43c-10.1-4.76-21.97-1.35-32.58,2.12c-9.47,3.09-18.95,6.19-28.42,9.29
			c-11.2,3.66-23.32,8.01-29.53,18.03c-3.81,6.15-4.8,13.57-6.64,20.57s-5.06,14.29-11.45,17.7c-1.66,0.89-3.33,1.51-4.95,1.83
			c-4.62,0.92-8.74-0.64-10.41-5.73c-7.48-22.79-10.44-47.05-8.67-70.96c0.62-8.36,1.97-17.08,6.97-23.81
			c5.14-6.91,13.37-10.71,21.34-14c21.77-8.98,44.26-16.24,67.18-21.69c11.62-2.76,24.22-4.98,35.2-0.25
			c7.45,3.2,13.26,9.28,18.41,15.55C631.452,365.086,658.442,400.166,655.062,418.346z"/>
		<path style="fill:#5F96E6;" d="M654.432,420.646c-1.09,2.96-3.22,5.32-6.66,6.83c-12.08,5.33-29.95-14.84-39.67-19.43
			c-10.1-4.76-21.97-1.35-32.58,2.12c-9.47,3.09-18.95,6.19-28.42,9.29c-11.2,3.66-23.32,8.01-29.53,18.03
			c-3.81,6.15-4.8,13.57-6.64,20.57s-5.06,14.29-11.45,17.7c-1.66,0.89-3.33,1.51-4.95,1.83c-4.51-10.14,2.23-27.33,4.61-37.01
			c0.74-2.99,1.55-6.03,3.3-8.56c1.92-2.79,4.81-4.74,7.68-6.53c28.56-17.86,61.62-26.85,94.14-35.62c3.19-0.86,6.56-1.72,9.75-0.89
			c2.34,0.62,4.36,2.09,6.29,3.54c10.44,7.82,20.57,16.04,30.37,24.64C651.932,418.266,653.212,419.426,654.432,420.646z"/>
		<g>
			
				<rect x="506.142" y="378.499" transform="matrix(0.9215 0.3884 -0.3884 0.9215 193.8159 -168.5683)" style="fill:#7D5C8A;" width="15.55" height="33.367"/>
			
				<rect x="506.142" y="378.499" transform="matrix(-0.3884 0.9215 -0.9215 -0.3884 1077.6691 75.0853)" style="fill:#7D5C8A;" width="15.549" height="33.367"/>
			
				<rect x="510.3" y="384.599" transform="matrix(-0.3884 0.9215 -0.9215 -0.3884 1077.6688 75.085)" style="fill:#A58CBD;" width="7.233" height="21.168"/>
			
				<rect x="510.3" y="384.599" transform="matrix(-0.9215 -0.3884 0.3884 -0.9215 834.0209 958.9309)" style="fill:#A58CBD;" width="7.233" height="21.168"/>
		</g>
		<g>
			<circle style="fill:#5F96E6;" cx="586.51" cy="372.336" r="19.99"/>
			<circle style="fill:#7D5C8A;" cx="582.382" cy="362.093" r="6.738"/>
			<circle style="fill:#7D5C8A;" cx="575.644" cy="376.712" r="6.738"/>
			<circle style="fill:#7D5C8A;" cx="597.424" cy="369.974" r="6.738"/>
			<circle style="fill:#7D5C8A;" cx="590.686" cy="383.45" r="6.738"/>
		</g>
		
			<rect x="541.081" y="406.368" transform="matrix(0.9376 -0.3477 0.3477 0.9376 -108.0587 215.9158)" style="fill:#7D5C8A;" width="13.021" height="5.362"/>
		
			<rect x="560.304" y="400.24" transform="matrix(0.9595 -0.2818 0.2818 0.9595 -90.563 176.0315)" style="fill:#7D5C8A;" width="13.021" height="5.362"/>
		<path style="fill:#7DB3FF;" d="M466.793,367.661c-4.412-3.358-7.005-11.109-5.253-16.385c1.345-4.052,4.57-6.016,8.427-7.472
			c2.07-0.782,4.263-1.422,6.468-1.225c5.383,0.481,10.262,5.789,11.864,10.703c3.043,9.331-5.603,16.821-14.459,16.69
			C470.98,369.93,468.644,369.07,466.793,367.661z"/>
		<path style="fill:#7DB3FF;" d="M574.221,333.791c-4.412-3.358-7.005-11.109-5.253-16.385c1.345-4.052,4.571-6.016,8.427-7.472
			c2.071-0.782,4.263-1.422,6.468-1.225c5.383,0.481,10.262,5.789,11.864,10.703c3.043,9.331-5.603,16.821-14.459,16.69
			C578.408,336.06,576.072,335.201,574.221,333.791z"/>
	</g>
	<polygon style="fill:#FFC5A4;" points="154.969,168.64 123.057,161.559 99.133,183.832 96.007,151.294 67.43,135.424 
		97.409,122.395 103.672,90.313 125.327,114.799 157.774,110.842 141.179,139.003 	"/>
	<polygon style="fill:#FFC5A4;" points="160.981,98.3 151.229,85.503 135.157,86.282 144.315,73.052 138.608,58.008 154.02,62.629 
		166.564,52.552 166.932,68.638 180.391,77.454 165.207,82.775 	"/>
	<polygon style="fill:#81B5AC;" points="477.526,44.945 325.916,44.945 325.916,102.392 360.405,102.392 360.405,126.347 
		384.361,102.392 477.526,102.392 	"/>
	<g>
		<g>
			<rect x="350.967" y="64.067" style="fill:#FFFFFF;" width="37.657" height="21.064"/>
		</g>
		<g>
			<polygon style="fill:#FFFFFF;" points="380.171,74.599 398.691,64.067 398.691,85.131 			"/>
		</g>
	</g>
	<g>
		<path style="fill:#FFFFFF;" d="M416.62,65.721v19.41h-3.605V68.743h-4.103v-3.022H416.62z"/>
		<path style="fill:#FFFFFF;" d="M424.411,84.229c-1.22-0.785-2.182-1.931-2.884-3.438c-0.702-1.506-1.054-3.295-1.054-5.366
			c0-2.07,0.352-3.858,1.054-5.365c0.702-1.506,1.664-2.652,2.884-3.438c1.221-0.786,2.606-1.178,4.159-1.178
			s2.944,0.393,4.174,1.178c1.229,0.786,2.194,1.932,2.898,3.438c0.702,1.507,1.054,3.296,1.054,5.365
			c0,2.071-0.352,3.859-1.054,5.366c-0.703,1.507-1.669,2.653-2.898,3.438c-1.229,0.786-2.621,1.179-4.174,1.179
			S425.632,85.016,424.411,84.229z M431.856,80.556c0.804-1.146,1.206-2.856,1.206-5.13c0-2.273-0.402-3.983-1.206-5.129
			c-0.804-1.146-1.899-1.719-3.286-1.719c-1.368,0-2.454,0.573-3.258,1.719c-0.804,1.146-1.206,2.856-1.206,5.129
			c0,2.274,0.402,3.984,1.206,5.13c0.804,1.146,1.89,1.719,3.258,1.719C429.957,82.275,431.053,81.702,431.856,80.556z"/>
		<path style="fill:#FFFFFF;" d="M446.233,78.781l-2.578,2.44v3.91h-3.467V64.556h3.467v12.422l7.182-6.655h4.159l-6.184,6.212
			l6.766,8.596h-4.215L446.233,78.781z"/>
	</g>
</g>
</svg>
