<?xml version="1.0" encoding="utf-8"?>
<!-- Generator: Adobe Illustrator 27.5.0, SVG Export Plug-In . SVG Version: 6.00 Build 0)  -->
<svg version="1.1" xmlns="http://www.w3.org/2000/svg" xmlns:xlink="http://www.w3.org/1999/xlink" x="0px" y="0px"
	 viewBox="0 0 500 500" style="enable-background:new 0 0 500 500;" xml:space="preserve">
<g id="OBJECTS_1_">
	<path style="fill:#8AFFBC;" d="M422.772,109.521c-30.178-18.413-69.832-7.147-102.185-21.063
		c-20.956-9.013-37.353-28.029-59.278-34.057c-28.834-7.927-58.341,8.803-81.072,28.351c-22.731,19.548-43.578,43.181-71.667,53.083
		c-11.658,4.11-24.271,5.708-35.072,11.78c-17.627,9.908-27.649,30.792-28.611,51.475c-0.962,20.683,6.045,41.099,15.868,59.285
		c10.076,18.654,23.379,36.092,27.964,56.855c4.146,18.778,0.788,38.964,7.301,57.04c10.003,27.768,41.303,42.547,70.033,41.859
		c48.362-1.159,90.01-33.142,139.42-33.665c21.126-0.224,42.91,1.586,62.755-5.675c19.846-7.261,37.333-27.098,33.872-48.535
		c-1.756-10.878-8.555-20.551-9.536-31.525c-0.962-10.765,3.889-21.249,10.421-29.654c6.532-8.405,14.737-15.248,22.022-22.971
		c17.161-18.192,29.337-42.201,30.154-67.624C455.979,149.056,444.158,122.57,422.772,109.521z"/>
	<g>
		<path style="fill:#70D8EF;" d="M400.801,84.498c-2.078-2.801-5.62-3.135-8.936-3.208c-6.56-0.136-13.156,0.072-19.716,0.144
			c-27.414,0.298-54.829,0.994-82.225,2.087c-18.225,0.723-36.468,1.834-54.703,2.638c-4.807,0.416-9.623,0.822-14.439,1.202
			c-13.355,1.066-26.719,2.06-40.074,3.063c-10.626,0.795-26.683-0.181-28.499,13.219c-0.813,6.018-0.109,12.388,0.09,18.433
			c0.208,6.614,0.479,13.228,0.813,19.833c0.642,12.975,1.518,25.933,2.629,38.872c1.075,12.641,1.645,25.716,4.093,38.194
			c1.138,5.792,3.659,11.123,9.253,14.033c4.924,2.557,10.761,3.126,16.246,3.452c27.08,1.635,54.26,2.304,81.385,2.765
			c27.08,0.452,54.169,0.443,81.24-0.027c6.903-0.117,13.798-0.271,20.692-0.452c6.234-0.163,13.355,0.407,19.346-1.563
			c11.746-3.858,11.43-17.674,11.71-27.577c0.75-26.52,1.509-53.031,2.259-79.551c0.352-12.515,1.5-25.273,0.967-37.77
			C402.816,89.612,402.463,86.721,400.801,84.498z"/>
		<g>
			<defs>
				<path id="SVGID_1_" d="M406.665,106.329c-0.09,1.699-0.163,3.388-0.208,5.069c0,0.154-0.009,0.307-0.009,0.461
					c-0.063,2.006-0.118,4.003-0.172,6.009c-0.28,9.749-0.56,19.49-0.84,29.231c-0.054,1.943-0.109,3.876-0.163,5.81
					c-0.018,0.533-0.027,1.075-0.045,1.608c-0.036,1.157-0.063,2.304-0.099,3.461c-0.37,13.219-0.75,26.448-1.129,39.667
					c-0.118,4.382,0.036,9.108-0.063,13.852c-0.009,0.461-0.018,0.922-0.036,1.383c-0.018,0.678-0.045,1.364-0.081,2.042
					c-0.144,2.801-0.425,5.584-0.958,8.277c-0.551,2.819-1.364,5.539-2.584,8.078c-5.268,11.024-17.629,10.933-28.49,11.231
					c-14.81,0.398-29.628,0.669-44.447,0.795c-29.89,0.253-59.789-0.045-89.671-0.913c-14.809-0.434-29.619-1.003-44.42-1.708
					c-10.292-0.488-23.104-0.117-30.938-7.807c-1.925-1.888-3.37-4.12-4.464-6.569c-1.184-2.647-1.961-5.548-2.503-8.53
					c-0.226-1.265-0.416-2.548-0.578-3.84c-0.343-2.882-0.542-5.774-0.741-8.539c0-0.009,0-0.009,0-0.018
					c-0.126-1.906-0.262-3.75-0.443-5.485c-1.355-13.21-2.476-26.439-3.352-39.676c0,0,0,0,0-0.009
					c-0.072-0.94-0.127-1.87-0.19-2.81c-0.063-0.949-0.117-1.898-0.172-2.846c-0.09-1.382-0.172-2.765-0.244-4.156
					c-0.443-7.545-0.795-15.09-1.075-22.644v-0.009c-0.054-1.419-0.109-2.837-0.145-4.265v-0.009
					c-0.045-1.202-0.081-2.403-0.126-3.614c-0.045-1.681-0.09-3.37-0.136-5.051c-0.253-10.147-0.461-21.08,10.997-25.318
					c5.123-1.888,10.798-2.051,16.201-2.449c7.31-0.533,14.62-1.066,21.93-1.59c7.283-0.533,14.557-1.057,21.839-1.563
					c3.614-0.325,7.238-0.614,10.87-0.903c29.61-2.358,59.374-3.443,89.065-4.319c14.855-0.434,29.71-0.759,44.573-0.967
					c7.427-0.099,14.864-0.172,22.291-0.217c5.286-0.036,11.737-0.786,16.129,2.711c3.533,2.81,4.572,7.274,4.834,11.512
					C407.171,96.534,406.9,101.449,406.665,106.329z"/>
			</defs>
			<clipPath id="SVGID_00000012440443958033642610000014393845772547867537_">
				<use xlink:href="#SVGID_1_"  style="overflow:visible;"/>
			</clipPath>
			<g style="clip-path:url(#SVGID_00000012440443958033642610000014393845772547867537_);">
				<path style="fill:#FFFFFF;" d="M341.95,134.694c-14.781,2.068-29.748,2.81-44.661,2.213c6.381-1.59,13.327-3.932,19.708-5.522
					c-0.077-1.569,0.754-3.151,2.09-3.979s4.014-1.341,5.385-0.572c0.059-1.588,0.94-3.123,2.281-3.974
					c1.341-0.852,3.949-1.216,5.411-0.593c1.569-3.12,4.871-5.295,8.357-5.503c3.486-0.208,7.024,1.558,8.953,4.469
					c1.474-1.012,3.45-0.583,4.972,0.354c1.523,0.937,2.41,2.812,2.17,4.584c1.414-0.987,3.548-0.76,5.095,0.001
					c1.547,0.761,2.623,2.401,2.704,4.123c8.171,0.168,15.768,0.784,23.926,1.27c-16.548,3.433-32.967,5.378-49.867,5.4
					C339.398,136.083,341.023,135.576,341.95,134.694z"/>
				<g>
					<path style="fill:#61AA46;" d="M403.936,211.496c-0.009,0.461-0.018,0.922-0.036,1.383c-0.018,0.678-0.045,1.364-0.081,2.042
						c-0.144,2.801-0.425,5.584-0.958,8.277c-0.551,2.819-1.364,5.539-2.584,8.078c-5.268,11.024-17.629,10.933-28.49,11.231
						c-14.81,0.398-29.628,0.669-44.447,0.795c-29.89,0.253-59.789-0.045-89.671-0.913c-14.809-0.434-29.619-1.003-44.42-1.708
						c-10.292-0.488-23.104-0.117-30.938-7.807c-1.925-1.888-3.37-4.12-4.464-6.569c-1.184-2.647-1.961-5.548-2.503-8.53
						c-0.226-1.265-0.416-2.548-0.578-3.84c1.13,0.018,2.268,0.036,3.398,0.054c4.364,0.072,8.737,0.136,13.102,0.19
						c-0.38-0.587-0.732-1.211-0.931-1.861c-0.118-0.37,0.334-0.596,0.605-0.37c0.732,0.596,1.283,1.464,1.807,2.25
						c0.199,0,0.407,0,0.605,0.009c-0.199-0.425-0.389-0.858-0.579-1.292c-0.217-0.479,0.398-0.876,0.705-0.434
						c0.343,0.497,0.705,0.976,1.012,1.482c0.054,0.081,0.108,0.172,0.163,0.253c5.015,0.063,10.039,0.127,15.054,0.172
						c-0.154-0.379-0.352-0.741-0.624-1.048c-0.352-0.407,0.163-0.94,0.578-0.596c0.397,0.325,1.012,0.985,1.274,1.654
						c0.768,0.009,1.545,0.018,2.322,0.027c-0.307-0.434-0.587-0.876-0.75-1.364c-0.108-0.325,0.298-0.678,0.605-0.479
						c0.226,0.154,0.434,0.343,0.641,0.533c-0.009-0.063-0.009-0.136-0.009-0.199c0-0.533,0.777-0.813,1.039-0.307
						c0.307,0.614,0.641,1.22,0.958,1.834h0.253c0.416-0.678,0.876-1.31,1.464-1.925c0.145-0.145,0.461-0.1,0.506,0.126
						c0.099,0.587,0.126,1.202,0.117,1.807c0.425,0.009,0.84,0.009,1.265,0.009c0.316-0.596,0.795-1.093,1.355-1.464
						c0.479-0.316,0.876,0.398,0.452,0.732c-0.262,0.208-0.488,0.461-0.66,0.741c0.885,0.009,1.78,0.009,2.666,0.018
						c8.223,0.054,16.445,0.09,24.668,0.09c-0.316-0.325-0.642-0.642-0.967-0.976c-0.262-0.262-0.018-0.813,0.38-0.678
						c0.461,0.163,0.867,0.416,1.247,0.705c-0.009-0.09-0.027-0.19-0.036-0.28c-0.072-0.524,0.705-0.84,1.03-0.452
						c0.47,0.533,0.885,1.093,1.256,1.69h0.262c0.38-0.669,0.777-1.319,1.211-1.961c0.235-0.352,0.922-0.154,0.741,0.298
						c-0.226,0.56-0.461,1.111-0.714,1.663h1.256c0.145-0.316,0.316-0.615,0.533-0.886c0.325-0.416,0.895-1.147,1.5-0.958
						c0.19,0.054,0.352,0.226,0.343,0.443c-0.009,0.542-0.596,0.822-0.94,1.193c-0.054,0.063-0.108,0.136-0.163,0.199
						c5.141,0,10.274-0.009,15.415-0.027c6.262-0.018,12.524-0.054,18.785-0.108c-0.379-0.578-0.795-1.13-1.211-1.699
						c-0.244-0.334,0.226-0.822,0.569-0.587c0.759,0.524,1.346,1.184,1.843,1.934c0.298-0.696,0.614-1.373,1.021-2.024
						c0.181-0.28,0.696-0.289,0.777,0.09c0.145,0.741,0.298,1.482,0.452,2.223c0.741-0.876,1.617-1.554,2.674-2.123
						c0.479-0.253,1.102,0.253,0.786,0.759c-0.271,0.452-0.551,0.912-0.849,1.364c15.225-0.154,30.45-0.379,45.676-0.696
						c6.921-0.136,13.843-0.298,20.764-0.479c0.551-0.009,1.093-0.018,1.645-0.036c-0.262-0.298-0.542-0.578-0.849-0.813
						c-0.253-0.199-0.524-0.37-0.813-0.506c-0.352-0.163-0.117-0.741,0.253-0.632c0.416,0.126,0.822,0.271,1.202,0.461
						c0.452,0.217,0.876,0.488,1.256,0.849c0.163,0.154,0.361,0.362,0.551,0.605c0.244-0.009,0.488-0.018,0.741-0.027
						c-0.208-0.38-0.407-0.768-0.461-1.202c-0.054-0.352,0.398-0.443,0.614-0.271c0.398,0.298,0.651,0.768,0.904,1.184
						c0.054,0.09,0.108,0.172,0.163,0.253c0.66-0.018,1.319-0.036,1.979-0.054c0.117-0.407,0.28-0.795,0.533-1.13
						c0.298-0.398,0.75-0.922,1.292-0.822c0.181,0.036,0.289,0.253,0.244,0.425c-0.108,0.389-0.551,0.615-0.804,0.913
						c-0.145,0.181-0.271,0.38-0.361,0.587c0.361-0.009,0.714-0.027,1.075-0.036c0.226-0.461,0.605-0.858,0.994-1.184
						c0.524-0.452,1.093-0.858,1.807-0.759c0.253,0.036,0.407,0.407,0.262,0.614c-0.352,0.488-0.876,0.696-1.337,1.057
						c-0.09,0.072-0.163,0.154-0.253,0.226c16.662-0.461,33.324-0.994,49.986-1.645C402.725,211.234,403.34,211.315,403.936,211.496
						z"/>
					<path style="fill:#EAB259;" d="M402.861,223.197c-0.551,2.819-1.364,5.539-2.584,8.078
						c-5.268,11.024-17.629,10.933-28.49,11.231c-14.81,0.398-29.628,0.669-44.447,0.795c-29.89,0.253-59.789-0.045-89.671-0.913
						c-14.809-0.434-29.619-1.003-44.42-1.708c-10.292-0.488-23.104-0.117-30.938-7.807c-1.925-1.888-3.37-4.12-4.464-6.569
						c6.352-1.283,12.804-2.06,19.283-2.331c-0.217,0.614-0.66,1.672-0.876,2.286c1.879-0.316,3.695-0.94,5.376-1.834
						c0,0.985,0.262,1.979,0.768,2.828c0.461-0.714,0.922-1.428,1.391-2.141c0.876,0.777,1.753,1.563,2.63,2.34
						c0.135-0.876,0.027-1.798-0.307-2.629c1.193,0.867,2.385,1.735,3.578,2.593c-0.334-0.786-0.678-1.581-1.012-2.376
						c11.277-0.271,22.092,0.506,33.152,2.693c1.048,0.199,2.123,1.075,3.045,1.608c-0.1-0.443-0.208-0.904-0.118-1.346
						c0.09-0.443,0.434-0.876,0.895-0.904c0.325-0.018,0.633,0.172,0.922,0.352c0.913,0.596,1.834,1.184,2.756,1.78
						c0.009-0.795,0.009-1.59,0.009-2.394c1.012,1.238,2.286,2.241,3.723,2.927c0.009-0.913,0.009-1.825,0.018-2.738
						c3.47-0.199,6.533-0.054,9.975,0.407c0.542,0.678,1.364,1.554,1.898,2.232c0.632-0.705,1.256-1.41,1.888-2.114
						c0.307,0.831,0.614,1.663,0.931,2.494c0.479-0.569,0.967-1.13,1.455-1.69c-0.38,0.551,0.388,1.292,1.048,1.175
						c0.66-0.118,1.111-0.705,1.536-1.229c0.425-0.515,0.985-1.048,1.653-1.003c17.168,1.075,33.758-0.307,50.962-0.389
						c0.307,1.075,0.687,1.87,1.003,2.946c0.533-1.265,1.455-2.774,2.819-2.593c1.039,0.136,1.654,1.184,2.123,2.105
						c0.09-1.048,0.416-2.078,0.949-2.982c1.175,1.139,2.349,2.277,3.524,3.416c-0.054-1.048-0.108-2.096-0.163-3.135
						c1.41,1.364,3.09,2.449,4.906,3.163c-0.497-0.994-0.714-2.123-0.632-3.235c12.099-0.687,24.469-1.012,36.568-0.298
						c-0.325-0.967-0.642-1.925-0.967-2.882c2.431,1.346,4.861,2.684,7.301,4.021c-0.009-1.211-0.018-2.431-0.027-3.641
						c1.536,1.148,3.081,2.304,4.617,3.452c0.732-0.958,1.419-1.952,2.151-2.919c0.804,1.03,1.617,2.051,2.422,3.081
						c0.09-1.31,1.12-2.503,2.412-2.774c-0.172,0.876-0.154,2.06,0.705,2.295c0.597,0.172,1.184-0.325,1.536-0.84
						c0.352-0.515,0.642-1.13,1.202-1.41C384.572,220.712,393.879,222.429,402.861,223.197z"/>
				</g>
				<g>
					<path style="fill:#D18C47;" d="M249.75,217.369c-14.222,0.533-28.752,0.759-43.272,0.678
						c-13.156-0.072-26.294-0.389-39.179-0.958c-2.548-0.117-5.295-0.289-7.238-1.383c-0.822-0.47-1.428-1.066-1.897-1.717
						c-0.47-0.632-0.822-1.328-1.148-1.997c-1.057-2.187-2.051-4.382-2.991-6.596c0-0.009,0-0.009,0-0.018
						c-0.126-1.906-0.262-3.75-0.443-5.485c-1.355-13.21-2.476-26.439-3.352-39.676c0,0,0,0,0-0.009
						c-0.072-0.94-0.127-1.87-0.19-2.81c-0.063-0.949-0.117-1.898-0.172-2.846c-0.09-1.382-0.172-2.765-0.244-4.156
						c-0.443-7.545-0.795-15.09-1.075-22.644v-0.009c0.226-0.352,0.452-0.696,0.696-1.039c0.831-1.193,1.798-2.358,2.964-3.407
						c0.976-0.885,2.096-1.699,3.388-2.395c2.837-1.509,9.162-1.897,12.542-0.994c1.175,0.316,2.385,0.65,3.551,1.03
						c3.027,0.958,5.819,2.205,7.283,4.147c1.003,1.337,1.247,2.855,1.473,4.337c1.021,6.578,2.033,13.156,3.045,19.743
						c5.277,1.464,10.274,3.958,12.731,7.364c3.949,5.476-1.057,12.162,1.635,17.963c6.705,1.401,10.653,6.894,8.439,11.286
						c2.196-0.253,4.445-0.506,6.641-0.253c2.196,0.262,4.364,1.148,5.105,2.53c0.741,1.401-0.081,2.937,0.199,4.409
						c0.407,2.124,3.036,3.768,5.801,4.879c2.774,1.12,5.873,1.925,8.304,3.352c2.421,1.419,4.057,3.759,2.756,5.72
						c4.328-0.407,8.927,0.705,11.819,2.864c1.943,1.455,3.081,3.343,3.262,5.268C250.274,215.499,250.139,216.456,249.75,217.369z"
						/>
					<path style="fill:#D18C47;" d="M406.448,111.858c-0.063,2.006-0.118,4.003-0.172,6.009c-0.28,9.749-0.56,19.49-0.84,29.231
						c-0.054,1.943-0.109,3.876-0.163,5.81c-0.018,0.533-0.027,1.075-0.045,1.608c-0.036,1.157-0.063,2.304-0.099,3.461
						c-0.37,13.219-0.75,26.448-1.129,39.667c-0.118,4.382,0.036,9.108-0.063,13.852c-0.009,0.461-0.018,0.922-0.036,1.383
						c-0.018,0.678-0.045,1.364-0.081,2.042c-14.096,2.53-28.725,1.509-43.137,1.645c-13.779,0.118-26.863,0.434-40.589,1.608
						c-0.226-1.527,0.036-3.045,0.615-4.491c0.678-1.735,1.825-3.352,3.135-4.735c2.404-2.539,5.367-4.545,7.843-7.03
						c2.476-2.476,4.491-5.656,4.292-9.054c-0.145-2.422-1.4-4.771-1.066-7.174c0.506-3.587,3.894-6.099,7.256-7.861
						c-0.416-3.054-0.831-6.135-0.524-9.199c0.298-3.063,1.392-6.153,3.632-8.394c2.168-2.178,5.223-3.849,7.608-5.828
						c0.054-5.991,0.388-12.298,0.443-18.297c2.087-2.25,4.888-4.807,6.415-7.427c2.638-4.509,4.581-9.37,5.774-14.394
						c0.253-1.057,0.479-2.123,0.66-3.19c10.924-1.437,23.538-1.265,34.526-0.316C402.635,110.955,404.677,111.172,406.448,111.858z
						"/>
					<path style="fill:#EAB259;" d="M405.273,152.908c-0.018,0.533-0.027,1.075-0.045,1.608c-0.036,1.157-0.063,2.304-0.099,3.461
						c-0.37,13.219-0.75,26.448-1.129,39.667c-0.118,4.382,0.036,9.108-0.063,13.852c-0.009,0.461-0.018,0.922-0.036,1.383
						c-21.839,1.066-43.1,1.988-64.985,3.072c0.849-0.922,1.708-1.834,2.557-2.747c0.271-0.28,0.533-0.569,0.795-0.849
						c0.217-0.226,0.425-0.452,0.642-0.678c2.846-3.063,5.674-6.153,8.34-9.379c0.316-6.659,1.003-13.31,2.051-19.897
						c0.28-1.726,0.614-3.533,1.69-4.906c2.168-2.747,7.915-2.9,9.216-6.144c0.895-2.223,1.355-4.653,1.328-7.048
						c2.105-1.979,4.184-3.985,6.226-6.027c2.042-2.042,4.057-4.111,6.036-6.217c4.202-4.464,13.662-2.268,19.77-1.843
						c2.629,0.181,5.395,0.669,7.391,2.394C405.065,152.709,405.174,152.799,405.273,152.908z"/>
					<path style="fill:#EAB259;" d="M208.574,220.288c-17.936-0.895-35.465-1.663-53.23-2.512c-0.226-1.265-0.416-2.548-0.578-3.84
						c-0.343-2.882-0.542-5.774-0.741-8.539c0-0.009,0-0.009,0-0.018c-0.126-1.906-0.262-3.75-0.443-5.485
						c-1.355-13.21-2.476-26.439-3.352-39.676c0,0,0,0,0-0.009c-0.072-0.94-0.127-1.87-0.19-2.81
						c-0.063-0.949-0.117-1.898-0.172-2.846h0.054c6.108-0.425,15.578-2.62,19.77,1.843c1.979,2.105,3.994,4.184,6.045,6.226
						c2.042,2.042,4.111,4.048,6.217,6.018c-0.027,2.395,0.434,4.825,1.328,7.048c1.31,3.244,7.048,3.397,9.216,6.144
						c1.084,1.374,1.419,3.181,1.69,4.906c1.048,6.587,1.735,13.237,2.051,19.897c2.223,2.693,4.554,5.286,6.921,7.852
						c1.102,1.193,2.214,2.376,3.316,3.56C207.183,218.796,207.878,219.538,208.574,220.288z"/>
					<path style="fill:#61AA46;" d="M405.436,147.098c-0.054,1.943-0.109,3.876-0.163,5.81c-0.018,0.533-0.027,1.075-0.045,1.608
						c-0.036,1.157-0.063,2.304-0.099,3.461c-2.304-1.193-4.473-2.476-6.795-3.813c-1.03,1.645-2.051,3.289-3.081,4.924
						c-0.759-1.364-1.075-3.28-1.834-4.653c-1.563,1.346-3.126,2.702-4.69,4.048c-0.425-1.301-1.428-3.081-1.843-4.373
						c-1.654,1.003-3.298,2.006-4.943,3.009c-0.271,0.163-0.56,0.334-0.886,0.316c-0.813-0.036-1.048-1.166-0.849-1.961
						c0.19-0.795,1.102-2.169,0.632-2.837c-3.027,1.925-6.054,3.858-9.081,5.783c0-0.045-0.009-0.099,0-0.145
						c-0.063-1.97,0.687-3.958,2.033-5.394c-1.663,0.497-3.388,0.795-5.114,0.867c2.846-1.581,5.973-3.199,8.819-4.771
						c-1.635-0.542-3.271-1.075-4.906-1.608c4.798-0.551,9.849-0.75,14.674-0.587c-1.084-0.696-1.988-1.671-2.575-2.819
						c2.376,0.931,4.915,1.69,7.301,2.611c-0.28-1.075-0.56-2.151-0.84-3.235c1.428,0.967,3.361,1.708,4.789,2.674
						C399.138,146.014,402.328,146.375,405.436,147.098z"/>
					<path style="fill:#61AA46;" d="M173.705,157.218c1.346,1.437,2.087,3.434,2.033,5.403c0.009,0.045,0,0.09,0,0.136
						c-3.027-1.925-6.054-3.858-9.081-5.783c-0.479,0.669,0.434,2.042,0.623,2.837c0.199,0.795-0.036,1.925-0.849,1.961
						c-0.316,0.018-0.615-0.154-0.885-0.316l-4.934-3.009c-0.425,1.292-1.428,3.072-1.843,4.373
						c-1.572-1.346-3.135-2.702-4.699-4.048c-0.759,1.374-1.075,3.289-1.825,4.653c-0.669-1.066-1.346-2.132-2.015-3.208
						c0,0,0,0,0-0.009c-0.072-0.94-0.127-1.87-0.19-2.81c-0.063-0.949-0.117-1.898-0.172-2.846c-0.09-1.382-0.172-2.765-0.244-4.156
						c0.641-0.027,1.283-0.045,1.925-0.045c1.428-0.967,3.37-1.708,4.789-2.674c-0.28,1.084-0.56,2.16-0.84,3.235
						c2.385-0.922,4.924-1.681,7.31-2.611c-0.596,1.148-1.5,2.123-2.584,2.819c4.825-0.163,9.885,0.036,14.674,0.587
						c-1.635,0.533-3.271,1.066-4.906,1.608c2.855,1.572,5.973,3.19,8.828,4.771C177.085,158.013,175.359,157.715,173.705,157.218z"
						/>
					<path style="fill:#61AA46;" d="M406.665,106.329c-0.09,1.699-0.163,3.388-0.208,5.069c0,0.154-0.009,0.307-0.009,0.461
						c-0.063,2.006-0.118,4.003-0.172,6.009c-1.708-0.949-3.452-1.852-5.214-2.693c-0.551-0.271-1.139-0.533-1.753-0.506
						c-0.831,0.036-1.545,0.623-1.943,1.319c-0.389,0.696-0.515,1.491-0.633,2.268c-1.057-1.364-1.771-2.937-2.828-4.292
						c-1.617,2.033-3.235,4.066-4.852,6.099c-0.172,0.217-0.416,0.47-0.705,0.425c-0.289-0.045-0.434-0.362-0.524-0.624
						c-0.678-2.015-1.193-4.5-1.87-6.515c-2.042,1.925-4.093,3.84-6.144,5.765c-0.371-1.97-0.578-3.958-0.596-5.954
						c-2.648,1.157-5.295,2.322-7.933,3.488c0.334-1.572,0-3.208,0.343-4.78c-2.006,0.867-4.048,1.681-6.108,2.422
						c-1.129,0.415-2.259,0.804-3.397,1.175c0.768-1.464,1.166-3.145,1.934-4.608c-2.801,0.443-5.602,0.877-8.403,1.319
						c2.602-2.34,6.144-3.687,9.686-4.31l-3.009-3.226c2.367,0.569,4.961,1.175,7.337,1.753c0.732-0.967,1.464-1.925,2.196-2.882
						c0.596,0.705,1.455,1.337,1.997,2.096c-0.036-0.542,0.316-1.166,0.867-1.41c0.858-0.37,1.88-0.063,2.656,0.434
						c1.238,0.786,2.413,2.132,3.867,1.825c-0.533-0.452-0.885-1.102-0.958-1.78c2.367,0.804,5.331,1.617,7.843,1.536
						c-0.723-1.148-1.437-2.304-2.16-3.452c2.358,0.569,5.024,1.373,6.93,2.801c4.4-0.307,8.837-0.217,13.228,0.271
						C406.312,105.994,406.493,106.157,406.665,106.329z"/>
					<path style="fill:#61AA46;" d="M172.567,126.379c-3.569-1.003-6.967-2.277-10.084-3.804c-1.184,2.241-3.235,4.283-5.918,5.873
						c-1.066-1.852-2.539-3.587-4.355-5.15c-0.831-0.732-1.726-1.419-2.693-2.06c-0.181,0.777-0.569,1.536-1.111,2.232
						c-0.045-1.202-0.081-2.403-0.126-3.614c0.723-1.075,1.662-2.042,2.946-2.756c4.527-2.494,9.596-4.572,15.017-6.126
						c-1.066,1.554-2.123,3.099-3.181,4.653c6.117-1.021,12.497-1.328,18.776-0.895c-2.738,1.265-5.62,2.403-8.602,3.397
						c4.165,1.635,7.229,2.864,11.828,3.876c-4.455-0.361-8.918-0.714-13.373-1.066l-2.358-0.19
						C171.383,122.286,172.558,124.328,172.567,126.379z"/>
				</g>
				<path style="fill:#FFFFFF;" d="M205.98,163.32c-14.781,2.068-29.748,2.81-44.661,2.213c6.381-1.59,13.327-3.932,19.708-5.522
					c-0.077-1.569,0.754-3.151,2.089-3.979c1.336-0.827,4.015-1.341,5.385-0.572c0.059-1.588,0.94-3.122,2.281-3.974
					c1.341-0.852,3.949-1.216,5.411-0.594c1.568-3.12,4.871-5.295,8.357-5.503c3.486-0.208,7.024,1.558,8.952,4.469
					c1.474-1.012,3.45-0.583,4.972,0.355c1.523,0.937,2.41,2.812,2.17,4.583c1.414-0.987,3.548-0.76,5.094,0.001
					c1.547,0.761,2.623,2.4,2.704,4.123c8.171,0.168,15.768,0.784,23.926,1.27c-16.548,3.433-32.967,5.378-49.867,5.399
					C203.428,164.708,205.053,164.201,205.98,163.32z"/>
				<g>
					<path style="fill:#5F7199;" d="M331.262,194.77c-0.488,0.696-1.364,1.238-2.241,1.256c-0.045,0.009-0.081,0.009-0.126,0.009
						c-0.226,1.256-1.283,2.566-2.575,3.054c-1.726,0.65-6.054,1.247-8.006-0.181c-0.497-0.108-0.994-0.316-1.473-0.551
						c-0.036,0.542-0.145,1.102-0.298,1.581c-0.099,0.316-0.334,0.533-0.633,0.596c-0.28,0.371-0.651,0.651-1.093,0.877
						c1.5,1.328,2.72,2.801,3.813,4.545c0.904,1.446,2.16,3.352,2.286,5.159c0.289,0.714,0.461,1.491,0.488,2.259
						c0.009,0.063,0.009,0.117,0.009,0.181c0.154-0.117,0.307-0.226,0.452-0.343c0.705-0.533,1.401-1.202,2.187-1.59
						c0.633-0.307,1.265,0.307,1.003,0.876c0,0.036,0.009,0.072,0,0.109c-0.524,2.304-1.654,4.816-3.515,6.379
						c-1.446,1.22-2.792-0.19-3.569-1.563c0-0.009-0.009-0.009-0.009-0.018h-0.226c-4.491-0.244-4.87-5.774-6.479-9.09
						c-0.027,0.036-0.045,0.072-0.072,0.099c-1.075,1.5-2.575,2.702-4.364,3.406c-3.488,1.364-8.792,0.75-10.96-2.611
						c-0.09-0.145-0.117-0.289-0.108-0.416c0-0.009,0-0.018-0.009-0.018l-0.036,0.036c-0.922,0.931-2.033,1.717-2.918,2.72
						c-0.506,0.56-1.419,0.126-1.455-0.578c-0.108-1.988,0.533-4.888,2.051-6.379c0.027-0.145,0.099-0.271,0.244-0.37
						c0.479-0.37,1.093-0.009,1.581,0.181c0.47,0.19,0.994,0.343,1.428,0.596c0.027,0.009,0.054,0.027,0.081,0.045
						c0.063-0.045,0.117-0.09,0.19-0.126c1.509-0.867,4.265-0.858,6.054,0.126c0.181-0.334,0.452-0.642,0.759-0.922
						c1.102-0.994,1.536-2.069,1.888-3.434c0.027-0.099,0.054-0.208,0.081-0.316c0-0.018,0.018-0.036,0.018-0.054
						c-0.09,0.036-0.181,0.063-0.271,0.1c-0.009,0-0.009,0.009-0.018,0.009c-3.235,1.211-6.84,1.563-10.292,1.039
						c-3.343-0.497-6.542-1.798-9.144-3.913c-0.018-0.018-0.045-0.018-0.072-0.027c-0.316-0.145-0.262-0.732,0.09-0.795
						c4.635-0.75,6.967-5.295,11.367-6.822c3.759-1.301,7.997-1.4,11.909-0.849c-0.117-2.259-2.684-3.623-2.313-6.09
						c0.09-0.596,0.569-1.428,0.506-1.988c-0.027-0.226-0.506-0.895-0.551-1.139c-0.045-0.19-0.054-0.352-0.045-0.497
						c-0.163-0.271-0.208-0.705-0.009-0.976c2.503-3.551,16.563-1.057,14.295,2.557c0.018,0.072,0.018,0.154,0,0.226
						c-0.009,0.063-0.027,0.126-0.063,0.181c0.732,1.41,0.867,3.045,0.696,4.608c-0.135,1.193-0.389,2.873-1.391,3.66v0.009
						c0.09,0.569-0.045,1.148-0.47,1.59c-0.271,0.271-0.614,0.461-0.976,0.551c0.081,0.045,0.154,0.09,0.235,0.136
						c1.328,0.75,2.72,1.789,3.705,2.864c0.37-0.461,0.922-0.84,1.364-1.066c0.822-0.434,1.871-0.66,2.774-0.38
						c0.045,0.009,0.09,0.027,0.135,0.045c-0.135-1.066,0.343-2.223,1.31-2.747c1.021-0.542,2.223-0.208,2.855,0.75
						C332.012,192.367,331.948,193.768,331.262,194.77z"/>
					<path style="fill:#304B6B;" d="M311.184,208.415c-1.075,1.5-2.575,2.702-4.364,3.406c-3.488,1.364-8.792,0.75-10.96-2.611
						c-0.09-0.145-0.117-0.289-0.108-0.416c0-0.009,0-0.018-0.009-0.018c-0.931,0.949-2.06,1.744-2.955,2.756
						c-0.506,0.56-1.419,0.126-1.455-0.578c-0.108-1.988,0.533-4.888,2.051-6.379c0.027-0.145,0.099-0.271,0.244-0.37
						c0.479-0.37,1.093-0.009,1.581,0.181c0.497,0.199,1.057,0.361,1.509,0.642c0.063-0.045,0.117-0.09,0.19-0.126
						c1.509-0.867,4.265-0.858,6.054,0.126c0.181-0.334,0.452-0.642,0.759-0.922c1.102-0.994,1.536-2.069,1.888-3.434
						c0.081,0.154,0.126,0.334,0.19,0.497c0.379,1.003,1.346,1.635,2.159,2.322c0.876,0.75,1.626,1.653,2.223,2.656
						C310.606,206.86,310.94,207.619,311.184,208.415z"/>
					<path style="fill:#304B6B;" d="M321.096,181.316c0.072-0.126,0.09-0.271,0.063-0.407c2.268-3.614-11.792-6.108-14.295-2.557
						c-0.199,0.271-0.154,0.705,0.009,0.976c-0.009,0.145,0,0.307,0.045,0.497c0.045,0.244,0.524,0.913,0.551,1.139
						c0.063,0.56-0.416,1.391-0.506,1.988c-0.37,2.467,2.196,3.831,2.313,6.09c-3.913-0.551-8.15-0.452-11.909,0.849
						c-4.4,1.527-6.732,6.072-11.367,6.822c-0.353,0.063-0.407,0.65-0.09,0.795c0.027,0.009,0.054,0.009,0.072,0.027
						c5.295,4.301,13.066,5.259,19.436,2.873c0.66-0.389,1.301-0.804,1.934-1.229c1.892-1.266,3.719-2.629,5.585-3.933
						c0.283,0.493,0.678,0.946,1.031,1.313c0.76,0.79,1.55,1.391,2.519,1.898c0.222,0.116,0.392-0.199,0.188-0.335
						c-0.834-0.556-1.646-1.294-2.22-2.117c-0.278-0.398-0.5-0.86-0.749-1.297c0.788-0.538,1.584-1.062,2.401-1.555
						c0.949-0.569,2.006-1.111,3.081-1.283c-0.081-0.045-0.154-0.09-0.235-0.136c0.362-0.09,0.705-0.28,0.976-0.551
						c0.425-0.443,0.56-1.03,0.47-1.599c1.003-0.786,1.256-2.467,1.391-3.66C321.964,184.361,321.828,182.726,321.096,181.316z"/>
					<path style="fill:#FCBE8B;" d="M321.792,185.924c-0.135,1.193-0.389,2.873-1.391,3.66c-0.235-0.045-0.452-0.135-0.66-0.244
						c-0.705-0.371-1.256-0.985-1.735-1.627c-1.364-1.834-2.295-4.111-2.566-6.388c1.816-0.65,3.849-0.723,5.72-0.19
						c-0.009,0.063-0.027,0.126-0.063,0.181C321.828,182.726,321.964,184.361,321.792,185.924z"/>
					<path style="fill:#FCBE8B;" d="M331.262,194.77c-0.488,0.696-1.364,1.238-2.241,1.256c-0.117-0.145-0.226-0.298-0.334-0.443
						c-0.551-0.759-1.102-1.527-1.654-2.295c0.045,0.009,0.09,0.027,0.135,0.045c-0.135-1.066,0.343-2.223,1.31-2.747
						c1.021-0.542,2.223-0.208,2.855,0.75C332.012,192.367,331.948,193.768,331.262,194.77z"/>
					<path style="fill:#1C2E4C;" d="M325.054,212.499c0,0.036,0.009,0.072,0,0.109c-0.524,2.304-1.654,4.816-3.515,6.379
						c-1.446,1.22-2.792-0.19-3.569-1.563c0.172-0.235,0.371-0.461,0.569-0.669c0.958-1.048,2.223-2.087,2.864-3.379
						c0.009,0.063,0.009,0.117,0.009,0.181c0.154-0.117,0.307-0.226,0.452-0.343c0.705-0.533,1.401-1.202,2.187-1.59
						C324.684,211.315,325.316,211.93,325.054,212.499z"/>
					<path style="fill:#1C2E4C;" d="M296.637,204.981c-0.135,0.551-0.425,1.057-0.587,1.59c-0.217,0.723-0.298,1.491-0.343,2.241
						c-0.922,0.931-2.033,1.717-2.918,2.72c-0.506,0.56-1.419,0.126-1.455-0.578c-0.108-1.988,0.533-4.888,2.051-6.379
						c0.027-0.145,0.099-0.271,0.244-0.37c0.479-0.37,1.093-0.009,1.581,0.181C295.679,204.574,296.203,204.728,296.637,204.981z"/>
					<path style="fill:#304B6B;" d="M314.846,201.277c-0.892-0.576-2.009-0.782-3.025-1.061c-1.161-0.319-2.33-0.587-3.501-0.863
						c-0.24-0.057-0.313,0.279-0.093,0.362c1.131,0.428,2.255,0.864,3.402,1.252c0.999,0.338,2.029,0.784,3.092,0.806
						C315,201.779,315.054,201.411,314.846,201.277z"/>
				</g>
				<path style="fill:#FF2929;" d="M202.188,96.746c-6.81-1.598-14.197-0.59-20.33,2.773c0.162,3.743,1,8.378,3.362,11.285
					c2.363,2.907,5.678,5.026,9.309,5.95C200.138,111.702,203.341,104.206,202.188,96.746z"/>
				<path style="fill:#31A877;" d="M211.032,106.997c-0.225-1.649-0.389-3.307-0.492-4.969c-0.165-2.66,1.818-4.975,4.472-5.212
					c25.252-2.262,50.072-4.367,75.28-6.613c3.853-0.343,6.594,3.705,4.802,7.133c-0.728,1.392-1.475,2.77-2.223,4.113
					c-0.723,1.298-1.987,2.202-3.451,2.454c-23.81,4.11-49.216,6.847-73.434,7.383C213.484,111.343,211.37,109.478,211.032,106.997z
					"/>
				<path style="fill:#FF2929;" d="M353.693,97.021c2.085-0.92,3.945-2.344,5.377-4.116c1.072-1.326,1.888-3.305,0.845-4.654
					c-0.666-0.861-1.915-1.112-2.967-0.83c-1.052,0.282-1.931,1.004-2.672,1.801c-0.759-0.889-2.151-1.519-3.253-1.907
					c-1.102-0.389-2.428-0.29-3.312,0.475c-1.016,0.879-1.22,2.444-0.778,3.712c0.442,1.268,1.414,2.28,2.458,3.125
					C350.436,95.472,352.723,96.092,353.693,97.021z"/>
				<path style="fill:#FF2929;" d="M371.692,96.153c2.085-0.92,3.945-2.344,5.377-4.116c1.072-1.326,1.888-3.305,0.845-4.654
					c-0.666-0.861-1.915-1.112-2.967-0.83c-1.052,0.282-1.931,1.004-2.672,1.801c-0.759-0.889-2.15-1.519-3.253-1.907
					c-1.102-0.389-2.428-0.29-3.312,0.475c-1.016,0.879-1.22,2.444-0.778,3.712c0.442,1.268,1.414,2.281,2.458,3.125
					C368.435,94.605,370.722,95.225,371.692,96.153z"/>
				<path style="fill:#FF2929;" d="M390.125,95.72c2.085-0.92,3.945-2.344,5.377-4.116c1.072-1.326,1.888-3.305,0.845-4.654
					c-0.666-0.861-1.915-1.112-2.967-0.83c-1.052,0.282-1.931,1.005-2.672,1.801c-0.759-0.889-2.15-1.519-3.253-1.907
					c-1.102-0.389-2.428-0.29-3.312,0.475c-1.016,0.879-1.22,2.444-0.778,3.713c0.442,1.268,1.414,2.281,2.458,3.125
					C386.868,94.171,389.155,94.791,390.125,95.72z"/>
				<path style="fill:#2CF21C;" d="M268.891,95.263c-9.268,0.45-18.513,1.521-27.771,2.146c-4.481,0.302-8.962,0.7-13.437,1.093
					c-4.215,0.37-8.411,0.503-12.247,2.39c-2.457,1.208-1.491,4.842,0.822,5.508c4.311,1.241,8.964,0.373,13.362-0.05
					c4.18-0.402,8.365-0.763,12.537-1.238c8.939-1.018,17.943-1.552,26.864-2.714C273.459,101.821,273.583,95.035,268.891,95.263z"
					/>
				<path style="fill:#2CF21C;" d="M282.397,95.081c-0.766-0.739-2.139-1.211-3.177-0.778c-0.665,0.277-1.193,0.592-1.769,1.001
					c-0.891,0.632-1.396,1.568-1.225,2.681c0.073,0.479,0.245,0.874,0.548,1.252c0.391,0.488,0.818,0.705,1.403,0.931
					c0.373,0.144,0.76,0.344,1.157,0.402c1.141,0.169,2.33,0.03,3.147-0.893c0.572-0.646,0.926-1.435,0.91-2.315
					C283.376,96.529,282.997,95.66,282.397,95.081z"/>
				<path style="fill:#FCA71F;" d="M196.147,102.323c-0.641-1.068-1.757-1.866-2.962-2.17c-0.455-0.115-0.983-0.168-1.456-0.148
					c-1.449,0.062-2.587,0.791-3.339,2.01c-0.469,0.76-0.61,2.001-0.32,2.846c0.008,0.023,0.02,0.041,0.028,0.063
					c-0.002,0.088-0.011,0.175-0.007,0.264c0.12,2.8,3.076,4.679,5.691,3.794C196.509,108.06,197.617,104.773,196.147,102.323z"/>
			</g>
		</g>
		<path style="fill:#7E9CBC;" d="M393.963,72.315c1.61-1.166,1.413-4.003-0.564-4.724c-1.216-0.444-2.094,0.225-3.032,0.741
			c-0.533,0.578-0.853,1.287-0.698,2.189C390.014,72.528,392.311,73.511,393.963,72.315z"/>
		<path style="fill:#7E9CBC;" d="M362.266,72.315c1.61-1.166,1.413-4.003-0.564-4.724c-1.216-0.444-2.094,0.225-3.032,0.741
			c-0.533,0.578-0.853,1.287-0.698,2.189C358.316,72.528,360.614,73.511,362.266,72.315z"/>
		<path style="fill:#AEBDD3;" d="M422.861,67.261c-2.43-3.367-6.567-3.77-10.437-3.856c-7.659-0.17-15.352,0.083-23.013,0.169
			c-32.001,0.361-63.997,1.199-95.973,2.512c-21.277,0.874-42.563,2.211-63.851,3.18c-5.614,0.504-11.23,0.991-16.849,1.452
			c-15.59,1.279-31.188,2.478-46.785,3.683c-12.402,0.958-31.144-0.212-33.263,15.931c-0.952,7.251-0.121,14.923,0.104,22.204
			c0.247,7.966,0.563,15.93,0.948,23.891c0.757,15.626,1.78,31.24,3.069,46.831c1.26,15.227,1.925,30.975,4.781,46
			c1.328,6.987,4.276,13.404,10.796,16.904c5.75,3.086,12.568,3.77,18.971,4.167c31.607,1.962,63.335,2.777,94.994,3.323
			c31.607,0.546,63.224,0.535,94.831-0.029c8.051-0.144,16.101-0.324,24.15-0.54c7.273-0.195,15.583,0.489,22.575-1.882
			c13.72-4.653,13.344-21.298,13.672-33.224c0.879-31.944,1.758-63.888,2.638-95.832c0.415-15.068,1.754-30.44,1.123-45.501
			C425.208,73.421,424.798,69.945,422.861,67.261z M388.865,66.004c0.562-0.517,1.305-0.897,1.938-1.081
			c1.706-0.493,3.617-0.132,4.992,0.999c2.888,2.376,2.643,6.933-0.564,8.891c-3.22,1.966-7.381,0.161-8.231-3.503
			C386.561,69.41,387.398,67.228,388.865,66.004z M373.035,65.787c0.562-0.518,1.305-0.898,1.939-1.081
			c1.706-0.493,3.617-0.132,4.992,0.999c2.888,2.376,2.643,6.933-0.563,8.891c-3.22,1.966-7.381,0.16-8.231-3.503
			C370.731,69.193,371.568,67.011,373.035,65.787z M357.168,66.004c0.562-0.517,1.305-0.897,1.939-1.081
			c1.706-0.493,3.617-0.132,4.992,0.999c2.888,2.376,2.643,6.933-0.564,8.891c-3.22,1.966-7.381,0.161-8.231-3.503
			C354.864,69.41,355.701,67.228,357.168,66.004z M406.457,111.398c-0.407,14.376-0.822,28.752-1.229,43.119
			c-0.407,14.376-0.813,28.752-1.229,43.128c-0.298,10.761,1.084,23.565-3.723,33.631c-5.268,11.024-17.629,10.933-28.49,11.231
			c-14.81,0.398-29.628,0.669-44.447,0.795c-29.89,0.253-59.789-0.045-89.671-0.913c-14.809-0.434-29.619-1.003-44.42-1.708
			c-10.292-0.488-23.104-0.118-30.938-7.807c-8.259-8.105-7.644-22.481-8.728-32.98c-1.455-14.141-2.629-28.318-3.542-42.495
			c-0.904-14.186-1.536-28.39-1.898-42.594c-0.253-10.147-0.461-21.08,10.997-25.318c5.123-1.888,10.798-2.051,16.201-2.449
			c7.31-0.533,14.62-1.066,21.93-1.59c7.283-0.533,14.557-1.057,21.839-1.563c3.614-0.325,7.238-0.614,10.87-0.903
			c29.61-2.358,59.374-3.443,89.065-4.319c14.855-0.434,29.71-0.759,44.573-0.967c7.427-0.099,14.864-0.172,22.291-0.217
			c5.286-0.036,11.737-0.786,16.129,2.711c3.533,2.81,4.572,7.274,4.834,11.512C407.27,98.215,406.638,104.874,406.457,111.398z"/>
		<path style="fill:#7E9CBC;" d="M378.132,72.098c1.61-1.166,1.413-4.003-0.564-4.724c-1.215-0.444-2.094,0.225-3.032,0.741
			c-0.533,0.579-0.853,1.287-0.698,2.189C374.183,72.311,376.48,73.294,378.132,72.098z"/>
		<path style="fill:#82829E;" d="M424.301,62.069c-5.127-4.207-12.658-3.301-18.823-3.263c-8.674,0.054-17.347,0.143-26.02,0.267
			c-17.346,0.248-34.69,0.636-52.029,1.164c-34.66,1.055-69.395,2.359-103.962,5.194c-4.237,0.347-8.466,0.699-12.69,1.09
			c-8.496,0.608-16.991,1.249-25.486,1.882c-8.534,0.636-17.068,1.273-25.601,1.919c-6.308,0.477-12.928,0.677-18.91,2.956
			c-13.369,5.094-13.134,18.274-12.835,30.489c0.419,17.115,1.158,34.223,2.216,51.311c1.059,17.088,2.437,34.156,4.133,51.192
			c1.26,12.652,0.544,29.965,10.186,39.729c9.149,9.266,24.099,8.821,36.118,9.412c17.276,0.849,34.561,1.533,51.85,2.05
			c34.877,1.043,69.774,1.41,104.665,1.099c17.297-0.154,34.591-0.474,51.882-0.96c12.674-0.356,27.099-0.244,33.249-13.525
			c5.614-12.127,3.995-27.545,4.352-40.514c0.477-17.315,0.954-34.631,1.432-51.947c0.477-17.316,0.954-34.631,1.432-51.947
			c0.216-7.856,0.945-15.881,0.483-23.732C429.642,70.83,428.432,65.459,424.301,62.069z M424.219,122.143
			c-0.879,31.944-1.758,63.888-2.638,95.832c-0.328,11.927,0.047,28.572-13.672,33.224c-6.992,2.371-15.302,1.687-22.575,1.882
			c-8.049,0.216-16.099,0.396-24.15,0.54c-31.607,0.564-63.223,0.575-94.831,0.029c-31.659-0.547-63.387-1.362-94.994-3.323
			c-6.402-0.397-13.221-1.081-18.971-4.167c-6.52-3.499-9.468-9.917-10.796-16.904c-2.856-15.025-3.522-30.772-4.781-46
			c-1.29-15.591-2.313-31.205-3.069-46.831c-0.385-7.961-0.702-15.925-0.948-23.891c-0.225-7.281-1.056-14.954-0.104-22.204
			c2.119-16.143,20.862-14.973,33.263-15.931c15.596-1.205,31.194-2.404,46.785-3.683c5.619-0.461,11.235-0.948,16.849-1.452
			c21.288-0.969,42.575-2.306,63.851-3.18c31.976-1.313,63.972-2.151,95.973-2.512c7.661-0.086,15.354-0.34,23.013-0.169
			c3.87,0.086,8.007,0.489,10.437,3.856c1.937,2.684,2.346,6.16,2.482,9.382C425.974,91.703,424.634,107.075,424.219,122.143z"/>
		<path style="fill:#82829E;" d="M395.233,74.812c3.206-1.957,3.452-6.515,0.564-8.891c-1.375-1.131-3.286-1.492-4.992-0.999
			c-0.634,0.183-1.377,0.563-1.938,1.081c-1.467,1.224-2.304,3.406-1.864,5.305C387.852,74.973,392.012,76.778,395.233,74.812z
			 M390.366,68.332c0.938-0.516,1.817-1.185,3.032-0.741c1.977,0.722,2.175,3.558,0.564,4.724c-1.652,1.196-3.949,0.213-4.295-1.794
			C389.513,69.619,389.834,68.91,390.366,68.332z"/>
		<path style="fill:#82829E;" d="M379.402,74.595c3.206-1.957,3.452-6.515,0.563-8.891c-1.375-1.131-3.286-1.491-4.992-0.999
			c-0.634,0.183-1.377,0.563-1.939,1.081c-1.467,1.224-2.304,3.406-1.864,5.305C372.021,74.756,376.182,76.561,379.402,74.595z
			 M374.536,68.115c0.938-0.516,1.817-1.185,3.032-0.741c1.977,0.722,2.175,3.558,0.564,4.724c-1.652,1.196-3.949,0.213-4.294-1.793
			C373.683,69.402,374.003,68.694,374.536,68.115z"/>
		<path style="fill:#82829E;" d="M363.535,74.812c3.207-1.957,3.452-6.515,0.564-8.891c-1.375-1.131-3.286-1.492-4.992-0.999
			c-0.634,0.183-1.377,0.563-1.939,1.081c-1.467,1.224-2.304,3.406-1.863,5.305C356.154,74.973,360.315,76.778,363.535,74.812z
			 M358.669,68.332c0.938-0.516,1.817-1.185,3.032-0.741c1.977,0.722,2.175,3.558,0.564,4.724c-1.652,1.196-3.949,0.213-4.295-1.794
			C357.816,69.619,358.136,68.91,358.669,68.332z"/>
		<path style="fill:#82829E;" d="M402.038,80.188c-4.391-3.497-10.843-2.747-16.129-2.711c-7.427,0.045-14.864,0.118-22.291,0.217
			c-14.864,0.208-29.719,0.533-44.573,0.967c-29.691,0.876-59.455,1.961-89.065,4.319c-3.632,0.289-7.256,0.578-10.87,0.903
			c-7.283,0.506-14.557,1.03-21.839,1.563c-7.31,0.524-14.62,1.057-21.93,1.59c-5.403,0.398-11.078,0.56-16.201,2.449
			c-11.457,4.238-11.25,15.171-10.997,25.318c0.361,14.204,0.994,28.408,1.898,42.594c0.913,14.177,2.087,28.354,3.542,42.495
			c1.084,10.499,0.47,24.875,8.728,32.98c7.834,7.689,20.647,7.319,30.938,7.807c14.801,0.705,29.61,1.274,44.42,1.708
			c29.881,0.868,59.781,1.166,89.671,0.913c14.819-0.126,29.637-0.397,44.447-0.795c10.861-0.298,23.222-0.208,28.49-11.231
			c4.807-10.066,3.424-22.87,3.723-33.631c0.415-14.376,0.822-28.752,1.229-43.128c0.407-14.367,0.822-28.743,1.229-43.119
			c0.181-6.524,0.813-13.183,0.416-19.698C406.611,87.462,405.572,82.998,402.038,80.188z M401.966,130.057
			c-0.75,26.52-1.509,53.031-2.259,79.551c-0.28,9.903,0.036,23.719-11.71,27.577c-5.991,1.97-13.111,1.4-19.346,1.563
			c-6.894,0.181-13.789,0.334-20.692,0.452c-27.071,0.47-54.16,0.479-81.24,0.027c-27.125-0.461-54.305-1.13-81.385-2.765
			c-5.485-0.325-11.322-0.895-16.246-3.452c-5.593-2.91-8.114-8.241-9.253-14.033c-2.449-12.478-3.018-25.553-4.093-38.194
			c-1.112-12.939-1.988-25.896-2.629-38.872c-0.334-6.605-0.605-13.219-0.813-19.833c-0.199-6.045-0.904-12.415-0.09-18.433
			c1.816-13.4,17.873-12.424,28.499-13.219c13.355-1.003,26.719-1.997,40.074-3.063c4.816-0.38,9.632-0.786,14.439-1.202
			c18.234-0.804,36.477-1.916,54.703-2.638c27.396-1.093,54.811-1.789,82.225-2.087c6.56-0.072,13.156-0.28,19.716-0.144
			c3.316,0.072,6.858,0.407,8.936,3.208c1.663,2.223,2.015,5.114,2.132,7.789C403.466,104.784,402.318,117.542,401.966,130.057z
			 M404.925,93.568c-2.27,0-2.001-3.829,0.35-3.829C407.545,89.739,407.276,93.568,404.925,93.568z"/>
		<path style="fill:#686882;" d="M405.275,89.739c-2.352,0-2.62,3.829-0.35,3.829C407.276,93.568,407.545,89.739,405.275,89.739z"/>
	</g>
	<path style="fill:#FCA71F;" d="M429.422,230.876c1.502-6.509,2.863-12.509,4.365-19.018c-6.802,0.849-13.538,2.226-20.128,4.115
		C418.196,220.581,424.886,226.266,429.422,230.876z"/>
	<g>
		<path style="fill:#F66E14;" d="M244.069,256.853c0.377,1.968,0.63,3.965,0.721,5.96c0.989-1.436,2.087-2.819,2.902-4.392
			c1.944-3.75,3.154-7.929,3.528-12.14c0.588-6.622-0.676-13.209-5.089-17.96c-0.083,2.978-0.471,6.037-1.169,8.922
			C246.245,243.487,246.209,250.939,244.069,256.853z"/>
		<path style="fill:#FC9C12;" d="M145.755,278.405c1.716-4.542-4.544-23.596-6.094-26.553c-4.479-8.544-12.979-8.671-21.353-9.022
			c-1.049,3.87,0.027,8.338,1.196,12.014c2.739,8.617,8.327,16.887,16.454,21.213C138.631,277.48,142.629,278.837,145.755,278.405z"
			/>
		<path style="fill:#9D4925;" d="M245.744,199.209c4.655,6.282,8.619,11.872,10.85,19.265c-3.506-0.283-6.983-0.75-10.411-1.412
			c-17.901-3.438-34.575-11.921-48.415-23.959c-0.701-0.604-1.646,0.37-1.003,1.042c4.996,5.181,10.557,9.661,16.537,13.411
			c-18.855,1.704-39.951,4.782-54.258-10.441c-0.263-0.38-0.526-0.76-0.799-1.13c-0.526-0.711-1.792-0.292-1.49,0.662
			c1.967,6.262,4.353,12.057,5.688,18.427c-3.224-1.519-6.097-3.516-8.746-6.019c-0.906-0.857-2.23-0.146-2.308,1.003
			c-0.945,14.629,9.993,25.878,12.33,39.756c-5.249-0.156-10.343-0.906-15.534-1.753c-2.045-4.227-4.782-8.045-8.347-10.499
			c0.049-0.175,0.058-0.36-0.029-0.575c-6.107-14.56-9.174-29.16-3.779-44.587c2.62-7.499,6.857-14.171,12.281-19.722
			c4.266-4.392,9.282-8.084,14.804-10.947c0.36,0.36,1.023,0.438,1.286-0.136c4.938-11.044,12.642-19.654,24.008-23.891
			c-0.029,6.788-3.243,11.142-7.353,16.674c-0.448,0.594-0.175,1.315,0.38,1.5c0.283,0.234,0.653,0.37,1.081,0.273
			c9.944-2.25,18.446-3.711,28.585-1.169c8.999,2.269,17.19,6.779,24.621,12.252c14.638,10.782,25.712,25.137,38.841,37.497
			c-6.389,2.026-13.138,2.61-19.82,1.938c-2.104-3.35-4.714-6.35-7.889-8.619C246.192,197.573,245.267,198.557,245.744,199.209z"/>
		<path style="fill:#F66E14;" d="M243.631,242.452c0.012-0.338,0.028-0.677,0.04-1.015c-0.757,1.905-1.698,3.639-2.849,5.09
			c0.944,2.115,1.749,4.371,2.393,6.698c0.265-2.232,0.59-4.458,0.685-6.711c0.052-1.243,0.035-2.48-0.001-3.715
			C243.749,242.766,243.624,242.655,243.631,242.452z"/>
		<path style="fill:#F66E14;" d="M187.182,151.525c1.78-0.524,3.635-0.871,5.518-1.093c-0.031-0.007-0.061-0.02-0.091-0.027
			c-1.511-0.333-3.078-0.055-4.577-0.19C187.759,150.662,187.488,151.109,187.182,151.525z"/>
		<path style="fill:#D32A7B;" d="M135.221,166.105c-2.6,2.123-5.016,4.422-7.149,6.925c-1.539,1.792-2.941,3.691-4.168,5.688
			c-0.497,0.331-0.984,0.682-1.461,1.052c-11.025,2.445-19.8,12.632-22.079,23.511c-3.35,15.914,9.652,29.676,6.905,45.288
			c-2.259,12.866-13.255,22.138-20.852,32.013c-7.529,9.788-12.174,21.008-7.908,33.289c5.756,16.557,21.641,26.287,32.832,38.958
			c-1.344,8.843-1.831,17.911-0.74,26.55c0.185,1.432,0.438,2.805,0.75,4.129c-2.24-1.519-5.25-1.734-7.928-1.062
			c-3.662-15.797-17.317-26.238-24.991-39.951c-3.467-6.204-6.077-12.885-7.792-19.79c-2.513-10.07-3.136-20.628-1.792-30.884
			c1.14-8.697,3.691-17.112,7.558-24.972c3.633-7.363,8.084-14.414,10.441-22.333c2.591-8.717,0.867-16.81-0.691-25.517
			c-1.714-9.554-0.633-18.339,4.655-26.618c5.347-8.395,13.372-14.492,22.264-18.758
			C120.184,170.215,127.732,168.296,135.221,166.105z"/>
		<path style="fill:#D32A7B;" d="M135.611,410.057c-2.766,0.623-5.405,1.792-7.597,3.584c-5.6-5.727-11.424-11.239-17.141-16.849
			c-3.516-3.448-6.788-7.821-11.824-8.356c1.13-1.217,2.513-2.211,4.022-2.776c0.136-0.049,0.282-0.097,0.419-0.136
			c2.941-0.906,5.571,0.185,8.454,0.818c0.068,0.019,0.146,0.019,0.214,0.01c0.964,2.941,2.279,5.61,3.925,8.064
			c3.233,4.85,7.753,8.824,13.362,12.213C131.452,407.837,133.517,408.976,135.611,410.057z"/>
		<path style="fill:#FC9C12;" d="M126.154,180.859c-10.078,16.986-4.181,36.175,2.271,53.201c0.857,0.158,1.708,0.377,2.541,0.651
			c0.507,0.005,1.003,0.036,1.489,0.086c-6.993-14.617-10.163-32.103-4.144-47.529c5.39-13.814,18.306-24.023,31.45-30.784
			C146.81,162.266,133.884,167.831,126.154,180.859z"/>
		<path style="fill:#F66E14;" d="M130.092,186.998c-6.721,16.139-2.219,32.969,4.534,48.194c0.728,0.182,1.439,0.4,2.119,0.679
			c-7.851-12.961-8.278-30.986-3.278-44.874c5.027-13.964,15.51-25.597,28.838-32.099c0.058-0.028,0.115-0.042,0.172-0.063
			c0.18-0.38,0.364-0.759,0.544-1.139c-0.167-0.255-0.254-0.576-0.329-0.879C149.809,164.903,136.308,172.074,130.092,186.998z"/>
		<path style="fill:#6D5E77;" d="M128.384,303.421c-7.139,10.119-11.298,23.501-14.19,35.257c-0.867,3.477-1.636,7.061-2.279,10.684
			c-4.383-5.279-9.554-9.866-14.492-14.638c-4.763-4.597-9.321-9.369-12.759-15.096c-4.081-6.769-6.379-14.629-4.422-22.488
			c1.412-5.707,4.801-10.704,8.415-15.242c6.73-8.483,15.447-16.002,19.781-26.131c5.415-12.652-0.487-23.939-4.626-35.968
			c-5.298-15.408,1.656-29.822,15.115-36.747c-3.974,4.373-6.759,10.041-8.259,15.807c-0.623,2.357-1.032,4.724-1.227,7.032
			c-0.828,9.964,2.328,22.683,9.934,29.832c-0.029,0.02-0.068,0.039-0.097,0.068c-4.315,3.224-4.85,9.067-4.159,14.015
			c1.334,9.593,6.506,19.313,14.18,25.576c-5.785,3.886-10.772,10.879-10.294,17.998
			C119.346,298.346,123.417,303.284,128.384,303.421z"/>
		<path style="fill:#EF4545;" d="M215.446,293.916c-7.409,0.966-15.376,0.688-23.294-0.702c0.498,1.503,0.618,3.194,0.734,4.715
			c0.176,2.305,0.399,4.629,0.211,6.936c0.381,0.448,0.749,0.902,1.111,1.361c5.193-1.364,10.394-2.696,15.593-4.04
			c0.287-1.276,0.595-2.552,1.043-3.761c0.193-0.52,0.873-0.432,0.944,0.11c0.129,0.986,0.138,2.041,0.067,3.119
			c3.105-0.801,6.206-1.617,9.312-2.413C219.502,297.092,217.623,295.238,215.446,293.916z"/>
		<path style="fill:#374763;" d="M194.938,416.576c0.848,0.618,1.755,1.087,2.708,1.447c-0.806-1.359-1.135-2.965-0.703-4.548
			c-1.51-15.495-0.499-31.49-0.468-47.022c0.016-8.006,0.011-16.013,0.067-24.019c0.036-5.226-0.374-10.843-0.058-16.254
			c-0.063-2.391,0.027-4.79,0.112-7.083c0.062-1.682,0.008-3.658,0.726-5.111c-2.146-0.987-4.239-2.326-6.246-3.589
			c-0.192,3.207-0.243,6.501-0.394,9.777c0.477,6.626,0.155,13.455,0.18,20.007c0.031,8.034,0.028,16.068,0.025,24.102
			c-0.006,15.437,0.316,30.932-0.382,46.36C191.62,412.894,192.784,415.007,194.938,416.576z"/>
		<path style="fill:#FCBE8B;" d="M217.052,428.397c-0.019,0.039-0.019,0.107-0.049,0.146c-0.847,1.247-1.851-0.214-2.464-0.77
			c-1.792-1.626-3.516-3.399-5.337-5.025c-0.341-0.312-0.691-0.623-1.042-0.915c-0.234-0.448-0.487-0.877-0.75-1.305
			c2.269-0.662,4.529-1.324,6.788-1.987c0.185,0.477,0.37,0.954,0.536,1.441C215.669,422.641,216.331,425.455,217.052,428.397z"/>
		<path style="fill:#FCBE8B;" d="M206.728,433.52c-0.107,0.02-0.214,0.049-0.302,0.088c-0.01-0.078-0.01-0.136-0.029-0.214
			c-0.584-3.156-2.688-6.175-5.074-8.834c-1.023-1.159-2.104-2.24-3.136-3.243c1.519,0.419,3.078,0.555,4.422,0.146
			c0.039,0,0.078,0.02,0.117,0.02c0.195,0.097,0.409,0.156,0.652,0.156c0.136,0,0.282-0.02,0.438-0.058
			c0.078-0.01,0.156-0.039,0.234-0.058c0.429-0.039,0.867-0.136,1.305-0.273c0.331,0.77,0.662,1.588,0.984,2.425
			C208.052,428.163,209.309,433.179,206.728,433.52z"/>
		<path style="fill:#374763;" d="M198.125,312.901c0.01-0.009,0.016-0.02,0.026-0.028c0.151-0.326,0.445-0.595,0.91-0.718
			c56.427-14.879,113.217-28.501,169.828-42.663c-0.261-0.238-0.54-0.468-0.86-0.68c-1.126-0.744-2.361-1.241-3.685-1.501
			c-0.56-0.11-1.083-0.175-1.588-0.305c-0.171,0.159-0.391,0.288-0.677,0.36c-56.535,14.179-112.971,28.926-169.675,42.412
			C194.354,310.724,196.355,311.716,198.125,312.901z"/>
		<path style="fill:#EF8378;" d="M181.731,292.748c-0.765-0.223-1.529-0.453-2.281-0.707c4.385,3.435,8.547,7.139,12.185,11.161
			c-0.114-1.834-0.24-3.643-0.687-5.468c-0.289-1.178-0.731-2.355-1.031-3.548C187.179,294.302,184.307,293.497,181.731,292.748z"/>
		<path style="fill:#FCBE8B;" d="M241.936,234.31c1.033-4.84,1.11-9.7,1.393-14.599c-7.012-1.519-13.82-3.798-20.268-6.818
			c-1.987-0.935-3.935-1.928-5.844-3c-0.175,0.224-0.428,0.399-0.769,0.467c-18.008,3.73-40.311,4.694-54.619-8.025
			c2.006,4.694,3.156,9.885,3.906,14.716c0.146,0.935-0.584,2.259-1.743,1.811c-3.711-1.432-6.964-3.302-9.915-5.775
			c0.536,13.518,10.674,24.641,12.476,38.052c0.088,0.701-0.643,1.325-1.295,1.334c-5.25,0.068-10.626-0.263-15.768-1.441
			c1.549,3.915,2.561,7.986,3.107,11.551c0.419,2.698,1.198,6.214,1.178,9.515c8.717,5.863,17.034,11.278,27.144,14.619
			c9.477,3.136,19.566,4.772,29.559,4.383c2.016-0.078,4.052-0.263,6.077-0.594c8.61-1.363,16.966-5.103,21.709-12.768
			c5.941-9.574,2.6-20.579,0.282-30.65c-0.068-0.302-0.01-0.584,0.127-0.818C239.209,242.208,241.079,238.332,241.936,234.31z
			 M186.889,234.524c1.315-2.912,4.811-5.717,7.577-7.197c2.435-1.315,4.363,2.006,2.201,3.613c-1.276,0.954-2.63,1.802-3.886,2.785
			c-1.227,0.964-2.338,2.152-3.682,2.941C187.648,237.514,186.256,235.936,186.889,234.524z M197.154,254.285
			c2.932-0.584,2.834,4.422,2.922,6.175c0.166,3.029-4.616,3.117-4.704,0.078C195.323,258.853,194.807,254.743,197.154,254.285z
			 M202.725,275.634c0-0.37,0.282-0.711,0.701-0.75c1.763-0.136,3.535,1.48,5.318,1.792c1.802,0.331,4.032-0.75,5.62,0.175
			c0.341,0.195,0.623,0.691,0.467,1.091c-1.49,3.945-12.067,1.889-12.116-2.308C202.715,275.634,202.715,275.634,202.725,275.634z
			 M226.314,257.042c-0.721,0.984-2.347,1.636-3.321,0.487c-0.682-0.799-0.896-1.393-0.915-2.425c-0.01-0.565-0.029-1.139,0-1.704
			c0.049-1.295,0.185-2.873,1.402-3.613c1.626-1.013,2.756,1.091,3,2.376C226.733,253.565,227.2,255.814,226.314,257.042z
			 M230.161,230.268c-0.185,0.76-0.945,1.11-1.675,0.984c-1.042-0.175-2.026-1.169-2.922-1.704
			c-1.052-0.623-2.425-0.915-3.302-1.753c-1.11-1.081-0.769-3.389,0.915-3.721c1.86-0.37,3.672,0.672,5.035,1.909
			C229.313,226.976,230.541,228.71,230.161,230.268z"/>
		<path style="fill:#F66E14;" d="M150.482,272.431c0.086-5.003-0.975-10.457-2.173-15.285c-2.231-8.994-7.242-16.217-15.564-19.341
			c-5.163-1.216-11.119-2.479-13.846,3.394c-0.022,0.046-0.037,0.094-0.058,0.14c9.905-0.892,19.348,1.734,23.541,11.734
			c1.192,2.844,6.886,17.923,5.66,24.566C149.483,276.764,150.436,275.138,150.482,272.431z"/>
		<path style="fill:#5A4B66;" d="M128.948,414.897c0.064,0.753-0.867,1.458-1.562,0.786c-4.613-4.454-9.067-9.073-13.542-13.664
			c-3.894-3.996-9.459-11.918-15.43-12.844c-0.171,0.217-0.315,0.45-0.471,0.677c0.094,2.972-0.51,5.914-0.363,8.916
			c0.124,2.532,0.929,5.967,3.506,7.208c1.47,0.708,2.712,0.543,3.726-0.111c-0.088-0.186-0.178-0.377-0.267-0.564
			c-0.367-0.611-0.657-1.277-0.923-1.952c-0.405-0.867-0.804-1.742-1.188-2.623c-0.722-1.388-1.394-2.801-1.928-4.235
			c-0.149-0.207-0.307-0.409-0.447-0.619c-0.214-0.321-0.21-0.671-0.089-0.978c-0.002-0.008-0.006-0.016-0.008-0.024
			c-0.189-0.659,0.722-1.342,1.222-0.77c0.149,0.015,0.299,0.053,0.445,0.142c10.14,6.213,27.974,34.972,40.705,20.157
			c-0.072-0.298,0.082-0.645,0.492-0.663c0.025-0.001,0.042-0.016,0.065-0.02c0.042-0.054,0.085-0.103,0.127-0.158
			c-1.458-0.629-2.899-1.296-4.333-1.981C135.075,411.881,132.056,413.109,128.948,414.897z"/>
		<path style="fill:#6C2612;" d="M112.5,207.345c-0.517,10.706,4.044,18.505,9.588,27c1.226-0.399,2.513-0.569,3.821-0.546
			c-7.152-14.203-11.119-31.732-5.824-47.037C115.863,192.833,112.889,199.297,112.5,207.345z"/>
		<path style="fill:#374763;" d="M231.006,418.495c-1.098-0.525-2.133-1.22-3.184-1.835c-0.707-0.414-1.651-0.811-2.204-1.464
			c-0.577,0.17-1.154,0.345-1.731,0.515c0.779,0.598,1.471,1.376,2.175,2.013c1.243,1.125,2.609,2.245,3.63,3.596
			c0.478,0.024,0.948,0.092,1.422,0.137c-0.013-0.264-0.018-0.531-0.034-0.794C231.036,419.942,230.985,419.217,231.006,418.495z"/>
		<path style="fill:#5B6A89;" d="M292.372,434.278c-2.559-7.773-5.223-15.507-8.056-23.185c-2.918,1.272-6.12,1.999-9.097,3.109
			c-3.179,1.185-6.353,2.904-9.627,3.918c5.117,3.032,10.199,6.125,15.289,9.203C284.632,429.591,288.733,431.692,292.372,434.278z"
			/>
		<path style="fill:#5B6A89;" d="M346.849,418.112c-8.561,4.539-17.258,8.795-26.141,12.671c-6.633,2.893-13.733,5.191-20.307,8.337
			c-0.02-0.039-0.039-0.078-0.068-0.107c0-0.088,0.01-0.156-0.01-0.243c-2.425-9.632-5.279-19.138-8.658-28.478
			c-0.419-1.169-0.857-2.337-1.295-3.496c-3.555-9.379-7.304-19.849-12.924-28.254c6.886-2.094,13.625-4.792,20.56-6.701
			c8.551-2.347,17.219-4.159,25.985-5.513c0.117-0.02,0.214-0.049,0.302-0.078c1.49,3.506,3.613,6.779,5.386,10.139
			c2.308,4.402,4.509,8.863,6.545,13.401c2.396,5.337,4.529,10.762,6.496,16.245C344.16,410.028,345.524,414.06,346.849,418.112z"/>
		<path style="fill:#374763;" d="M288.821,408.193c-3.747-9.938-8.982-19.355-12.615-29.292c-0.51,0.149-1.02,0.305-1.532,0.447
			c2.335,3.815,3.867,8.358,5.568,12.443c1.994,4.787,3.918,9.602,5.776,14.444c3.822,9.964,7.337,20.052,10.484,30.249
			c0.271,0.879-0.174,1.543-0.811,1.843c-0.063,0.039-0.131,0.063-0.205,0.078c-0.67,0.222-1.472,0.066-1.898-0.617
			c-4.956-2.023-9.533-5.264-14.101-7.975c-5.04-2.991-10.089-5.969-15.102-9.003c0.022,0.056,0.045,0.113,0.067,0.169
			c0.305,0.766,0.671,1.502,0.698,2.305c0.004,0.002,0.009,0.001,0.013,0.003c9.998,4.516,19.437,11.796,28.658,17.74
			c0.148,0.096,0.247,0.215,0.32,0.342c0.721-0.102,1.479-0.09,2.178-0.356c0.917-0.349,1.596-0.901,2.248-1.556
			c-0.023-0.052-0.057-0.09-0.072-0.151C295.863,428.758,292.656,418.367,288.821,408.193z"/>
		<path style="fill:#5B6A89;" d="M280.265,400.483c-0.194-0.5-0.383-1.001-0.581-1.5c-17.306,5.259-34.626,10.467-51.969,15.589
			c0.38,0.256,0.745,0.537,1.094,0.768c1.01,0.67,2.07,1.293,3.021,2.045c0.073,0.058,0.122,0.122,0.161,0.187
			c7.907-3.368,16.163-6.025,24.251-8.924C264.168,405.807,272.147,402.745,280.265,400.483z"/>
		<path style="fill:#374763;" d="M256.796,410.525c-8.101,2.752-16.191,5.802-24.442,8.077c0.087,0.621,0.142,1.247,0.188,1.873
			c0.023,0.32,0.062,0.635,0.081,0.947c0.762-0.118,1.507-0.343,2.28-0.356c0.02,0,0.034,0.013,0.053,0.014
			c6.798-3.195,14.257-5.392,21.251-7.918c8.396-3.033,16.856-6.641,25.468-9.04c-0.285-0.737-0.572-1.472-0.856-2.209
			C273.011,405.216,264.819,407.799,256.796,410.525z"/>
		<path style="fill:#5B6A89;" d="M372.132,361.214c-0.166,3.175-0.915,5.951-3.808,7.392c-11.171,3.38-22.352,6.72-33.543,10.07
			c-2.639-5.581-5.698-11.054-9.642-15.194c-0.302-0.331-0.75-0.321-1.091-0.136c-0.283-0.127-0.604-0.175-0.974-0.117
			c-9.048,1.422-18.028,3.321-26.842,5.844c-7.86,2.24-16.236,4.587-23.423,8.58c-0.292,0.039-0.555,0.185-0.75,0.409
			c-0.049,0.029-0.088,0.049-0.127,0.068c-0.711,0.419-0.516,1.295,0.039,1.636c1.237,4.724,3.701,9.282,5.532,13.781
			c0.282,0.682,0.545,1.363,0.828,2.045c-25.108,7.558-50.187,15.193-75.178,23.092c-2.24-0.253-3.633-2.045-3.964-4.188
			c1.656-15.836,0.604-32.208,0.575-48.103c-0.02-8.006-0.01-16.012-0.068-24.017c-0.01-1.529,0.02-3.097,0.058-4.685
			c0.107-5.142,0.321-10.48-0.389-15.495c0.039-2.435,0.185-4.86,0.662-7.236c56.956-13.528,113.649-28.342,170.43-42.59
			c1.704,1.636,0.974,4.743,1.062,7.129c0.01,0.224,0.02,0.458,0.029,0.691c-0.497,5.23-0.01,10.743-0.049,15.836
			c-0.049,7.139-0.049,14.278-0.068,21.417c-0.01,3.847-0.097,7.723-0.175,11.619c-0.234,10.713-0.477,21.524,0.847,32.062
			C372.103,361.156,372.122,361.185,372.132,361.214z"/>
		<path style="fill:#374763;" d="M337.223,384.05c0.308,0.7,0.626,1.411,0.929,2.102c0.537-0.175,1.086-0.315,1.638-0.43
			c4.414-2.384,9.954-3.644,14.569-5.182c-0.156-0.493-0.39-0.96-0.696-1.363C348.365,381.025,342.738,382.92,337.223,384.05z"/>
		<path style="fill:#5B6A89;" d="M352.525,378.184c-0.368-0.246-0.741-0.486-1.052-0.812c-0.07-0.073-0.127-0.155-0.176-0.241
			c-5.032,1.536-10.065,3.065-15.097,4.604c0.18,0.4,0.347,0.787,0.523,1.185C341.751,380.931,347.257,379.483,352.525,378.184z"/>
		<path style="fill:#EF4545;" d="M181.074,400.357c-1.334,0.721-2.571,1.724-3.759,2.746c-1.714,1.49-3.428,3.019-5.104,4.587
			c-1.665,1.549-3.292,3.146-4.85,4.782c0.614-1.763,1.198-3.526,2.026-5.201c0.351-0.711,0.74-1.412,1.208-2.084
			C173.049,401.642,176.935,399.198,181.074,400.357z"/>
		<path style="fill:#EF4545;" d="M191.135,307.024c-0.205,0.058-0.409,0.107-0.604,0.165c-0.263-0.019-0.536,0.049-0.721,0.205
			c-2.63,2.172-2.065,6.409-2.123,9.525c-0.01,0.36-0.01,0.721-0.02,1.081c-1.042-0.351-2.065-0.789-3.019-1.315
			c-0.01-0.312-0.01-0.613,0-0.915c0.01-2.337,0.068-4.928-1.977-5.766c-0.146-0.448-0.623-0.769-1.11-0.419
			c-0.058,0.039-0.107,0.097-0.166,0.146c-0.341-0.019-0.545,0.224-0.604,0.507c-0.662,0.623-1.266,1.373-1.792,2.211
			c-0.01-0.01-0.01-0.01-0.019-0.02c-1.88-1.5-3.896-2.883-6.019-4.149c-11.035-6.574-24.972-9.924-37.38-9.106
			c-0.74,0.049-0.672,1.042,0.029,1.12c7.548,0.876,14.658,2.026,21.875,4.48c1.412,0.477,2.785,1.003,4.139,1.578
			c5.493,2.298,10.528,5.23,15.758,8.24c0.146,0.078,0.292,0.127,0.448,0.146c-2.454,5.805-2.503,14.083-0.38,18.505
			c0.078,0.156,0.175,0.263,0.292,0.341c0.984,1.519,3.526,1.743,4.831,0.516c0.107-0.088,0.175-0.204,0.224-0.312
			c0.136-0.107,0.253-0.243,0.322-0.399c1.578-4.032,1.607-9.165,1.558-13.84c0.857,0.623,1.87,1.071,2.961,1.412
			c0,1.656,0.039,3.331,0.185,4.977c-0.058,4.139,0.059,8.298,0.029,12.369c-0.049,8.356-0.029,16.713-0.029,25.069
			c0,3.457-0.019,6.915-0.039,10.372c-0.029,7.334-0.068,14.667,0.02,22.001c0,0.507,0.01,1.013,0.019,1.519
			c-0.136,0.234-0.302,0.458-0.536,0.643c-0.38,0.292-0.818,0.419-1.286,0.487c0.302-0.867,0.467-1.763,0.506-2.678
			c0.234-4.616-2.552-9.691-5.23-13.012c-3.915-4.88-9.194-8.532-14.979-10.84c-3.477-1.393-7.012-2.25-10.567-2.659
			c0.127-1.334-0.234-2.708-0.847-3.896c-0.613-1.179-1.695-2.639-3.087-2.912c0.097-0.36,0.127-0.769,0.156-1.139
			c2.094-3.302,2.785-7.597,3.701-11.337c0.282-1.169,0.555-2.347,0.808-3.526c0.857-3.954,1.49-7.967,1.685-11.999
			c0.419-8.824-1.383-18.544-6.837-25.673c-0.438-0.575-1.286-0.078-0.964,0.584c4.042,8.356,5.483,16.723,4.792,25.946
			c-0.117,1.597-0.292,3.185-0.526,4.772c-0.438,3.078-1.052,6.136-1.773,9.174c-0.867,3.652-2.571,7.577-2.62,11.385
			c-0.292,0.76-0.75,1.811-0.263,2.445c0.136,0.185,0.312,0.302,0.497,0.36c0.506,1.12,1.558,1.792,2.201,2.824
			c0.545,0.877,0.808,1.812,0.964,2.795c-1.519-0.097-3.029-0.107-4.548-0.059c-3.165-1.286-6.818-1.987-10.139-1.441
			c-4.324,0.701-6.545,3.798-9.788,6.253c-1.442,0.633-2.873,1.315-4.276,2.055c-0.964,0.497-1.919,1.013-2.854,1.558
			c-0.536,0.302-0.049,1.032,0.477,0.789c0.935-0.429,1.889-0.847,2.854-1.237c8.347-3.457,17.473-5.61,26.472-5.103
			c3.214,0.175,6.409,0.701,9.554,1.626c5.766,1.695,11.249,4.772,15.447,9.106c3.74,3.857,5.386,7.606,5.941,12.116
			c0.136,1.11,0.214,2.279,0.234,3.496c-2.474-3.019-8.785-0.39-11.278,1.558c-2.279,1.782-4.139,4.256-5.425,7.003
			c-1.208,2.561-1.919,5.366-2.006,8.064c-0.019,0.01-0.039,0.01-0.068,0.019c-6.486,1.987-13.479-1.334-19.401-3.866
			c-5.24-2.24-10.382-4.831-15.213-7.85c-11.58-7.236-16.284-17.443-16.489-30.893c-0.088-5.756,0.273-11.522,1.003-17.258
			l0.331-2.318c0.779-5.318,1.86-10.587,3.224-15.758c1.597-6.038,3.594-11.979,5.999-17.755c2.289-5.483,5.269-10.665,7.519-16.158
			c0.575-0.322,0.516-1.081,0.029-1.432c-0.273-0.389-0.74-0.584-1.149-0.282c-7.675-1.023-9.467-8.863-6.204-15.252
			c1.802-3.545,4.85-6.136,7.285-9.204c1.802,1.276,3.72,2.376,5.746,3.233c4.246,1.802,10.109,3.117,14.005-0.234
			c1.295-1.11,2.045-2.542,2.454-4.139c2.951,2.561,6.223,4.879,9.72,6.964c1.13,0.896,2.26,1.792,3.38,2.708
			c3.925,3.165,7.772,6.418,11.551,9.759C182.379,298.94,186.655,303.187,191.135,307.024z"/>
		<path style="fill:#7B94A8;" d="M179.278,332.485c0.218,0.081,0.444,0.141,0.7,0.153c0.492,0.023,0.858-0.128,1.282-0.289
			c-0.429-3.147,0.12-6.398,0.29-9.57c0.139-2.602,1.286-7.925,0.119-10.798C177.69,318.01,179.798,325.789,179.278,332.485z"/>
		<path style="fill:#CE2941;" d="M137.031,369.711c-1.486,0.574-2.766,1.517-4.021,2.515c3.678-1.333,7.456-2.305,11.279-2.837
			C141.912,368.909,139.53,368.746,137.031,369.711z"/>
		<path style="fill:#FCBE8B;" d="M203.27,435.321c-1.208,0.243-2.347,0.156-3.438-0.224c-0.575-2.094-2.552-4.003-3.954-5.629
			c-1.782-2.055-3.73-3.905-5.678-5.795c-0.506-0.487-1.169,0.253-0.74,0.769c1.763,2.152,3.37,4.431,5.016,6.671
			c0.799,1.091,1.568,2.406,2.484,3.516c-1.149,2.562-4.811,0.263-6.058-0.458c-1.12-0.633-2.201-1.324-3.282-2.016
			c-1.938-1.227-3.779-2.552-5.834-3.555c0.039-0.224-0.029-0.458-0.273-0.643c-2.415-1.87-5.405-2.61-7.782-4.694
			c-2.659-2.357-4.227-5.201-5.522-8.463c-0.039-0.088-0.078-0.175-0.127-0.253c1.782-1.471,3.516-3.088,5.269-4.675
			c3.759-3.389,7.626-6.633,12.32-7.957c0.76,0.078,1.51,0.146,2.26,0.224c0.058,2.785,0.146,5.571,0.273,8.347
			c0.01,0.01,0.02,0.029,0.029,0.039c0.166,3.36,2.445,6.535,5.104,8.454c0.691,0.497,1.539,1.003,2.474,1.441c0,0,0,0,0,0.01
			c1.159,1.315,2.221,2.756,3.204,4.237c0.75,1.12,1.461,2.269,2.152,3.409c0.682,1.12,1.325,2.269,1.889,3.448
			C203.962,432.701,204.03,433.967,203.27,435.321z"/>
		<path style="fill:#FC9C12;" d="M193.508,443.858c-10.094-1.875-18.041-8.317-24.695-15.801c0.35,1.075,0.736,2.136,0.898,3.243
			c6.886,5.171,13.378,10.685,21.847,13.2c9.389,2.788,18.159,1.096,26.362-3.712c0.246-0.528,0.487-1.051,0.68-1.601
			C211.453,443.957,201.786,445.396,193.508,443.858z"/>
		<path style="fill:#FFE529;" d="M215.928,431.904c-2.078-0.461-3.521-2.872-4.805-4.388c-0.369-0.437-0.748-0.87-1.128-1.304
			c0.441,1.416,0.762,2.88,0.906,4.412c0.132,1.4-0.25,3.066-1.092,4.104c0.433,0.888,0.745,1.854,1.058,2.765
			c0.311,0.908,0.581,1.948,0.559,2.941c2.548-0.923,5.056-2.095,7.541-3.477c-0.045-1.843-0.723-3.503-1.2-5.229
			C217.208,431.977,216.567,432.046,215.928,431.904z"/>
		<path style="fill:#FFE529;" d="M191.753,441.841c6.208,1.404,12.001,0.986,17.575-0.702c-0.261-0.905-0.238-1.895-0.369-2.835
			c-0.128-0.918-0.402-1.769-0.66-2.627c-0.553,0.101-1.185,0.012-1.901-0.361c-0.669,2.902-4.828,2.456-7.308,0.998
			c-0.066,0.005-0.134-0.002-0.202-0.016c-0.674,1.685-3.245,2.582-5.237,2.087c-2.587-0.641-5.012-2.714-7.162-4.21
			c-2.05-1.426-4.035-2.86-5.652-4.749c-3.308,0.415-7.04-2.286-9.354-4.414c-1.133-1.042-2.18-2.238-3.084-3.536
			c-0.2,1.267-0.352,2.536-0.229,3.849c0.003,0.037,0.012,0.073,0.016,0.109C175.119,432.427,181.69,439.565,191.753,441.841z"/>
		<path style="fill:#390502;" d="M197.155,254.283c-2.344,0.463-1.833,4.572-1.785,6.26c0.086,3.032,4.868,2.942,4.708-0.086
			C199.986,258.707,200.084,253.704,197.155,254.283z"/>
		<path style="fill:#390502;" d="M223.477,249.781c-1.212,0.748-1.353,2.317-1.403,3.618c-0.022,0.566-0.001,1.135,0.008,1.701
			c0.017,1.037,0.227,1.628,0.907,2.429c0.976,1.151,2.607,0.5,3.323-0.49c0.884-1.221,0.422-3.473,0.164-4.879
			C226.24,250.878,225.105,248.776,223.477,249.781z"/>
		<path style="fill:#390502;" d="M214.36,276.847c-1.582-0.922-3.811,0.156-5.618-0.167c-1.782-0.319-3.55-1.932-5.313-1.792
			c-0.418,0.033-0.701,0.38-0.705,0.744c-0.004,0-0.009,0-0.013,0c0.053,4.203,10.633,6.255,12.12,2.313
			C214.983,277.54,214.706,277.048,214.36,276.847z"/>
		<path style="fill:#390502;" d="M194.462,227.322c-2.765,1.486-6.26,4.288-7.576,7.206c-0.633,1.405,0.765,2.987,2.216,2.137
			c1.34-0.784,2.454-1.979,3.674-2.937c1.258-0.987,2.61-1.834,3.89-2.787C198.833,229.33,196.901,226.012,194.462,227.322z"/>
		<path style="fill:#390502;" d="M228.215,225.981c-1.367-1.235-3.172-2.276-5.042-1.908c-1.682,0.331-2.025,2.645-0.91,3.721
			c0.872,0.842,2.253,1.126,3.301,1.755c0.897,0.538,1.879,1.525,2.921,1.707c0.726,0.126,1.489-0.224,1.676-0.993
			C230.539,228.713,229.312,226.972,228.215,225.981z"/>
		<path style="fill:#390502;" d="M211.788,298.535c-0.071-0.542-0.751-0.63-0.944-0.11c-0.449,1.209-0.756,2.486-1.043,3.761
			c0.685-0.177,1.369-0.356,2.054-0.532C211.926,300.576,211.916,299.521,211.788,298.535z"/>
		<path style="fill:#390502;" d="M184.644,315.773c0.01-2.34,0.072-4.928-1.969-5.769c-0.149-0.448-0.623-0.772-1.112-0.421
			c-0.059,0.042-0.111,0.1-0.169,0.144c-0.336-0.018-0.546,0.228-0.6,0.512c-0.669,0.618-1.265,1.367-1.794,2.208
			c-0.007-0.006-0.011-0.012-0.018-0.018c-11.624-9.283-28.607-14.228-43.396-13.254c-0.741,0.049-0.679,1.041,0.02,1.122
			c7.549,0.87,14.665,2.022,21.881,4.476c7.168,2.438,13.378,6.063,19.893,9.812c0.148,0.085,0.298,0.132,0.448,0.153
			c-2.449,5.804-2.504,14.084-0.379,18.5c0.077,0.16,0.18,0.262,0.291,0.34c0.988,1.52,3.529,1.743,4.836,0.524
			c0.103-0.096,0.176-0.204,0.226-0.318c0.137-0.106,0.251-0.24,0.315-0.402c1.579-4.03,1.608-9.162,1.557-13.835
			c0.861,0.623,1.879,1.073,2.963,1.415c0.001-0.997,0.014-1.985,0.033-2.962c-1.048-0.354-2.064-0.789-3.024-1.317
			C184.643,316.378,184.643,316.073,184.644,315.773z M181.55,322.779c-0.169,3.172-0.719,6.423-0.29,9.57
			c-0.424,0.161-0.791,0.312-1.282,0.289c-0.256-0.012-0.482-0.072-0.7-0.153c0.52-6.696-1.588-14.475,2.391-20.504
			C182.836,314.853,181.689,320.177,181.55,322.779z"/>
		<path style="fill:#390502;" d="M375.044,352.241c-0.002-1.953,0.216-4.039-0.014-6.008c0.186-9.623-0.285-19.326-0.307-28.839
			c-0.016-7.138-0.012-14.276-0.067-21.414c-0.039-5.022,0.436-10.464-0.04-15.636c0.34-2.682,0.418-5.386-0.127-7.592
			c-0.188-0.761-0.533-1.433-0.976-1.98c-0.746-1.84-2.246-3.543-3.627-4.574c-1.903-1.421-5.296-2.879-7.659-1.793
			c-0.296-0.136-0.647-0.184-1.045-0.084c-45.509,11.391-91.133,22.434-136.595,34.046c-1.468-2.057-3.117-3.86-5.012-5.129
			c9.541-2.043,18.723-7.402,22.846-16.598c1.331-2.969,2.061-6.169,2.314-9.447c6.959-3.643,9.659-16.197,9.726-23.222
			c0.059-6.317-1.651-16.186-8.344-18.817c-0.07-1.75-0.236-3.429-0.492-4.969c4.314,0.829,8.699,1.378,13.124,1.634
			c1.071,0.062,1.733-1.107,1.493-2.036c-0.97-3.771-2.412-7.624-4.367-11.176c7.353,1.456,14.595,0.716,21.829-1.905
			c0.986-0.357,1.418-1.635,0.59-2.411c-14.953-14.012-27.993-30.81-45.065-42.371c-7.672-5.195-16.262-9.256-25.435-10.87
			c-3.092-0.544-6.453-0.895-9.84-0.905c-1.051-1.404-3.471-2.033-5.016-2.31c-1.083-0.194-2.378-0.315-3.586-0.151
			c1.669-3.87,2.291-8.316,1.962-12.087c-0.082-0.933-0.937-1.72-1.915-1.404c-8.5,2.744-16.362,8.383-21.474,15.828
			c-0.137-0.01-0.28-0.001-0.428,0.041c-8.611,2.457-17.83,6.244-25.954,11.477c-16.265,2.203-34.054,8.548-45.931,19.885
			c-5.767,5.505-10.436,12.432-12.524,20.184c-2.335,8.665-0.184,16.848,1.263,25.446c3.444,20.46-12.319,36.068-16.987,55.041
			c-4.044,16.437-3.046,34.146,2.769,50.04c3.377,9.231,8.425,17.408,14.521,25.078c6.405,8.059,13.28,15.911,15.852,26.132
			c0.022,0.089,0.055,0.165,0.087,0.242c-1.622,0.942-2.859,2.267-3.728,3.857c-0.179,0.077-0.329,0.215-0.377,0.415
			c-0.058,0.241-0.118,0.495-0.178,0.744c-0.333,0.819-0.588,1.689-0.753,2.604c-0.027,0.15,0.006,0.289,0.064,0.415
			c-1.202,5.703-1.841,12.4,2.985,16.209c3.192,2.52,9.633,1.783,10.334-2.585c1.624,1.438,3.246,2.85,4.742,4.274
			c4.187,3.985,8.385,7.94,13.794,10.214c6.124,2.575,15.666,1.904,17.71-5.274c0.569,0.233,1.131,0.482,1.702,0.707
			c5.706,2.247,12.126,4.96,18.173,2.5c0.522-0.212,0.808-0.607,0.915-1.039c0.225,0.724,0.511,1.432,0.838,2.124
			c-2.002,3.135-2.3,8.937-0.06,12.162c0.012,0.02,0.014,0.041,0.028,0.06c10.423,13.998,36.287,25.715,51.596,12.717
			c2.217-0.545,3.099-3.108,3.29-5.231c0.247-2.74-0.739-5.857-2.353-8.158c0.074-0.101,0.132-0.218,0.161-0.358
			c0.861-4.181,0.171-8.471-1.583-12.479c1.031-0.303,2.063-0.602,3.094-0.905c0.565,1.39,2.287,2.404,3.38,3.338
			c1.316,1.124,2.66,2.429,4.215,3.222c0.075,0.094,0.166,0.18,0.274,0.251c0.788,0.516,1.924,0.704,3.049,0.592
			c0.127,0.049,0.264,0.075,0.412,0.047c9.017-1.744,17.89-5.661,26.525-8.721c7.898-2.799,16.135-5.248,23.819-8.62
			c0.172,0.452,0.354,0.901,0.524,1.354c0.046,0.122,0.089,0.245,0.135,0.367c-3.563,0.604-7.126,2.165-10.421,3.46
			c-3.513,1.381-7.391,2.735-10.28,5.198c-0.228,0.194-0.306,0.42-0.298,0.64c-0.027,0.04-0.047,0.084-0.071,0.126
			c-0.285,0.141-0.495,0.466-0.425,0.848c0.193,1.045,0.587,2.025,0.953,3.018c0.315,0.854,0.55,1.835,1.284,2.423
			c0.106,0.085,0.241,0.124,0.38,0.141c0.002,0.002,0.003,0.004,0.005,0.006c8.41,7.164,19.06,12.611,28.436,18.449
			c0.241,0.15,0.471,0.168,0.676,0.115c1.04,0.423,2.413,0.127,3.409-0.233c0.067-0.024,0.131-0.062,0.197-0.088
			c9.267-1.625,18.362-6.133,26.906-9.908c8.45-3.734,16.741-7.792,24.894-12.134c0.427-0.227,0.651-0.556,0.723-0.91
			c0.352-0.337,0.543-0.842,0.374-1.465c-2.637-9.705-6.251-19.2-10.347-28.379c-0.18-0.404-0.363-0.819-0.545-1.233
			c0.202-0.064,0.407-0.121,0.609-0.183c5.351-0.714,10.995-3.481,15.933-5.173c0.587-0.201,0.878-0.65,0.947-1.132
			c0.025-0.055,0.061-0.097,0.08-0.16c0.449-1.495,0.151-3.108-0.764-4.374c-0.354-0.489-0.793-0.964-1.293-1.343
			c4.544-1.386,9.087-2.779,13.634-4.157c2.387-0.209,4.619-2.089,5.789-4.283c1.922-3.603,1.473-7.858,0.977-11.982
			C375.071,354.523,375.045,353.373,375.044,352.241z M362.081,267.367c0.286-0.072,0.505-0.201,0.677-0.36
			c0.505,0.13,1.029,0.195,1.588,0.305c1.324,0.26,2.559,0.757,3.685,1.501c0.32,0.211,0.599,0.441,0.86,0.68
			c-56.612,14.162-113.402,27.783-169.828,42.663c-0.465,0.123-0.759,0.392-0.91,0.718c-0.01,0.009-0.016,0.02-0.026,0.028
			c-1.77-1.185-3.771-2.177-5.72-3.122C249.11,296.293,305.546,281.546,362.081,267.367z M206.724,433.521
			c-0.107,0.014-0.208,0.044-0.301,0.087c-0.012-0.075-0.011-0.14-0.025-0.218c-0.842-4.514-4.782-8.742-8.211-12.074
			c1.515,0.421,3.074,0.557,4.416,0.145c0.04,0.007,0.08,0.018,0.12,0.024c0.305,0.157,0.674,0.213,1.091,0.092l0.001,0
			c0.079-0.01,0.154-0.033,0.23-0.057c0.436-0.034,0.874-0.132,1.31-0.267C207.452,426.123,209.797,433.116,206.724,433.521z
			 M207.414,420.525c2.261-0.656,4.52-1.32,6.779-1.981c1.233,3.088,2.012,6.372,2.856,9.848c-0.016,0.047-0.016,0.111-0.042,0.148
			c-0.855,1.25-1.858-0.209-2.465-0.763c-2.133-1.947-4.173-4.087-6.387-5.95C207.924,421.387,207.668,420.957,207.414,420.525z
			 M190.887,364.284c0.003-8.034,0.006-16.069-0.025-24.102c-0.025-6.551,0.297-13.381-0.18-20.007
			c0.151-3.276,0.202-6.57,0.394-9.777c2.007,1.262,4.1,2.602,6.246,3.589c-0.718,1.453-0.664,3.429-0.726,5.111
			c-0.084,2.293-0.175,4.692-0.112,7.083c-0.315,5.411,0.095,11.028,0.058,16.254c-0.056,8.006-0.051,16.012-0.067,24.019
			c-0.031,15.533-1.042,31.527,0.468,47.022c-0.432,1.582-0.103,3.188,0.703,4.548c-0.953-0.359-1.86-0.829-2.708-1.447
			c-2.155-1.57-3.318-3.682-4.433-5.933C191.202,395.216,190.881,379.721,190.887,364.284z M221.167,299.241
			c-3.107,0.796-6.207,1.612-9.312,2.413c-0.017,0.261-0.035,0.522-0.062,0.784c-0.732,0.014-1.45,0.135-2.133,0.372
			c0.046-0.208,0.094-0.416,0.141-0.624c-5.199,1.344-10.4,2.677-15.593,4.04c-0.362-0.458-0.73-0.913-1.111-1.361
			c0.188-2.308-0.035-4.631-0.211-6.936c-0.116-1.521-0.236-3.211-0.734-4.715c7.918,1.389,15.885,1.668,23.294,0.702
			C217.623,295.238,219.502,297.092,221.167,299.241z M238.264,277.741c-5.867,9.459-17.239,12.948-27.79,13.361
			c-9.992,0.391-20.081-1.243-29.558-4.381c-10.105-3.346-18.422-8.759-27.137-14.624c0.015-3.302-0.765-6.811-1.179-9.515
			c-0.545-3.56-1.56-7.636-3.111-11.552c5.144,1.181,10.52,1.509,15.768,1.446c0.651-0.008,1.386-0.634,1.292-1.34
			c-1.801-13.412-11.939-24.533-12.474-38.048c2.955,2.478,6.202,4.348,9.912,5.773c1.165,0.447,1.894-0.873,1.748-1.813
			c-0.748-4.823-1.899-10.021-3.911-14.71c14.314,12.721,36.619,11.753,54.619,8.026c0.344-0.071,0.596-0.246,0.773-0.475
			c8.129,4.553,16.942,7.833,26.111,9.821c-0.282,4.9-0.36,9.758-1.389,14.596c-0.857,4.029-2.73,7.898-3.266,11.962
			c-0.133,0.239-0.193,0.521-0.125,0.818C240.866,257.159,244.202,268.168,238.264,277.741z M191.635,303.202
			c-3.639-4.022-7.801-7.726-12.185-11.161c0.753,0.254,1.516,0.485,2.281,0.707c2.576,0.749,5.448,1.554,8.186,1.438
			c0.301,1.192,0.742,2.37,1.031,3.548C191.395,299.559,191.521,301.368,191.635,303.202z M142.383,253.073
			c-4.193-10-13.636-12.626-23.541-11.734c0.021-0.046,0.036-0.094,0.058-0.14c2.727-5.873,8.683-4.61,13.846-3.394
			c8.322,3.124,13.333,10.347,15.564,19.341c1.198,4.828,2.258,10.282,2.173,15.285c-0.046,2.707-1,4.332-2.439,5.208
			C149.27,270.996,143.576,255.917,142.383,253.073z M119.009,293.376c0.337,4.969,4.406,9.905,9.38,10.043
			c-7.143,10.117-11.298,23.507-14.2,35.261c-0.858,3.477-1.631,7.055-2.277,10.686c-8.604-10.359-20.221-18.071-27.247-29.734
			c-4.081-6.776-6.376-14.637-4.427-22.495c1.415-5.706,4.805-10.701,8.415-15.243c6.738-8.477,15.447-16.001,19.786-26.129
			c5.418-12.648-0.484-23.942-4.626-35.97c-5.304-15.4,1.65-29.816,15.116-36.748c-5.593,6.165-8.832,14.894-9.489,22.84
			c-0.824,9.969,2.332,22.684,9.938,29.832c-0.034,0.025-0.069,0.044-0.102,0.069c-4.316,3.226-4.849,9.068-4.159,14.018
			c1.336,9.588,6.506,19.307,14.183,25.574C123.515,279.271,118.526,286.257,119.009,293.376z M125.908,233.8
			c-1.307-0.024-2.595,0.146-3.821,0.546c-5.544-8.496-10.105-16.294-9.588-27c0.389-8.048,3.363-14.512,7.584-20.583
			C114.79,202.068,118.757,219.596,125.908,233.8z M119.504,254.844c-1.169-3.676-2.245-8.144-1.196-12.014
			c8.374,0.351,16.873,0.478,21.353,9.022c1.55,2.956,7.809,22.011,6.094,26.553c-3.126,0.433-7.124-0.925-9.797-2.347
			C127.831,271.731,122.244,263.461,119.504,254.844z M243.9,246.514c-0.094,2.252-0.42,4.479-0.685,6.711
			c-0.644-2.327-1.449-4.583-2.393-6.698c1.151-1.451,2.093-3.185,2.849-5.09c-0.012,0.339-0.028,0.677-0.04,1.015
			c-0.007,0.203,0.118,0.314,0.267,0.346C243.935,244.034,243.952,245.271,243.9,246.514z M246.131,228.322
			c4.413,4.751,5.677,11.338,5.089,17.96c-0.374,4.211-1.584,8.39-3.528,12.14c-0.815,1.572-1.912,2.955-2.902,4.392
			c-0.091-1.995-0.344-3.992-0.721-5.96c2.14-5.914,2.176-13.366,0.893-19.61C245.66,234.359,246.048,231.3,246.131,228.322z
			 M192.608,150.405c0.031,0.007,0.061,0.02,0.091,0.027c-1.883,0.222-3.738,0.568-5.518,1.093c0.307-0.416,0.578-0.863,0.85-1.309
			C189.53,150.35,191.097,150.072,192.608,150.405z M164.396,161.594c4.943-11.04,12.65-19.65,24.009-23.893
			c-0.022,6.793-3.238,11.146-7.354,16.672c-0.447,0.6-0.168,1.315,0.386,1.504c0.28,0.234,0.651,0.369,1.079,0.272
			c9.942-2.251,18.444-3.709,28.583-1.163c9.003,2.261,17.192,6.773,24.624,12.249c14.632,10.779,25.707,25.136,38.841,37.499
			c-6.39,2.026-13.139,2.608-19.826,1.935c-2.104-3.354-4.711-6.351-7.885-8.617c-0.667-0.476-1.591,0.504-1.111,1.152
			c4.653,6.287,8.616,11.881,10.847,19.273c-21.817-1.725-42.334-11.026-58.826-25.371c-0.697-0.606-1.642,0.365-0.998,1.035
			c4.996,5.189,10.558,9.661,16.535,13.419c-18.854,1.7-39.954,4.781-54.261-10.441c-0.256-0.386-0.522-0.764-0.797-1.135
			c-0.525-0.708-1.788-0.285-1.49,0.66c1.97,6.262,4.352,12.062,5.693,18.434c-3.228-1.527-6.099-3.521-8.747-6.022
			c-0.911-0.86-2.238-0.143-2.313,1.008c-0.942,14.628,9.998,25.87,12.328,39.747c-5.25-0.15-10.342-0.897-15.529-1.744
			c-2.047-4.23-4.785-8.05-8.346-10.508c0.047-0.169,0.055-0.356-0.035-0.571c-6.103-14.56-9.168-29.156-3.78-44.583
			c4.687-13.421,14.565-24.174,27.088-30.676C163.474,162.093,164.139,162.169,164.396,161.594z M163.022,157.696
			c-0.181,0.38-0.365,0.759-0.544,1.139c-0.057,0.021-0.114,0.035-0.172,0.063c-13.328,6.502-23.811,18.135-28.838,32.099
			c-4.999,13.888-4.572,31.913,3.278,44.874c-0.679-0.279-1.391-0.496-2.119-0.679c-6.753-15.225-11.255-32.055-4.534-48.194
			c6.215-14.924,19.716-22.095,32.6-30.181C162.768,157.12,162.855,157.441,163.022,157.696z M159.762,156.484
			c-13.144,6.761-26.06,16.97-31.45,30.784c-6.019,15.426-2.849,32.912,4.144,47.529c-0.487-0.05-0.983-0.081-1.489-0.086
			c-0.833-0.274-1.685-0.493-2.541-0.651c-6.451-17.026-12.349-36.216-2.271-53.201C133.884,167.831,146.81,162.266,159.762,156.484
			z M78.435,342.498c-8.524-15.243-11.851-33.38-9.589-50.68c1.136-8.691,3.691-17.107,7.562-24.969
			c3.625-7.362,8.082-14.413,10.437-22.332c2.593-8.717,0.869-16.81-0.692-25.516c-1.713-9.552-0.636-18.341,4.652-26.624
			c5.354-8.387,13.377-14.489,22.265-18.754c7.11-3.413,14.666-5.33,22.151-7.521c-4.473,3.648-8.379,7.835-11.32,12.611
			c-0.498,0.331-0.981,0.686-1.454,1.053c-11.03,2.452-19.8,12.636-22.086,23.512c-3.345,15.92,9.655,29.676,6.908,45.296
			c-2.263,12.866-13.254,22.137-20.85,32.007c-7.535,9.791-12.177,21.008-7.909,33.292c5.754,16.56,21.636,26.289,32.832,38.953
			c-1.347,8.844-1.837,17.913-0.74,26.556c0.181,1.431,0.439,2.802,0.754,4.13c-2.243-1.521-5.253-1.74-7.937-1.061
			C99.764,366.646,86.104,356.211,78.435,342.498z M103.074,385.66c3.103-1.152,5.849,0.02,8.873,0.686
			c0.069,0.015,0.139,0.013,0.209,0.01c2.862,8.746,8.84,15.173,17.289,20.27c2.012,1.214,4.072,2.349,6.163,3.427
			c-2.761,0.626-5.401,1.795-7.591,3.593c-5.603-5.73-11.427-11.243-17.147-16.855c-3.513-3.446-6.788-7.818-11.819-8.358
			C100.181,387.217,101.557,386.223,103.074,385.66z M142.893,413.717c-0.024,0.003-0.041,0.019-0.065,0.02
			c-0.41,0.018-0.563,0.365-0.492,0.663c-12.731,14.815-30.565-13.944-40.705-20.157c-0.146-0.089-0.296-0.128-0.445-0.142
			c-0.5-0.572-1.411,0.111-1.222,0.77c0.002,0.008,0.005,0.016,0.008,0.024c-0.121,0.308-0.126,0.657,0.089,0.978
			c0.14,0.21,0.298,0.413,0.447,0.619c0.534,1.434,1.206,2.848,1.928,4.235c0.383,0.882,0.783,1.756,1.188,2.623
			c0.266,0.675,0.556,1.341,0.923,1.952c0.089,0.187,0.178,0.378,0.267,0.564c-1.014,0.655-2.256,0.819-3.726,0.111
			c-2.577-1.241-3.382-4.676-3.506-7.208c-0.147-3.003,0.457-5.945,0.363-8.916c0.156-0.227,0.3-0.46,0.471-0.677
			c5.971,0.926,11.536,8.848,15.43,12.844c4.475,4.591,8.929,9.21,13.542,13.664c0.696,0.671,1.627-0.033,1.562-0.786
			c3.108-1.788,6.128-3.017,9.739-3.319c1.433,0.685,2.875,1.352,4.333,1.981C142.977,413.614,142.935,413.663,142.893,413.717z
			 M164.288,414.803c-0.024,0.006-0.046,0.007-0.07,0.015c-6.486,1.985-13.486-1.33-19.405-3.863
			c-5.24-2.242-10.38-4.831-15.216-7.852c-11.575-7.234-16.275-17.444-16.486-30.892c-0.09-5.753,0.273-11.527,1.008-17.256
			l0.328-2.323c0.778-5.315,1.858-10.586,3.225-15.753c1.599-6.044,3.596-11.984,6.001-17.755
			c2.287-5.487,5.266-10.668,7.515-16.159c0.579-0.328,0.514-1.084,0.029-1.435c-0.269-0.39-0.74-0.586-1.151-0.278
			c-7.673-1.026-9.46-8.864-6.206-15.254c1.806-3.546,4.852-6.138,7.29-9.208c1.802,1.275,3.716,2.376,5.744,3.235
			c4.253,1.802,10.11,3.117,14.009-0.233c1.29-1.109,2.041-2.542,2.455-4.135c2.948,2.556,6.22,4.879,9.719,6.959
			c5.096,4.009,10.069,8.169,14.929,12.464c4.37,3.862,8.645,8.104,13.128,11.947c-0.202,0.053-0.404,0.105-0.606,0.158
			c-0.258-0.02-0.532,0.048-0.723,0.206c-2.628,2.171-2.056,6.406-2.116,9.532c-0.007,0.355-0.013,0.719-0.02,1.079
			c0.436,0.147,0.876,0.284,1.322,0.401c0.038,0.452,0.075,0.904,0.117,1.356c-0.02,0.532-0.018,1.067,0,1.603
			c-0.502-0.11-0.991-0.247-1.472-0.399c-0.001,1.655,0.038,3.325,0.183,4.969c-0.052,4.145,0.061,8.304,0.036,12.374
			c-0.051,8.355-0.035,16.712-0.034,25.068c0.001,11.281-0.161,22.595,0.006,33.891c-0.142,0.236-0.302,0.459-0.538,0.642
			c-0.384,0.298-0.819,0.427-1.285,0.493c1.847-5.217-1.525-11.707-4.725-15.692c-3.919-4.879-9.193-8.528-14.982-10.844
			c-3.479-1.391-7.015-2.249-10.562-2.658c0.12-1.336-0.235-2.71-0.852-3.894c-0.613-1.177-1.697-2.645-3.089-2.913
			c0.097-0.364,0.133-0.767,0.158-1.14c2.098-3.297,2.783-7.6,3.701-11.338c1.249-5.087,2.24-10.285,2.491-15.527
			c0.423-8.822-1.379-18.542-6.832-25.67c-0.443-0.579-1.288-0.073-0.967,0.589c4.039,8.357,5.484,16.714,4.794,25.938
			c-0.352,4.71-1.212,9.357-2.302,13.948c-0.868,3.656-2.574,7.581-2.614,11.387c-0.294,0.764-0.752,1.813-0.272,2.443
			c0.141,0.185,0.315,0.307,0.505,0.367c0.501,1.112,1.555,1.786,2.198,2.816c0.547,0.877,0.806,1.817,0.962,2.797
			c-1.516-0.098-3.032-0.109-4.544-0.052c-3.166-1.291-6.816-1.99-10.14-1.448c-4.326,0.705-6.541,3.798-9.784,6.256
			c-2.441,1.067-4.828,2.277-7.139,3.612c-0.529,0.305-0.046,1.033,0.482,0.791c12.011-5.502,25.934-8.528,38.875-4.716
			c5.769,1.7,11.254,4.772,15.455,9.106c4.663,4.811,6.068,9.456,6.168,15.617c-2.475-3.02-8.786-0.396-11.275,1.553
			C167.311,403.18,164.466,409.213,164.288,414.803z M144.289,369.389c-3.822,0.532-7.601,1.504-11.279,2.837
			c1.254-0.999,2.535-1.941,4.021-2.515C139.53,368.746,141.912,368.909,144.289,369.389z M170.596,405.19
			c2.456-3.543,6.342-5.992,10.479-4.829c-1.337,0.72-2.576,1.72-3.759,2.744c-3.414,2.957-6.815,6.073-9.956,9.37
			C168.242,409.963,169.041,407.432,170.596,405.19z M185.673,401.919c0.761,0.072,1.507,0.146,2.254,0.221
			c0.068,2.784,0.151,5.566,0.276,8.346c0.01,0.013,0.019,0.026,0.029,0.039c0.172,3.361,2.449,6.532,5.105,8.452
			c0.688,0.497,1.541,1.005,2.477,1.447c0,0,0,0.001,0,0.001c2.042,2.326,3.757,5.007,5.354,7.652
			c0.677,1.121,1.322,2.265,1.891,3.444c0.901,1.178,0.973,2.443,0.215,3.797c-1.206,0.25-2.352,0.163-3.444-0.22
			c-0.57-2.095-2.551-4.007-3.954-5.629c-1.776-2.052-3.727-3.909-5.674-5.794c-0.507-0.491-1.166,0.251-0.741,0.768
			c1.762,2.147,3.374,4.427,5.014,6.667c0.802,1.095,1.566,2.407,2.481,3.515c-1.14,2.568-4.802,0.265-6.058-0.45
			c-1.113-0.635-2.199-1.326-3.279-2.014c-1.934-1.233-3.778-2.554-5.831-3.556c0.038-0.227-0.031-0.461-0.272-0.648
			c-2.415-1.873-5.411-2.606-7.78-4.697c-2.661-2.349-4.235-5.195-5.525-8.457c-0.036-0.092-0.079-0.174-0.126-0.251
			C173.668,409.944,178.774,403.856,185.673,401.919z M168.169,425.325c-0.123-1.313,0.029-2.582,0.229-3.849
			c0.904,1.298,1.951,2.494,3.084,3.536c2.314,2.128,6.046,4.829,9.354,4.414c1.618,1.889,3.603,3.323,5.652,4.749
			c2.151,1.496,4.576,3.569,7.162,4.21c1.992,0.494,4.563-0.403,5.237-2.087c0.068,0.014,0.136,0.021,0.202,0.016
			c2.481,1.459,6.639,1.905,7.308-0.998c0.717,0.373,1.348,0.461,1.901,0.361c0.257,0.858,0.532,1.708,0.66,2.627
			c0.131,0.94,0.107,1.93,0.369,2.835c-5.574,1.688-11.367,2.106-17.575,0.702c-10.063-2.275-16.634-9.414-23.569-16.406
			C168.18,425.398,168.172,425.362,168.169,425.325z M217.92,440.788c-8.203,4.808-16.973,6.5-26.362,3.712
			c-8.469-2.515-14.961-8.029-21.847-13.2c-0.162-1.107-0.548-2.168-0.898-3.243c6.655,7.484,14.601,13.926,24.695,15.801
			c8.278,1.538,17.945,0.099,25.092-4.671C218.407,439.737,218.166,440.26,217.92,440.788z M218.967,436.958
			c-2.484,1.382-4.992,2.554-7.541,3.477c0.021-0.993-0.248-2.033-0.559-2.941c-0.312-0.912-0.624-1.878-1.058-2.765
			c0.843-1.038,1.225-2.704,1.092-4.104c-0.145-1.532-0.466-2.996-0.906-4.412c0.38,0.434,0.758,0.867,1.128,1.304
			c1.283,1.517,2.726,3.927,4.805,4.388c0.64,0.142,1.281,0.073,1.84-0.175C218.244,433.455,218.923,435.115,218.967,436.958z
			 M229.692,421.32c-1.021-1.351-2.387-2.471-3.63-3.596c-0.704-0.637-1.397-1.415-2.175-2.013c0.577-0.17,1.154-0.345,1.731-0.515
			c0.553,0.653,1.497,1.05,2.204,1.464c1.051,0.615,2.085,1.31,3.184,1.835c-0.022,0.723,0.03,1.448,0.074,2.168
			c0.016,0.263,0.021,0.529,0.034,0.794C230.64,421.412,230.171,421.343,229.692,421.32z M231.992,417.572
			c-0.039-0.065-0.088-0.129-0.161-0.187c-0.951-0.752-2.011-1.375-3.021-2.045c-0.35-0.232-0.714-0.512-1.094-0.768
			c17.343-5.122,34.663-10.33,51.969-15.589c0.198,0.498,0.387,1,0.581,1.5c-8.117,2.263-16.096,5.324-24.022,8.166
			C248.155,411.548,239.898,414.204,231.992,417.572z M256.206,413.162c-6.994,2.527-14.453,4.723-21.251,7.918
			c-0.019-0.001-0.033-0.014-0.053-0.014c-0.773,0.013-1.518,0.237-2.28,0.356c-0.02-0.312-0.058-0.628-0.081-0.947
			c-0.046-0.626-0.1-1.252-0.188-1.873c8.252-2.275,16.341-5.325,24.442-8.077c8.023-2.725,16.214-5.308,24.022-8.613
			c0.284,0.737,0.571,1.473,0.856,2.209C273.062,406.521,264.602,410.129,256.206,413.162z M275.219,414.202
			c2.977-1.11,6.179-1.837,9.097-3.109c2.833,7.678,5.497,15.411,8.056,23.185c-3.639-2.586-7.74-4.687-11.491-6.955
			c-5.09-3.078-10.171-6.171-15.289-9.203C268.866,417.106,272.041,415.388,275.219,414.202z M296.317,441.015
			c-0.699,0.266-1.457,0.254-2.178,0.356c-0.073-0.127-0.171-0.247-0.32-0.342c-9.221-5.944-18.66-13.225-28.658-17.74
			c-0.004-0.002-0.009-0.001-0.013-0.003c-0.026-0.803-0.392-1.539-0.698-2.305c-0.023-0.056-0.045-0.113-0.067-0.169
			c5.014,3.034,10.063,6.012,15.102,9.003c4.568,2.711,9.145,5.951,14.101,7.975c0.426,0.682,1.229,0.839,1.898,0.617
			c0.074-0.015,0.142-0.04,0.205-0.078c0.637-0.3,1.082-0.964,0.811-1.843c-3.147-10.197-6.663-20.286-10.484-30.249
			c-1.857-4.842-3.782-9.657-5.776-14.444c-1.701-4.085-3.233-8.628-5.568-12.443c0.512-0.141,1.022-0.297,1.532-0.447
			c3.633,9.937,8.868,19.354,12.615,29.292c3.836,10.175,7.043,20.565,9.672,31.114c0.015,0.061,0.049,0.099,0.072,0.151
			C297.913,440.113,297.234,440.666,296.317,441.015z M346.845,418.114c-8.557,4.533-17.258,8.788-26.133,12.664
			c-6.636,2.898-13.736,5.193-20.308,8.345c-0.023-0.039-0.044-0.08-0.073-0.115c-0.001-0.079,0.01-0.154-0.011-0.24
			c-2.721-10.838-5.996-21.52-9.951-31.974c-3.55-9.383-7.302-19.845-12.921-28.255c6.879-2.095,13.62-4.79,20.556-6.696
			c8.554-2.351,17.224-4.164,25.99-5.517c0.109-0.017,0.206-0.046,0.299-0.077c1.485,3.512,3.614,6.78,5.381,10.144
			c2.312,4.401,4.509,8.858,6.548,13.393C340.376,399.019,343.707,408.503,346.845,418.114z M336.2,381.734
			c5.032-1.538,10.065-3.068,15.097-4.604c0.048,0.087,0.106,0.168,0.176,0.241c0.312,0.327,0.684,0.566,1.052,0.812
			c-5.269,1.3-10.775,2.747-15.802,4.735C336.547,382.521,336.38,382.134,336.2,381.734z M339.79,385.722
			c-0.552,0.115-1.102,0.256-1.638,0.43c-0.302-0.691-0.62-1.401-0.929-2.102c5.515-1.131,11.141-3.026,16.441-4.874
			c0.306,0.403,0.54,0.87,0.696,1.363C349.744,382.077,344.204,383.338,339.79,385.722z M368.323,368.611
			c-11.172,3.372-22.355,6.717-33.538,10.062c-2.648-5.578-5.704-11.052-9.641-15.194c-0.31-0.326-0.751-0.318-1.093-0.129
			c-0.282-0.126-0.608-0.182-0.972-0.125c-9.057,1.427-18.03,3.329-26.849,5.844c-7.855,2.24-16.233,4.593-23.421,8.589
			c-0.293,0.036-0.559,0.185-0.754,0.408c-0.041,0.024-0.084,0.044-0.125,0.068c-0.709,0.413-0.517,1.297,0.046,1.637
			c1.232,4.717,3.694,9.277,5.532,13.775c0.278,0.68,0.544,1.365,0.819,2.046c-25.104,7.556-50.181,15.197-75.172,23.091
			c-2.245-0.249-3.631-2.047-3.966-4.186c1.658-15.835,0.607-32.208,0.575-48.104c-0.016-8.005-0.012-16.011-0.067-24.016
			c-0.045-6.496,0.591-13.618-0.335-20.18c0.046-2.439,0.184-4.863,0.666-7.235c56.959-13.529,113.643-28.344,170.428-42.588
			c1.702,1.631,0.972,4.744,1.063,7.124c0.009,0.23,0.023,0.461,0.034,0.691c-0.505,5.234-0.011,10.746-0.051,15.842
			c-0.056,7.139-0.051,14.278-0.067,21.417c-0.033,14.434-1.137,29.318,0.665,43.677c0.005,0.035,0.023,0.059,0.03,0.092
			C371.965,364.39,371.216,367.162,368.323,368.611z"/>
		<path style="fill:#390502;" d="M209.66,302.81c0.684-0.237,1.402-0.358,2.133-0.372c0.027-0.263,0.045-0.524,0.062-0.784
			c-0.685,0.177-1.37,0.355-2.054,0.532C209.753,302.394,209.706,302.603,209.66,302.81z"/>
		<path style="fill:#390502;" d="M189.108,321.363c-0.019-0.536-0.02-1.071,0-1.603c-0.042-0.452-0.079-0.904-0.117-1.356
			c-0.446-0.117-0.886-0.254-1.322-0.401c-0.019,0.977-0.032,1.964-0.033,2.962C188.117,321.116,188.607,321.253,189.108,321.363z"
			/>
		<path style="fill:#374763;" d="M372.132,361.214c-0.166,3.175-0.915,5.951-3.808,7.392c-11.171,3.38-22.352,6.72-33.543,10.07
			c-2.639-5.581-5.698-11.054-9.642-15.194c-0.302-0.331-0.75-0.321-1.091-0.136c-0.283-0.127-0.604-0.175-0.974-0.117
			c-9.048,1.422-18.028,3.321-26.842,5.844c-7.86,2.24-16.236,4.587-23.423,8.58c-0.292,0.039-0.555,0.185-0.75,0.409
			c-0.049,0.029-0.088,0.049-0.127,0.068c-0.711,0.419-0.516,1.295,0.039,1.636c1.237,4.724,3.701,9.282,5.532,13.781
			c0.282,0.682,0.545,1.363,0.828,2.045c-25.108,7.558-50.187,15.193-75.178,23.092c-2.24-0.253-3.633-2.045-3.964-4.188
			c1.656-15.836,0.604-32.208,0.575-48.103c-0.02-8.006-0.01-16.012-0.068-24.017c-0.01-1.529,0.02-3.097,0.058-4.685
			c11.22,7.178,24.631,11.025,37.896,13.236c36.386,6.077,74.156,1.48,108.984-10.684c8.512-2.98,16.976-6.467,24.621-11.181
			c-0.234,10.713-0.477,21.524,0.847,32.062C372.103,361.156,372.122,361.185,372.132,361.214z"/>
		<path style="fill:#374763;" d="M346.849,418.112c-8.561,4.539-17.258,8.795-26.141,12.671c-6.633,2.893-13.733,5.191-20.307,8.337
			c-0.02-0.039-0.039-0.078-0.068-0.107c0-0.088,0.01-0.156-0.01-0.243c-2.425-9.632-5.279-19.138-8.658-28.478
			c4.129,0.916,8.434,1.305,12.622,1.403c13.012,0.302,26.063-1.646,38.432-5.659C344.16,410.028,345.524,414.06,346.849,418.112z"
			/>
		<path style="fill:#BF2543;" d="M167.361,412.473c0.614-1.763,1.198-3.526,2.026-5.201c0.886,0.097,1.773,0.136,2.669,0.097
			c0.049,0.107,0.097,0.214,0.156,0.321C170.546,409.239,168.919,410.836,167.361,412.473z"/>
		<path style="fill:#BF2543;" d="M135.611,300.294c7.548,0.876,14.658,2.026,21.875,4.48c1.412,0.477,2.785,1.003,4.139,1.578
			c-0.039-0.01-0.078-0.01-0.117-0.02c-4.957-0.838-9.973-1.675-14.979-1.237c-5.006,0.438-10.08,2.308-13.382,6.087
			c-2.172,2.474-3.448,5.6-4.48,8.717c-2.084,6.311-3.331,12.866-4.5,19.401c-2.162,12.155-3.993,25.196,0.701,36.523
			c-0.964,0.497-1.919,1.013-2.854,1.558c-0.536,0.302-0.049,1.032,0.477,0.789c0.935-0.429,1.889-0.847,2.854-1.237
			c0.059,0.146,0.127,0.282,0.195,0.428c5.785,12.174,18.388,19.43,30.504,25.342c3.292,1.607,6.71,3.195,10.246,4.032
			c-1.208,2.561-1.919,5.366-2.006,8.064c-0.019,0.01-0.039,0.01-0.068,0.019c-6.486,1.987-13.479-1.334-19.401-3.866
			c-5.24-2.24-10.382-4.831-15.213-7.85c-11.58-7.236-16.284-17.443-16.489-30.893c-0.088-5.756,0.273-11.522,1.003-17.258
			l0.331-2.318c0.779-5.318,1.86-10.587,3.224-15.758c1.597-6.038,3.594-11.979,5.999-17.755c2.289-5.483,5.269-10.665,7.519-16.158
			c0.575-0.322,0.516-1.081,0.029-1.432c-0.273-0.389-0.74-0.584-1.149-0.282c-7.675-1.023-9.467-8.863-6.204-15.252
			c1.802-3.545,4.85-6.136,7.285-9.204c1.802,1.276,3.72,2.376,5.746,3.233c4.246,1.802,10.109,3.117,14.005-0.234
			c1.295-1.11,2.045-2.542,2.454-4.139c2.951,2.561,6.223,4.879,9.72,6.964c1.13,0.896,2.26,1.792,3.38,2.708
			c-0.691-0.078-1.373-0.136-2.045-0.195c-7.343-0.584-15.018-1.12-21.777,1.792c11.863,4.88,22.683,12.281,31.536,21.563
			c-0.399-0.068-0.808-0.136-1.208-0.205c-11.035-6.574-24.972-9.924-37.38-9.106C134.841,299.223,134.91,300.216,135.611,300.294z"
			/>
		<path style="fill:#EF8378;" d="M203.056,431.523c0.906,1.178,0.974,2.445,0.214,3.798c-1.208,0.243-2.347,0.156-3.438-0.224
			c-0.575-2.094-2.552-4.003-3.954-5.629c-1.782-2.055-3.73-3.905-5.678-5.795c-0.506-0.487-1.169,0.253-0.74,0.769
			c1.763,2.152,3.37,4.431,5.016,6.671c0.799,1.091,1.568,2.406,2.484,3.516c-1.149,2.562-4.811,0.263-6.058-0.458
			c-1.12-0.633-2.201-1.324-3.282-2.016c-1.938-1.227-3.779-2.552-5.834-3.555c0.039-0.224-0.029-0.458-0.273-0.643
			c-2.415-1.87-5.405-2.61-7.782-4.694c-2.659-2.357-4.227-5.201-5.522-8.463c-0.039-0.088-0.078-0.175-0.127-0.253
			c1.782-1.471,3.516-3.088,5.269-4.675c4.948,8.444,14.405,14.268,24.173,14.765c0.497,0.029,0.993,0.039,1.49,0.029
			c0.75,1.12,1.461,2.269,2.152,3.409C201.848,429.195,202.491,430.345,203.056,431.523z"/>
		<path style="fill:#EF8378;" d="M206.338,423.673c1.714,4.49,2.971,9.506,0.39,9.846c-0.107,0.02-0.214,0.049-0.302,0.088
			c-0.01-0.078-0.01-0.136-0.029-0.214c-0.584-3.156-2.688-6.175-5.074-8.834C203.017,424.413,204.692,424.111,206.338,423.673z"/>
		<path style="fill:#EF8378;" d="M217.052,428.397c-0.019,0.039-0.019,0.107-0.049,0.146c-0.847,1.247-1.851-0.214-2.464-0.77
			c-1.792-1.626-3.516-3.399-5.337-5.025c1.928-0.73,3.789-1.665,5.532-2.766C215.669,422.641,216.331,425.455,217.052,428.397z"/>
		<path style="fill:#A81A7D;" d="M128.072,173.029c-1.539,1.792-2.941,3.691-4.168,5.688c-0.497,0.331-0.984,0.682-1.461,1.052
			c-11.025,2.445-19.8,12.632-22.079,23.511c-3.35,15.914,9.652,29.676,6.905,45.288c-2.259,12.866-13.255,22.138-20.852,32.013
			c-7.529,9.788-12.174,21.008-7.908,33.289c5.756,16.557,21.641,26.287,32.832,38.958c-1.344,8.843-1.831,17.911-0.74,26.55
			c0.185,1.432,0.438,2.805,0.75,4.129c-2.24-1.519-5.25-1.734-7.928-1.062c-3.662-15.797-17.317-26.238-24.991-39.951
			c-3.467-6.204-6.077-12.885-7.792-19.79c1.071,1.101,2.279,2.075,3.584,2.912c2.912-8.103-1.51-16.937-1.344-25.537
			c0.36-18.563,20.94-30.582,25.624-48.531c2.708-10.343-0.224-21.183-2.123-31.692c-1.909-10.509-2.493-22.332,3.944-30.864
			c4.49-5.951,11.619-9.214,18.476-12.155C121.859,175.523,124.946,174.227,128.072,173.029z"/>
		<path style="fill:#5A4B66;" d="M128.384,303.421c-7.139,10.119-11.298,23.501-14.19,35.257c-0.867,3.477-1.636,7.061-2.279,10.684
			c-4.383-5.279-9.554-9.866-14.492-14.638c-4.13-5.24-8.288-10.538-11.103-16.586c-2.815-6.038-4.198-12.992-2.503-19.44
			c4.1-15.505,23.618-22.44,29.14-37.487c3.604-9.837,0.36-20.706-2.522-30.777c-2.893-10.07-5.298-21.388-0.321-30.621
			c0.175-0.321,0.36-0.643,0.555-0.954c-0.623,2.357-1.032,4.724-1.227,7.032c-0.828,9.964,2.328,22.683,9.934,29.832
			c-0.029,0.02-0.068,0.039-0.097,0.068c-4.315,3.224-4.85,9.067-4.159,14.015c1.334,9.593,6.506,19.313,14.18,25.576
			c-5.785,3.886-10.772,10.879-10.294,17.998C119.346,298.346,123.417,303.284,128.384,303.421z"/>
		<path style="fill:#A81A7D;" d="M135.611,410.057c-2.766,0.623-5.405,1.792-7.597,3.584c-5.6-5.727-11.424-11.239-17.141-16.849
			c-3.516-3.448-6.788-7.821-11.824-8.356c1.13-1.217,2.513-2.211,4.022-2.776c0.136-0.049,0.282-0.097,0.419-0.136
			c3.175,4.13,7.626,7.285,12.593,8.892c3.233,4.85,7.753,8.824,13.362,12.213C131.452,407.837,133.517,408.976,135.611,410.057z"/>
		<path style="fill:#BF2543;" d="M186.509,395.721c0.234-4.616-2.552-9.691-5.23-13.012c-3.915-4.88-9.194-8.532-14.979-10.84
			c-3.477-1.393-7.012-2.25-10.567-2.659c0.127-1.334-0.234-2.708-0.847-3.896c-0.613-1.179-1.695-2.639-3.087-2.912
			c0.097-0.36,0.127-0.769,0.156-1.139c2.094-3.302,2.785-7.597,3.701-11.337c0.282-1.169,0.555-2.347,0.808-3.526
			c2.396,6.224,6.34,11.921,11.298,16.391c5.707,5.152,12.632,8.775,20.024,10.957c-0.029,7.334-0.068,14.667,0.02,22.001
			C187.376,395.77,186.937,395.76,186.509,395.721z"/>
		<path style="fill:#6C2612;" d="M247.546,216.36c-0.458,0.234-0.906,0.467-1.364,0.701c-17.901-3.438-34.575-11.921-48.415-23.959
			c-0.701-0.604-1.646,0.37-1.003,1.042c4.996,5.181,10.557,9.661,16.537,13.411c-18.855,1.704-39.951,4.782-54.258-10.441
			c-0.263-0.38-0.526-0.76-0.799-1.13c-0.526-0.711-1.792-0.292-1.49,0.662c1.967,6.262,4.353,12.057,5.688,18.427
			c-3.224-1.519-6.097-3.516-8.746-6.019c-0.906-0.857-2.23-0.146-2.308,1.003c-0.945,14.629,9.993,25.878,12.33,39.756
			c-5.249-0.156-10.343-0.906-15.534-1.753c-2.045-4.227-4.782-8.045-8.347-10.499c0.049-0.175,0.058-0.36-0.029-0.575
			c-6.107-14.56-9.174-29.16-3.779-44.587c2.62-7.499,6.857-14.171,12.281-19.722c5.512-2.279,11.22-4.091,17.034-5.396
			c2.386-7.451,6.856-14.22,12.768-19.342c-1.11,4.198-2.211,8.386-3.311,12.583c28.624-3.75,58.748,6.633,78.986,27.222
			c-5.668-0.195-11.317-0.799-16.888-1.802c3.701,7.49,6.652,15.349,8.824,23.423c-7.256-5.707-15.875-9.652-24.933-11.415
			C227.862,206.309,237.212,212.747,247.546,216.36z"/>
		<path style="fill:#FFE62C;" d="M140.203,261.313c-0.36-3.555-2.568-7.162-4.812-9.862c-1.488-1.791-4.011-5.498-6.729-4.517
			c-0.161,0.058-0.133,0.299-0.028,0.391c2.449,2.144,4.053,4.239,5.465,7.192c1.205,2.518,1.854,5.257,3.04,7.757
			C138.011,264.112,140.397,263.233,140.203,261.313z"/>
		<path style="fill:#FFE62C;" d="M139.75,264.444c-1,0-1.804,0.579-1.9,1.635c-0.078,0.862,0.553,2.103,1.559,2.103
			c1,0,1.804-0.579,1.9-1.635C141.387,265.686,140.756,264.444,139.75,264.444z"/>
		<path style="fill:#EF8378;" d="M192.489,284.458c7.168,4.47,15.515,5.844,24.066,6.048c-2.026,0.331-4.061,0.516-6.077,0.594
			c-9.993,0.389-20.083-1.247-29.559-4.383c-10.109-3.341-18.427-8.756-27.144-14.619c0.02-3.302-0.76-6.818-1.178-9.515
			c-0.545-3.565-1.558-7.636-3.107-11.551c5.142,1.178,10.518,1.51,15.768,1.441c0.653-0.01,1.383-0.633,1.295-1.334
			c-1.802-13.411-11.941-24.534-12.476-38.052c2.951,2.474,6.204,4.344,9.915,5.775c1.159,0.448,1.889-0.876,1.743-1.811
			c-0.75-4.831-1.899-10.022-3.906-14.716c14.307,12.72,36.61,11.755,54.619,8.025c0.341-0.068,0.594-0.243,0.769-0.467
			c1.909,1.071,3.857,2.065,5.844,3c-4.782,2.756-10.1,4.675-15.495,5.873c-9.272,2.065-18.865,2.143-28.361,1.86
			c-1.403-0.039-2.902-0.058-4.061,0.721c-1.695,1.149-1.977,3.487-2.084,5.532c-0.536,10.635-0.672,21.436,1.977,31.75
			C177.685,268.943,183.451,278.829,192.489,284.458z"/>
	</g>
	<g>
		<path style="fill:#FCA71F;" d="M128.37,141.999c-11.485-7.813-22.09-14.967-33.575-22.78c-3.476,13.823-5.878,27.916-7.179,42.11
			C99.964,156.007,116.021,147.322,128.37,141.999z"/>
		<path style="fill:#FF2929;" d="M113.426,79.661c-0.33,6.335,4.447,12.468,10.605,13.99c6.159,1.522,13.073-1.501,16.405-6.9
			c1.237-2.004,2.027-4.346,1.87-6.696C141.276,64.577,114.318,62.537,113.426,79.661z"/>
		<path style="fill:#FF2929;" d="M382.22,261.534c-0.447,8.58,6.023,16.887,14.364,18.948c8.341,2.061,17.706-2.033,22.219-9.345
			c1.675-2.714,2.745-5.886,2.533-9.069C419.94,241.104,383.428,238.341,382.22,261.534z"/>
		<path style="fill:#429FBC;" d="M438.406,66.421c3.618-3.581,8.118-8.108,7.796-12.657c-0.158-2.226-2.003-3.409-4.106-3.011
			c-3.031,0.573-4.147,2.483-6.03,4.8c-1.052,1.293-2.124,2.569-3.212,3.83c-2.798-3.309-5.961-6.535-10.017-7.987
			c-2.121-0.759-3.865,1.614-3.381,3.507c1.094,4.276,4.298,8.013,7.013,11.555c-3.214,3.471-6.415,6.941-9.28,10.723
			c-1.849,2.441,0.528,6.052,3.496,4.365c3.951-2.245,7.48-5.041,10.77-8.126c1.739,2.529,3.435,5.088,5.074,7.684
			c3.37,5.338,11.75,0.272,8.391-5.111C442.87,72.71,440.7,69.523,438.406,66.421z"/>
		<path style="fill:#429FBC;" d="M76.242,178.742c1.978-1.958,4.438-4.433,4.262-6.919c-0.086-1.217-1.095-1.864-2.244-1.646
			c-1.657,0.313-2.267,1.358-3.297,2.624c-0.575,0.707-1.161,1.404-1.756,2.094c-1.53-1.809-3.259-3.573-5.476-4.367
			c-1.16-0.415-2.113,0.882-1.849,1.917c0.598,2.338,2.35,4.381,3.834,6.317c-1.757,1.898-3.507,3.795-5.073,5.863
			c-1.011,1.334,0.289,3.308,1.911,2.386c2.16-1.227,4.09-2.756,5.888-4.442c0.951,1.383,1.878,2.782,2.774,4.201
			c1.842,2.918,6.424,0.149,4.587-2.794C78.682,182.18,77.496,180.438,76.242,178.742z"/>
	</g>
</g>
</svg>
